WixMadeforDisplay-ExtraBold.ufo
<glyph name="exclam" format="2">
	<unicode hex="0021"/>
	<advance width="286"/>
	<outline>
		<contour>
			<point x="243" y="86" type="curve" smooth="yes"/>
			<point x="243" y="141"/>
			<point x="199" y="183"/>
			<point x="143" y="183" type="curve" smooth="yes"/>
			<point x="87" y="183"/>
			<point x="43" y="141"/>
			<point x="43" y="86" type="curve" smooth="yes"/>
			<point x="43" y="32"/>
			<point x="87" y="-10"/>
			<point x="143" y="-10" type="curve" smooth="yes"/>
			<point x="199" y="-10"/>
			<point x="243" y="32"/>
		</contour>
		<contour>
			<point x="181" y="236" type="line"/>
			<point x="191" y="292"/>
			<point x="237" y="610"/>
			<point x="237" y="643" type="curve" smooth="yes"/>
			<point x="237" y="694"/>
			<point x="195" y="731"/>
			<point x="143" y="731" type="curve" smooth="yes"/>
			<point x="91" y="731"/>
			<point x="49" y="694"/>
			<point x="49" y="643" type="curve" smooth="yes"/>
			<point x="49" y="610"/>
			<point x="95" y="292"/>
			<point x="105" y="236" type="curve"/>
		</contour>
	</outline>
	<guideline y="226"/>
</glyph>
<glyph name="numbersign" format="2">
	<unicode hex="0023"/>
	<advance width="732"/>
	<outline>
		<contour>
			<point x="499" y="0" type="line"/>
			<point x="651" y="715" type="line"/>
			<point x="499" y="715" type="line"/>
			<point x="347" y="0" type="line"/>
		</contour>
		<contour>
			<point x="608" y="143" type="line"/>
			<point x="636" y="277" type="line"/>
			<point x="59" y="277" type="line"/>
			<point x="30" y="143" type="line"/>
		</contour>
		<contour>
			<point x="231" y="715" type="line"/>
			<point x="79" y="0" type="line"/>
			<point x="231" y="0" type="line"/>
			<point x="383" y="715" type="line"/>
		</contour>
		<contour>
			<point x="122" y="572" type="line"/>
			<point x="94" y="438" type="line"/>
			<point x="671" y="438" type="line"/>
			<point x="700" y="572" type="line"/>
		</contour>
	</outline>
	<guideline x="572" y="0" angle="102.01"/>
	<guideline x="-87" y="0" angle="102.62"/>
</glyph>
<glyph name="dollar" format="2">
	<unicode hex="0024"/>
	<advance width="660"/>
	<outline>
		<contour>
			<point x="42" y="116" type="line"/>
			<point x="110" y="39"/>
			<point x="219" y="-6"/>
			<point x="341" y="-6" type="curve" smooth="yes"/>
			<point x="513" y="-6"/>
			<point x="628" y="82"/>
			<point x="628" y="213" type="curve" smooth="yes"/>
			<point x="628" y="328"/>
			<point x="542" y="398"/>
			<point x="358" y="430" type="curve" smooth="yes"/>
			<point x="244" y="450"/>
			<point x="216" y="467"/>
			<point x="216" y="516" type="curve" smooth="yes"/>
			<point x="216" y="559"/>
			<point x="266" y="591"/>
			<point x="344" y="591" type="curve" smooth="yes"/>
			<point x="399" y="591"/>
			<point x="460" y="565"/>
			<point x="508" y="499" type="curve"/>
			<point x="608" y="599" type="line"/>
			<point x="540" y="676"/>
			<point x="443" y="721"/>
			<point x="339" y="721" type="curve" smooth="yes"/>
			<point x="181" y="721"/>
			<point x="64" y="629"/>
			<point x="64" y="504" type="curve" smooth="yes"/>
			<point x="64" y="396"/>
			<point x="149" y="325"/>
			<point x="315" y="296" type="curve" smooth="yes"/>
			<point x="441" y="274"/>
			<point x="477" y="253"/>
			<point x="477" y="203" type="curve" smooth="yes"/>
			<point x="477" y="156"/>
			<point x="422" y="124"/>
			<point x="336" y="124" type="curve" smooth="yes"/>
			<point x="272" y="124"/>
			<point x="199" y="150"/>
			<point x="142" y="216" type="curve"/>
		</contour>
		<contour>
			<point x="384" y="369" type="line"/>
			<point x="384" y="831" type="line"/>
			<point x="310" y="831" type="line"/>
			<point x="310" y="369" type="line"/>
		</contour>
		<contour>
			<point x="380" y="-116" type="line"/>
			<point x="380" y="359" type="line"/>
			<point x="306" y="359" type="line"/>
			<point x="306" y="-116" type="line"/>
		</contour>
	</outline>
</glyph>
<glyph name="ampersand" format="2">
	<unicode hex="0026"/>
	<advance width="725"/>
	<outline>
		<contour>
			<point x="696" y="289" type="line"/>
			<point x="577" y="370" type="line"/>
			<point x="495" y="248" type="line" smooth="yes"/>
			<point x="425" y="141"/>
			<point x="369" y="114"/>
			<point x="310" y="114" type="curve" smooth="yes"/>
			<point x="244" y="114"/>
			<point x="200" y="155"/>
			<point x="200" y="210" type="curve" smooth="yes"/>
			<point x="200" y="262"/>
			<point x="233" y="308"/>
			<point x="318" y="335" type="curve"/>
			<point x="298" y="432" type="line"/>
			<point x="114" y="381"/>
			<point x="32" y="310"/>
			<point x="32" y="198" type="curve" smooth="yes"/>
			<point x="32" y="71"/>
			<point x="140" y="-16"/>
			<point x="301" y="-16" type="curve" smooth="yes"/>
			<point x="430" y="-16"/>
			<point x="523" y="42"/>
			<point x="614" y="171" type="curve" smooth="yes"/>
		</contour>
		<contour>
			<point x="718" y="95" type="line"/>
			<point x="377" y="385" type="line"/>
			<point x="352" y="404" type="line"/>
			<point x="266" y="472"/>
			<point x="247" y="501"/>
			<point x="247" y="543" type="curve" smooth="yes"/>
			<point x="247" y="581"/>
			<point x="281" y="612"/>
			<point x="320" y="612" type="curve" smooth="yes"/>
			<point x="364" y="612"/>
			<point x="397" y="578"/>
			<point x="397" y="536" type="curve" smooth="yes"/>
			<point x="397" y="499"/>
			<point x="364" y="455"/>
			<point x="298" y="436" type="curve"/>
			<point x="318" y="338" type="line"/>
			<point x="450" y="370"/>
			<point x="538" y="450"/>
			<point x="538" y="539" type="curve" smooth="yes"/>
			<point x="538" y="646"/>
			<point x="442" y="731"/>
			<point x="318" y="731" type="curve" smooth="yes"/>
			<point x="198" y="731"/>
			<point x="100" y="650"/>
			<point x="100" y="542" type="curve" smooth="yes"/>
			<point x="100" y="476"/>
			<point x="130" y="417"/>
			<point x="222" y="340" type="curve"/>
			<point x="248" y="320" type="line"/>
			<point x="620" y="-12" type="line"/>
		</contour>
	</outline>
</glyph>
<glyph name="quotesingle" format="2">
	<unicode hex="0027"/>
	<advance width="288"/>
	<outline>
		<contour>
			<point x="172" y="443" type="line"/>
			<point x="200" y="542"/>
			<point x="219" y="638"/>
			<point x="219" y="676" type="curve" smooth="yes"/>
			<point x="219" y="724"/>
			<point x="185" y="754"/>
			<point x="144" y="754" type="curve" smooth="yes"/>
			<point x="103" y="754"/>
			<point x="69" y="724"/>
			<point x="69" y="676" type="curve" smooth="yes"/>
			<point x="69" y="638"/>
			<point x="88" y="542"/>
			<point x="116" y="443" type="curve"/>
		</contour>
	</outline>
</glyph>
<glyph name="parenleft" format="2">
	<unicode hex="0028"/>
	<advance width="360"/>
	<outline>
		<contour>
			<point x="35" y="302" type="curve" smooth="yes"/>
			<point x="35" y="141"/>
			<point x="82" y="-4"/>
			<point x="172" y="-129" type="curve"/>
			<point x="335" y="-129" type="line"/>
			<point x="244" y="12"/>
			<point x="199" y="153"/>
			<point x="199" y="302" type="curve" smooth="yes"/>
			<point x="199" y="451"/>
			<point x="244" y="590"/>
			<point x="335" y="731" type="curve"/>
			<point x="172" y="731" type="line"/>
			<point x="82" y="606"/>
			<point x="35" y="463"/>
		</contour>
	</outline>
</glyph>
<glyph name="parenright" format="2">
	<unicode hex="0029"/>
	<advance width="360"/>
	<outline>
		<contour>
			<point x="325" y="302" type="curve" smooth="yes"/>
			<point x="325" y="463"/>
			<point x="278" y="606"/>
			<point x="188" y="731" type="curve"/>
			<point x="25" y="731" type="line"/>
			<point x="116" y="590"/>
			<point x="161" y="451"/>
			<point x="161" y="302" type="curve" smooth="yes"/>
			<point x="161" y="153"/>
			<point x="116" y="12"/>
			<point x="25" y="-129" type="curve"/>
			<point x="188" y="-129" type="line"/>
			<point x="278" y="-4"/>
			<point x="325" y="141"/>
		</contour>
	</outline>
</glyph>
<glyph name="asterisk" format="2">
	<unicode hex="002A"/>
	<advance width="459"/>
	<outline>
		<contour>
			<point x="230" y="461" type="curve"/>
			<point x="245" y="414"/>
			<point x="268" y="360"/>
			<point x="282" y="340" type="curve" smooth="yes"/>
			<point x="294" y="322"/>
			<point x="310" y="314"/>
			<point x="329" y="314" type="curve" smooth="yes"/>
			<point x="361" y="314"/>
			<point x="387" y="340"/>
			<point x="387" y="367" type="curve" smooth="yes"/>
			<point x="387" y="381"/>
			<point x="382" y="396"/>
			<point x="372" y="409" type="curve" smooth="yes"/>
			<point x="357" y="429"/>
			<point x="314" y="466"/>
			<point x="274" y="493" type="curve"/>
			<point x="325" y="493"/>
			<point x="375" y="498"/>
			<point x="399" y="504" type="curve" smooth="yes"/>
			<point x="426" y="512"/>
			<point x="441" y="531"/>
			<point x="441" y="556" type="curve" smooth="yes"/>
			<point x="441" y="590"/>
			<point x="418" y="615"/>
			<point x="387" y="615" type="curve" smooth="yes"/>
			<point x="377" y="615"/>
			<point x="369" y="614"/>
			<point x="358" y="610" type="curve" smooth="yes"/>
			<point x="338" y="602"/>
			<point x="304" y="581"/>
			<point x="258" y="545" type="curve"/>
			<point x="274" y="592"/>
			<point x="287" y="649"/>
			<point x="287" y="674" type="curve" smooth="yes"/>
			<point x="287" y="709"/>
			<point x="265" y="732"/>
			<point x="230" y="732" type="curve" smooth="yes"/>
			<point x="195" y="732"/>
			<point x="173" y="709"/>
			<point x="173" y="674" type="curve" smooth="yes"/>
			<point x="173" y="649"/>
			<point x="186" y="592"/>
			<point x="202" y="545" type="curve"/>
			<point x="156" y="581"/>
			<point x="122" y="602"/>
			<point x="102" y="610" type="curve" smooth="yes"/>
			<point x="91" y="614"/>
			<point x="83" y="615"/>
			<point x="73" y="615" type="curve" smooth="yes"/>
			<point x="42" y="615"/>
			<point x="19" y="590"/>
			<point x="19" y="556" type="curve" smooth="yes"/>
			<point x="19" y="531"/>
			<point x="34" y="512"/>
			<point x="61" y="504" type="curve" smooth="yes"/>
			<point x="85" y="498"/>
			<point x="135" y="493"/>
			<point x="186" y="493" type="curve"/>
			<point x="146" y="466"/>
			<point x="103" y="429"/>
			<point x="88" y="409" type="curve" smooth="yes"/>
			<point x="78" y="396"/>
			<point x="73" y="381"/>
			<point x="73" y="367" type="curve" smooth="yes"/>
			<point x="73" y="340"/>
			<point x="99" y="314"/>
			<point x="131" y="314" type="curve" smooth="yes"/>
			<point x="150" y="314"/>
			<point x="166" y="322"/>
			<point x="178" y="340" type="curve" smooth="yes"/>
			<point x="192" y="360"/>
			<point x="215" y="414"/>
		</contour>
	</outline>
</glyph>
<glyph name="hyphen" format="2">
	<unicode hex="002D"/>
	<advance width="338"/>
	<outline>
		<contour>
			<point x="313" y="222" type="line"/>
			<point x="313" y="362" type="line"/>
			<point x="25" y="362" type="line"/>
			<point x="25" y="222" type="line"/>
		</contour>
	</outline>
</glyph>
<glyph name="period" format="2">
	<unicode hex="002E"/>
	<advance width="288"/>
	<outline>
		<contour>
			<point x="244" y="86" type="curve" smooth="yes"/>
			<point x="244" y="141"/>
			<point x="200" y="183"/>
			<point x="144" y="183" type="curve" smooth="yes"/>
			<point x="88" y="183"/>
			<point x="44" y="141"/>
			<point x="44" y="86" type="curve" smooth="yes"/>
			<point x="44" y="32"/>
			<point x="88" y="-10"/>
			<point x="144" y="-10" type="curve" smooth="yes"/>
			<point x="200" y="-10"/>
			<point x="244" y="32"/>
		</contour>
	</outline>
</glyph>
<glyph name="slash" format="2">
	<unicode hex="002F"/>
	<advance width="519"/>
	<outline>
		<contour>
			<point x="197" y="0" type="line"/>
			<point x="482" y="731" type="line"/>
			<point x="322" y="731" type="line"/>
			<point x="37" y="0" type="line"/>
		</contour>
	</outline>
</glyph>
<glyph name="zero" format="2">
	<unicode hex="0030"/>
	<advance width="660"/>
	<outline>
		<contour>
			<point x="330" y="-16" type="curve" smooth="yes"/>
			<point x="518" y="-16"/>
			<point x="631" y="119"/>
			<point x="631" y="357" type="curve" smooth="yes"/>
			<point x="631" y="597"/>
			<point x="518" y="731"/>
			<point x="330" y="731" type="curve" smooth="yes"/>
			<point x="142" y="731"/>
			<point x="29" y="597"/>
			<point x="29" y="357" type="curve" smooth="yes"/>
			<point x="29" y="119"/>
			<point x="142" y="-16"/>
		</contour>
		<contour>
			<point x="330" y="122" type="curve" smooth="yes"/>
			<point x="250" y="122"/>
			<point x="203" y="199"/>
			<point x="203" y="357" type="curve" smooth="yes"/>
			<point x="203" y="516"/>
			<point x="250" y="593"/>
			<point x="330" y="593" type="curve" smooth="yes"/>
			<point x="410" y="593"/>
			<point x="457" y="516"/>
			<point x="457" y="357" type="curve" smooth="yes"/>
			<point x="457" y="199"/>
			<point x="410" y="122"/>
		</contour>
	</outline>
	<guideline x="240"/>
	<guideline x="453"/>
</glyph>
<glyph name="one" format="2">
	<unicode hex="0031"/>
	<advance width="506"/>
	<outline>
		<contour>
			<point x="282" y="715" type="line"/>
			<point x="71" y="597" type="line"/>
			<point x="71" y="429" type="line"/>
			<point x="249" y="536" type="line"/>
			<point x="249" y="0" type="line"/>
			<point x="421" y="0" type="line"/>
			<point x="421" y="715" type="line"/>
		</contour>
	</outline>
</glyph>
<glyph name="two" format="2">
	<unicode hex="0032"/>
	<advance width="598"/>
	<outline>
		<contour>
			<point x="563" y="0" type="line"/>
			<point x="563" y="136" type="line"/>
			<point x="265" y="136" type="line"/>
			<point x="297" y="157"/>
			<point x="360" y="208"/>
			<point x="389" y="232" type="curve" smooth="yes"/>
			<point x="507" y="328"/>
			<point x="559" y="409"/>
			<point x="559" y="500" type="curve" smooth="yes"/>
			<point x="559" y="635"/>
			<point x="458" y="731"/>
			<point x="300" y="731" type="curve" smooth="yes"/>
			<point x="183" y="731"/>
			<point x="92" y="682"/>
			<point x="24" y="597" type="curve"/>
			<point x="133" y="488" type="line"/>
			<point x="182" y="560"/>
			<point x="237" y="589"/>
			<point x="292" y="589" type="curve" smooth="yes"/>
			<point x="348" y="589"/>
			<point x="393" y="550"/>
			<point x="393" y="496" type="curve" smooth="yes"/>
			<point x="393" y="456"/>
			<point x="372" y="421"/>
			<point x="324" y="379" type="curve" smooth="yes"/>
			<point x="41" y="136" type="line"/>
			<point x="41" y="0" type="line"/>
		</contour>
	</outline>
</glyph>
<glyph name="three" format="2">
	<unicode hex="0033"/>
	<advance width="637"/>
	<outline>
		<contour>
			<point x="21" y="98" type="line"/>
			<point x="93" y="23"/>
			<point x="194" y="-16"/>
			<point x="303" y="-16" type="curve" smooth="yes"/>
			<point x="479" y="-16"/>
			<point x="597" y="80"/>
			<point x="597" y="206" type="curve" smooth="yes"/>
			<point x="597" y="320"/>
			<point x="504" y="397"/>
			<point x="369" y="397" type="curve"/>
			<point x="339" y="360" type="line"/>
			<point x="480" y="360"/>
			<point x="577" y="427"/>
			<point x="577" y="529" type="curve" smooth="yes"/>
			<point x="577" y="640"/>
			<point x="471" y="731"/>
			<point x="311" y="731" type="curve" smooth="yes"/>
			<point x="206" y="731"/>
			<point x="110" y="691"/>
			<point x="41" y="617" type="curve"/>
			<point x="150" y="508" type="line"/>
			<point x="190" y="561"/>
			<point x="241" y="589"/>
			<point x="304" y="589" type="curve" smooth="yes"/>
			<point x="361" y="589"/>
			<point x="403" y="561"/>
			<point x="403" y="509" type="curve" smooth="yes"/>
			<point x="403" y="469"/>
			<point x="362" y="437"/>
			<point x="301" y="437" type="curve" smooth="yes"/>
			<point x="238" y="437" type="line"/>
			<point x="238" y="298" type="line"/>
			<point x="301" y="298" type="line" smooth="yes"/>
			<point x="374" y="298"/>
			<point x="423" y="268"/>
			<point x="423" y="216" type="curve" smooth="yes"/>
			<point x="423" y="157"/>
			<point x="369" y="126"/>
			<point x="296" y="126" type="curve" smooth="yes"/>
			<point x="229" y="126"/>
			<point x="173" y="154"/>
			<point x="130" y="207" type="curve"/>
		</contour>
	</outline>
</glyph>
<glyph name="four" format="2">
	<unicode hex="0034"/>
	<advance width="681"/>
	<outline>
		<contour>
			<point x="553" y="0" type="line"/>
			<point x="553" y="121" type="line"/>
			<point x="644" y="121" type="line"/>
			<point x="644" y="255" type="line"/>
			<point x="553" y="255" type="line"/>
			<point x="553" y="715" type="line"/>
			<point x="384" y="715" type="line"/>
			<point x="35" y="255" type="line"/>
			<point x="35" y="121" type="line"/>
			<point x="384" y="121" type="line"/>
			<point x="384" y="0" type="line"/>
		</contour>
		<contour>
			<point x="384" y="500" type="line"/>
			<point x="384" y="255" type="line"/>
			<point x="194" y="255" type="line"/>
		</contour>
	</outline>
	<guideline x="230"/>
</glyph>
<glyph name="five" format="2">
	<unicode hex="0035"/>
	<advance width="627"/>
	<outline>
		<contour>
			<point x="137" y="217" type="curve"/>
			<point x="28" y="108" type="line"/>
			<point x="103" y="23"/>
			<point x="198" y="-16"/>
			<point x="311" y="-16" type="curve" smooth="yes"/>
			<point x="471" y="-16"/>
			<point x="594" y="90"/>
			<point x="594" y="245" type="curve" smooth="yes"/>
			<point x="594" y="390"/>
			<point x="495" y="494"/>
			<point x="351" y="494" type="curve" smooth="yes"/>
			<point x="230" y="494"/>
			<point x="156" y="412"/>
			<point x="143" y="304" type="curve"/>
			<point x="197" y="301" type="line"/>
			<point x="225" y="339"/>
			<point x="264" y="359"/>
			<point x="311" y="359" type="curve" smooth="yes"/>
			<point x="379" y="359"/>
			<point x="426" y="313"/>
			<point x="426" y="245" type="curve" smooth="yes"/>
			<point x="426" y="176"/>
			<point x="374" y="126"/>
			<point x="304" y="126" type="curve" smooth="yes"/>
			<point x="234" y="126"/>
			<point x="179" y="160"/>
		</contour>
		<contour>
			<point x="558" y="579" type="line"/>
			<point x="558" y="715" type="line"/>
			<point x="104" y="715" type="line"/>
			<point x="52" y="301" type="line"/>
			<point x="197" y="301" type="line"/>
			<point x="244" y="676" type="line"/>
			<point x="161" y="579" type="line"/>
		</contour>
	</outline>
	<guideline x="302"/>
	<guideline y="242"/>
	<guideline x="9" y="0" angle="97.16"/>
	<guideline x="154" y="0" angle="97.16"/>
</glyph>
<glyph name="six" format="2">
	<unicode hex="0036"/>
	<advance width="645"/>
	<outline>
		<contour>
			<point x="323" y="-16" type="curve" smooth="yes"/>
			<point x="490" y="-16"/>
			<point x="615" y="88"/>
			<point x="615" y="244" type="curve" smooth="yes"/>
			<point x="615" y="384"/>
			<point x="515" y="484"/>
			<point x="364" y="484" type="curve" smooth="yes"/>
			<point x="303" y="484"/>
			<point x="256" y="459"/>
			<point x="223" y="419" type="curve"/>
			<point x="236" y="417" type="line"/>
			<point x="279" y="495"/>
			<point x="366" y="580"/>
			<point x="530" y="715" type="curve"/>
			<point x="310" y="715" type="line"/>
			<point x="165" y="584"/>
			<point x="36" y="447"/>
			<point x="36" y="263" type="curve" smooth="yes"/>
			<point x="36" y="100"/>
			<point x="155" y="-16"/>
		</contour>
		<contour>
			<point x="324" y="122" type="curve"/>
			<point x="251" y="122"/>
			<point x="200" y="172"/>
			<point x="200" y="239" type="curve" smooth="yes"/>
			<point x="200" y="306"/>
			<point x="251" y="356"/>
			<point x="324" y="356" type="curve" smooth="yes"/>
			<point x="399" y="356"/>
			<point x="450" y="306"/>
			<point x="450" y="239" type="curve" smooth="yes"/>
			<point x="450" y="172"/>
			<point x="399" y="122"/>
		</contour>
	</outline>
</glyph>
<glyph name="seven" format="2">
	<unicode hex="0037"/>
	<advance width="608"/>
	<outline>
		<contour>
			<point x="568" y="715" type="line"/>
			<point x="40" y="715" type="line"/>
			<point x="40" y="579" type="line"/>
			<point x="395" y="579" type="line"/>
			<point x="60" y="0" type="line"/>
			<point x="244" y="0" type="line"/>
			<point x="568" y="579" type="line"/>
		</contour>
	</outline>
</glyph>
<glyph name="eight" format="2">
	<unicode hex="0038"/>
	<advance width="656"/>
	<outline>
		<contour>
			<point x="328" y="-16" type="curve" smooth="yes"/>
			<point x="503" y="-16"/>
			<point x="619" y="78"/>
			<point x="619" y="202" type="curve" smooth="yes"/>
			<point x="619" y="326"/>
			<point x="497" y="410"/>
			<point x="328" y="410" type="curve" smooth="yes"/>
			<point x="160" y="410"/>
			<point x="37" y="326"/>
			<point x="37" y="202" type="curve" smooth="yes"/>
			<point x="37" y="78"/>
			<point x="153" y="-16"/>
		</contour>
		<contour>
			<point x="328" y="353" type="curve" smooth="yes"/>
			<point x="479" y="353"/>
			<point x="589" y="427"/>
			<point x="589" y="537" type="curve" smooth="yes"/>
			<point x="589" y="645"/>
			<point x="485" y="731"/>
			<point x="328" y="731" type="curve" smooth="yes"/>
			<point x="171" y="731"/>
			<point x="67" y="645"/>
			<point x="67" y="537" type="curve" smooth="yes"/>
			<point x="67" y="427"/>
			<point x="177" y="353"/>
		</contour>
		<contour>
			<point x="328" y="122" type="curve" smooth="yes"/>
			<point x="259" y="122"/>
			<point x="211" y="158"/>
			<point x="211" y="212" type="curve" smooth="yes"/>
			<point x="211" y="266"/>
			<point x="259" y="302"/>
			<point x="328" y="302" type="curve" smooth="yes"/>
			<point x="397" y="302"/>
			<point x="445" y="266"/>
			<point x="445" y="212" type="curve" smooth="yes"/>
			<point x="445" y="158"/>
			<point x="397" y="122"/>
		</contour>
		<contour>
			<point x="328" y="437" type="curve" smooth="yes"/>
			<point x="273" y="437"/>
			<point x="234" y="471"/>
			<point x="234" y="517" type="curve" smooth="yes"/>
			<point x="234" y="563"/>
			<point x="273" y="597"/>
			<point x="328" y="597" type="curve" smooth="yes"/>
			<point x="383" y="597"/>
			<point x="422" y="563"/>
			<point x="422" y="517" type="curve" smooth="yes"/>
			<point x="422" y="471"/>
			<point x="383" y="437"/>
		</contour>
	</outline>
</glyph>
<glyph name="nine" format="2">
	<unicode hex="0039"/>
	<advance width="645"/>
	<outline>
		<contour>
			<point x="322" y="731" type="curve" smooth="yes"/>
			<point x="155" y="731"/>
			<point x="30" y="627"/>
			<point x="30" y="471" type="curve" smooth="yes"/>
			<point x="30" y="331"/>
			<point x="130" y="231"/>
			<point x="281" y="231" type="curve" smooth="yes"/>
			<point x="342" y="231"/>
			<point x="389" y="256"/>
			<point x="422" y="296" type="curve"/>
			<point x="409" y="298" type="line"/>
			<point x="366" y="220"/>
			<point x="279" y="135"/>
			<point x="115" y="0" type="curve"/>
			<point x="335" y="0" type="line"/>
			<point x="480" y="131"/>
			<point x="609" y="268"/>
			<point x="609" y="452" type="curve" smooth="yes"/>
			<point x="609" y="615"/>
			<point x="490" y="731"/>
		</contour>
		<contour>
			<point x="321" y="593" type="curve"/>
			<point x="394" y="593"/>
			<point x="445" y="543"/>
			<point x="445" y="476" type="curve" smooth="yes"/>
			<point x="445" y="409"/>
			<point x="394" y="359"/>
			<point x="321" y="359" type="curve" smooth="yes"/>
			<point x="246" y="359"/>
			<point x="195" y="409"/>
			<point x="195" y="476" type="curve" smooth="yes"/>
			<point x="195" y="543"/>
			<point x="246" y="593"/>
		</contour>
	</outline>
</glyph>
<glyph name="equal" format="2">
	<unicode hex="003D"/>
	<advance width="660"/>
	<outline>
		<contour>
			<point x="566" y="176" type="line"/>
			<point x="566" y="310" type="line"/>
			<point x="93" y="310" type="line"/>
			<point x="93" y="176" type="line"/>
		</contour>
		<contour>
			<point x="566" y="405" type="line"/>
			<point x="566" y="539" type="line"/>
			<point x="93" y="539" type="line"/>
			<point x="93" y="405" type="line"/>
		</contour>
	</outline>
</glyph>
<glyph name="greater" format="2">
	<unicode hex="003E"/>
	<advance width="660"/>
	<outline>
		<contour>
			<point x="107" y="465" type="line"/>
			<point x="553" y="305" type="line"/>
			<point x="553" y="447" type="line"/>
			<point x="107" y="618" type="line"/>
		</contour>
		<contour>
			<point x="107" y="99" type="line"/>
			<point x="553" y="270" type="line"/>
			<point x="553" y="410" type="line"/>
			<point x="107" y="249" type="line"/>
		</contour>
	</outline>
</glyph>
<glyph name="question" format="2">
	<unicode hex="003F"/>
	<advance width="586"/>
	<outline>
		<contour>
			<point x="344" y="236" type="line"/>
			<point x="345" y="274"/>
			<point x="360" y="298"/>
			<point x="425" y="334" type="curve" smooth="yes"/>
			<point x="507" y="381"/>
			<point x="551" y="439"/>
			<point x="551" y="515" type="curve" smooth="yes"/>
			<point x="551" y="636"/>
			<point x="444" y="731"/>
			<point x="299" y="731" type="curve" smooth="yes"/>
			<point x="195" y="731"/>
			<point x="95" y="682"/>
			<point x="24" y="597" type="curve"/>
			<point x="133" y="488" type="line"/>
			<point x="182" y="560"/>
			<point x="242" y="589"/>
			<point x="294" y="589" type="curve" smooth="yes"/>
			<point x="349" y="589"/>
			<point x="385" y="557"/>
			<point x="385" y="515" type="curve" smooth="yes"/>
			<point x="385" y="487"/>
			<point x="370" y="467"/>
			<point x="333" y="441" type="curve" smooth="yes"/>
			<point x="233" y="369"/>
			<point x="209" y="325"/>
			<point x="217" y="236" type="curve"/>
		</contour>
		<contour>
			<point x="383" y="86" type="curve" smooth="yes"/>
			<point x="383" y="141"/>
			<point x="339" y="183"/>
			<point x="283" y="183" type="curve" smooth="yes"/>
			<point x="227" y="183"/>
			<point x="183" y="141"/>
			<point x="183" y="86" type="curve" smooth="yes"/>
			<point x="183" y="32"/>
			<point x="227" y="-10"/>
			<point x="283" y="-10" type="curve" smooth="yes"/>
			<point x="339" y="-10"/>
			<point x="383" y="32"/>
		</contour>
	</outline>
</glyph>
<glyph name="B" format="2">
	<unicode hex="0042"/>
	<advance width="680"/>
	<outline>
		<contour>
			<point x="62" y="0" type="line"/>
			<point x="378" y="0" type="line" smooth="yes"/>
			<point x="539" y="0"/>
			<point x="648" y="84"/>
			<point x="648" y="210" type="curve" smooth="yes"/>
			<point x="648" y="328"/>
			<point x="539" y="402"/>
			<point x="378" y="402" type="curve" smooth="yes"/>
			<point x="244" y="402" type="line"/>
			<point x="244" y="349" type="line"/>
			<point x="378" y="349" type="line" smooth="yes"/>
			<point x="522" y="349"/>
			<point x="618" y="423"/>
			<point x="618" y="530" type="curve" smooth="yes"/>
			<point x="618" y="641"/>
			<point x="522" y="715"/>
			<point x="378" y="715" type="curve" smooth="yes"/>
			<point x="62" y="715" type="line"/>
		</contour>
		<contour>
			<point x="234" y="141" type="line"/>
			<point x="234" y="574" type="line"/>
			<point x="366" y="574" type="line" smooth="yes"/>
			<point x="415" y="574"/>
			<point x="444" y="549"/>
			<point x="444" y="507" type="curve" smooth="yes"/>
			<point x="444" y="461"/>
			<point x="415" y="434"/>
			<point x="366" y="434" type="curve" smooth="yes"/>
			<point x="224" y="434" type="line"/>
			<point x="224" y="297" type="line"/>
			<point x="379" y="297" type="line" smooth="yes"/>
			<point x="438" y="297"/>
			<point x="474" y="269"/>
			<point x="474" y="222" type="curve" smooth="yes"/>
			<point x="474" y="171"/>
			<point x="438" y="141"/>
			<point x="379" y="141" type="curve" smooth="yes"/>
		</contour>
	</outline>
</glyph>
<glyph name="C" format="2">
	<unicode hex="0043"/>
	<advance width="761"/>
	<outline>
		<contour>
			<point x="621" y="230" type="line"/>
			<point x="579" y="172"/>
			<point x="513" y="135"/>
			<point x="439" y="135" type="curve" smooth="yes"/>
			<point x="318" y="135"/>
			<point x="230" y="228"/>
			<point x="230" y="358" type="curve" smooth="yes"/>
			<point x="230" y="487"/>
			<point x="318" y="580"/>
			<point x="439" y="580" type="curve" smooth="yes"/>
			<point x="513" y="580"/>
			<point x="579" y="543"/>
			<point x="621" y="485" type="curve"/>
			<point x="731" y="598" type="line"/>
			<point x="667" y="677"/>
			<point x="563" y="731"/>
			<point x="439" y="731" type="curve" smooth="yes"/>
			<point x="210" y="731"/>
			<point x="47" y="575"/>
			<point x="47" y="358" type="curve" smooth="yes"/>
			<point x="47" y="140"/>
			<point x="204" y="-16"/>
			<point x="435" y="-16" type="curve" smooth="yes"/>
			<point x="559" y="-16"/>
			<point x="667" y="38"/>
			<point x="731" y="117" type="curve"/>
		</contour>
	</outline>
	<anchor name="bottom.UC" x="429" y="-50"/>
	<anchor name="top.UC" x="429" y="750"/>
	<guideline x="730"/>
</glyph>
<glyph name="E" format="2">
	<unicode hex="0045"/>
	<advance width="629"/>
	<outline>
		<contour>
			<point x="584" y="0" type="line"/>
			<point x="584" y="143" type="line"/>
			<point x="234" y="143" type="line"/>
			<point x="234" y="572" type="line"/>
			<point x="584" y="572" type="line"/>
			<point x="584" y="715" type="line"/>
			<point x="62" y="715" type="line"/>
			<point x="62" y="0" type="line"/>
		</contour>
		<contour>
			<point x="565" y="288" type="line"/>
			<point x="565" y="431" type="line"/>
			<point x="224" y="431" type="line"/>
			<point x="224" y="288" type="line"/>
		</contour>
	</outline>
	<anchor name="bottom.UC" x="323" y="-50"/>
	<anchor name="ogonek.UC" x="439" y="-30"/>
	<anchor name="top.UC" x="323" y="750"/>
</glyph>
<glyph name="F" format="2">
	<unicode hex="0046"/>
	<advance width="601"/>
	<outline>
		<contour>
			<point x="234" y="0" type="line"/>
			<point x="234" y="572" type="line"/>
			<point x="564" y="572" type="line"/>
			<point x="564" y="715" type="line"/>
			<point x="62" y="715" type="line"/>
			<point x="62" y="0" type="line"/>
		</contour>
		<contour>
			<point x="545" y="288" type="line"/>
			<point x="545" y="431" type="line"/>
			<point x="224" y="431" type="line"/>
			<point x="224" y="288" type="line"/>
		</contour>
	</outline>
</glyph>
<glyph name="G" format="2">
	<unicode hex="0047"/>
	<advance width="819"/>
	<outline>
		<contour>
			<point x="769" y="0" type="line"/>
			<point x="769" y="403" type="line"/>
			<point x="428" y="403" type="line"/>
			<point x="428" y="268" type="line"/>
			<point x="610" y="268" type="line"/>
			<point x="610" y="195" type="line"/>
			<point x="621" y="234" type="line"/>
			<point x="590" y="163"/>
			<point x="520" y="131"/>
			<point x="440" y="131" type="curve" smooth="yes"/>
			<point x="316" y="131"/>
			<point x="228" y="224"/>
			<point x="228" y="358" type="curve" smooth="yes"/>
			<point x="228" y="487"/>
			<point x="316" y="580"/>
			<point x="439" y="580" type="curve" smooth="yes"/>
			<point x="517" y="580"/>
			<point x="590" y="543"/>
			<point x="634" y="485" type="curve"/>
			<point x="744" y="598" type="line"/>
			<point x="678" y="677"/>
			<point x="567" y="731"/>
			<point x="439" y="731" type="curve" smooth="yes"/>
			<point x="211" y="731"/>
			<point x="47" y="573"/>
			<point x="47" y="358" type="curve" smooth="yes"/>
			<point x="47" y="133"/>
			<point x="205" y="-16"/>
			<point x="411" y="-16" type="curve" smooth="yes"/>
			<point x="506" y="-16"/>
			<point x="580" y="20"/>
			<point x="624" y="88" type="curve"/>
			<point x="611" y="93" type="line"/>
			<point x="611" y="0" type="line"/>
		</contour>
	</outline>
	<anchor name="top.UC" x="436" y="750"/>
	<anchor name="bottom.UC" x="436" y="-50"/>
	<guideline x="0" y="-19" angle="140.39"/>
</glyph>
<glyph name="I" format="2">
	<unicode hex="0049"/>
	<advance width="296"/>
	<outline>
		<contour>
			<point x="234" y="0" type="line"/>
			<point x="234" y="715" type="line"/>
			<point x="62" y="715" type="line"/>
			<point x="62" y="0" type="line"/>
		</contour>
	</outline>
	<anchor name="bottom.UC" x="148" y="-50"/>
	<anchor name="ogonek.UC" x="89" y="-30"/>
	<anchor name="top.UC" x="148" y="750"/>
</glyph>
<glyph name="J" format="2">
	<unicode hex="004A"/>
	<advance width="696"/>
	<outline>
		<contour>
			<point x="638" y="715" type="line"/>
			<point x="466" y="715" type="line"/>
			<point x="466" y="282" type="line" smooth="yes"/>
			<point x="466" y="186"/>
			<point x="420" y="135"/>
			<point x="335" y="135" type="curve" smooth="yes"/>
			<point x="259" y="135"/>
			<point x="213" y="186"/>
			<point x="205" y="282" type="curve"/>
			<point x="33" y="262" type="line"/>
			<point x="41" y="92"/>
			<point x="158" y="-16"/>
			<point x="335" y="-16" type="curve" smooth="yes"/>
			<point x="531" y="-16"/>
			<point x="638" y="89"/>
			<point x="638" y="282" type="curve" smooth="yes"/>
		</contour>
	</outline>
	<anchor name="top.UC" x="561" y="750"/>
</glyph>
<glyph name="M" format="2">
	<unicode hex="004D"/>
	<advance width="928"/>
	<outline>
		<contour>
			<point x="528" y="88" type="line"/>
			<point x="802" y="658" type="line"/>
			<point x="699" y="661" type="line"/>
			<point x="699" y="0" type="line"/>
			<point x="867" y="0" type="line"/>
			<point x="867" y="715" type="line"/>
			<point x="679" y="715" type="line"/>
			<point x="436" y="206" type="line"/>
			<point x="496" y="206" type="line"/>
			<point x="253" y="715" type="line"/>
			<point x="61" y="715" type="line"/>
			<point x="61" y="0" type="line"/>
			<point x="227" y="0" type="line"/>
			<point x="227" y="661" type="line"/>
			<point x="128" y="658" type="line"/>
			<point x="402" y="88" type="line"/>
		</contour>
	</outline>
</glyph>
<glyph name="O" format="2">
	<unicode hex="004F"/>
	<advance width="872"/>
	<outline>
		<contour>
			<point x="436" y="-16" type="curve" smooth="yes"/>
			<point x="663" y="-16"/>
			<point x="825" y="142"/>
			<point x="825" y="358" type="curve" smooth="yes"/>
			<point x="825" y="573"/>
			<point x="663" y="731"/>
			<point x="436" y="731" type="curve" smooth="yes"/>
			<point x="209" y="731"/>
			<point x="47" y="573"/>
			<point x="47" y="358" type="curve" smooth="yes"/>
			<point x="47" y="142"/>
			<point x="209" y="-16"/>
		</contour>
		<contour>
			<point x="436" y="135" type="curve" smooth="yes"/>
			<point x="313" y="135"/>
			<point x="228" y="228"/>
			<point x="228" y="358" type="curve" smooth="yes"/>
			<point x="228" y="487"/>
			<point x="313" y="580"/>
			<point x="436" y="580" type="curve" smooth="yes"/>
			<point x="559" y="580"/>
			<point x="644" y="487"/>
			<point x="644" y="358" type="curve" smooth="yes"/>
			<point x="644" y="228"/>
			<point x="559" y="135"/>
		</contour>
	</outline>
	<anchor name="bottom.UC" x="436" y="-50"/>
	<anchor name="top.UC" x="436" y="750"/>
	<anchor name="topright.UC" x="510" y="750"/>
</glyph>
<glyph name="P" format="2">
	<unicode hex="0050"/>
	<advance width="666"/>
	<outline>
		<contour>
			<point x="234" y="0" type="line"/>
			<point x="234" y="572" type="line"/>
			<point x="361" y="572" type="line" smooth="yes"/>
			<point x="420" y="572"/>
			<point x="457" y="538"/>
			<point x="457" y="485" type="curve" smooth="yes"/>
			<point x="457" y="432"/>
			<point x="420" y="398"/>
			<point x="361" y="398" type="curve" smooth="yes"/>
			<point x="224" y="398" type="line"/>
			<point x="224" y="255" type="line"/>
			<point x="361" y="255" type="line" smooth="yes"/>
			<point x="521" y="255"/>
			<point x="631" y="348"/>
			<point x="631" y="485" type="curve" smooth="yes"/>
			<point x="631" y="622"/>
			<point x="521" y="715"/>
			<point x="361" y="715" type="curve" smooth="yes"/>
			<point x="62" y="715" type="line"/>
			<point x="62" y="0" type="line"/>
		</contour>
	</outline>
</glyph>
<glyph name="Q" format="2">
	<unicode hex="0051"/>
	<advance width="872"/>
	<outline>
		<contour>
			<point x="717" y="-51" type="line"/>
			<point x="812" y="43" type="line"/>
			<point x="507" y="352" type="line"/>
			<point x="412" y="257" type="line"/>
		</contour>
		<contour>
			<point x="436" y="-16" type="curve" smooth="yes"/>
			<point x="658" y="-16"/>
			<point x="825" y="146"/>
			<point x="825" y="358" type="curve" smooth="yes"/>
			<point x="825" y="573"/>
			<point x="663" y="731"/>
			<point x="436" y="731" type="curve" smooth="yes"/>
			<point x="209" y="731"/>
			<point x="47" y="573"/>
			<point x="47" y="358" type="curve" smooth="yes"/>
			<point x="47" y="142"/>
			<point x="209" y="-16"/>
		</contour>
		<contour>
			<point x="436" y="135" type="curve" smooth="yes"/>
			<point x="313" y="135"/>
			<point x="228" y="228"/>
			<point x="228" y="358" type="curve" smooth="yes"/>
			<point x="228" y="487"/>
			<point x="313" y="580"/>
			<point x="436" y="580" type="curve" smooth="yes"/>
			<point x="559" y="580"/>
			<point x="644" y="487"/>
			<point x="644" y="358" type="curve" smooth="yes"/>
			<point x="644" y="225"/>
			<point x="561" y="135"/>
		</contour>
	</outline>
</glyph>
<glyph name="R" format="2">
	<unicode hex="0052"/>
	<advance width="722"/>
	<outline>
		<contour>
			<point x="234" y="0" type="line"/>
			<point x="234" y="572" type="line"/>
			<point x="361" y="572" type="line" smooth="yes"/>
			<point x="420" y="572"/>
			<point x="457" y="538"/>
			<point x="457" y="485" type="curve" smooth="yes"/>
			<point x="457" y="432"/>
			<point x="420" y="398"/>
			<point x="361" y="398" type="curve" smooth="yes"/>
			<point x="224" y="398" type="line"/>
			<point x="224" y="255" type="line"/>
			<point x="361" y="255" type="line" smooth="yes"/>
			<point x="521" y="255"/>
			<point x="631" y="348"/>
			<point x="631" y="485" type="curve" smooth="yes"/>
			<point x="631" y="622"/>
			<point x="521" y="715"/>
			<point x="361" y="715" type="curve" smooth="yes"/>
			<point x="62" y="715" type="line"/>
			<point x="62" y="0" type="line"/>
		</contour>
		<contour>
			<point x="707" y="0" type="line"/>
			<point x="456" y="333" type="line"/>
			<point x="260" y="333" type="line"/>
			<point x="499" y="0" type="line"/>
		</contour>
	</outline>
	<anchor name="top.UC" x="335" y="750"/>
</glyph>
<glyph name="S" format="2">
	<unicode hex="0053"/>
	<advance width="711"/>
	<outline>
		<contour>
			<point x="26" y="118" type="line"/>
			<point x="96" y="39"/>
			<point x="212" y="-16"/>
			<point x="356" y="-16" type="curve" smooth="yes"/>
			<point x="537" y="-16"/>
			<point x="666" y="70"/>
			<point x="666" y="211" type="curve" smooth="yes"/>
			<point x="666" y="337"/>
			<point x="571" y="411"/>
			<point x="385" y="440" type="curve" smooth="yes"/>
			<point x="264" y="459"/>
			<point x="230" y="476"/>
			<point x="230" y="513" type="curve" smooth="yes"/>
			<point x="230" y="556"/>
			<point x="280" y="585"/>
			<point x="352" y="585" type="curve" smooth="yes"/>
			<point x="425" y="585"/>
			<point x="502" y="546"/>
			<point x="548" y="484" type="curve"/>
			<point x="660" y="598" type="line"/>
			<point x="591" y="676"/>
			<point x="484" y="731"/>
			<point x="350" y="731" type="curve" smooth="yes"/>
			<point x="180" y="731"/>
			<point x="56" y="635"/>
			<point x="56" y="501" type="curve" smooth="yes"/>
			<point x="56" y="383"/>
			<point x="143" y="311"/>
			<point x="336" y="284" type="curve" smooth="yes"/>
			<point x="456" y="267"/>
			<point x="492" y="240"/>
			<point x="492" y="200" type="curve" smooth="yes"/>
			<point x="492" y="158"/>
			<point x="446" y="131"/>
			<point x="360" y="131" type="curve" smooth="yes"/>
			<point x="278" y="131"/>
			<point x="185" y="169"/>
			<point x="139" y="232" type="curve"/>
		</contour>
	</outline>
	<anchor name="top.UC" x="351" y="750"/>
	<anchor name="bottom.UC" x="359" y="-50"/>
</glyph>
<glyph name="T" format="2">
	<unicode hex="0054"/>
	<advance width="662"/>
	<outline>
		<contour>
			<point x="417" y="0" type="line"/>
			<point x="417" y="580" type="line"/>
			<point x="245" y="580" type="line"/>
			<point x="245" y="0" type="line"/>
		</contour>
		<contour>
			<point x="632" y="570" type="line"/>
			<point x="632" y="715" type="line"/>
			<point x="30" y="715" type="line"/>
			<point x="30" y="570" type="line"/>
		</contour>
	</outline>
	<anchor name="bottom.UC" x="331" y="-50"/>
	<anchor name="top.UC" x="331" y="750"/>
</glyph>
<glyph name="V" format="2">
	<unicode hex="0056"/>
	<advance width="789"/>
	<outline>
		<contour>
			<point x="480" y="0" type="line"/>
			<point x="764" y="715" type="line"/>
			<point x="582" y="715" type="line"/>
			<point x="377" y="146" type="line"/>
			<point x="417" y="146" type="line"/>
			<point x="212" y="715" type="line"/>
			<point x="25" y="715" type="line"/>
			<point x="309" y="0" type="line"/>
		</contour>
	</outline>
</glyph>
<glyph name="Y" format="2">
	<unicode hex="0059"/>
	<advance width="752"/>
	<outline>
		<contour>
			<point x="461" y="0" type="line"/>
			<point x="461" y="272" type="line"/>
			<point x="742" y="715" type="line"/>
			<point x="539" y="715" type="line"/>
			<point x="363" y="412" type="line"/>
			<point x="389" y="412" type="line"/>
			<point x="214" y="715" type="line"/>
			<point x="10" y="715" type="line"/>
			<point x="289" y="273" type="line"/>
			<point x="289" y="0" type="line"/>
		</contour>
	</outline>
	<anchor name="bottom.UC" x="376" y="-50"/>
	<anchor name="top.UC" x="376" y="750"/>
</glyph>
<glyph name="Z" format="2">
	<unicode hex="005A"/>
	<advance width="666"/>
	<outline>
		<contour>
			<point x="624" y="0" type="line"/>
			<point x="624" y="143" type="line"/>
			<point x="260" y="143" type="line"/>
			<point x="610" y="572" type="line"/>
			<point x="610" y="715" type="line"/>
			<point x="58" y="715" type="line"/>
			<point x="58" y="572" type="line"/>
			<point x="393" y="572" type="line"/>
			<point x="43" y="143" type="line"/>
			<point x="43" y="0" type="line"/>
		</contour>
	</outline>
	<anchor name="top.UC" x="333" y="750"/>
</glyph>
<glyph name="bracketleft" format="2">
	<unicode hex="005B"/>
	<advance width="336"/>
	<outline>
		<contour>
			<point x="306" y="-129" type="line"/>
			<point x="306" y="0" type="line"/>
			<point x="208" y="0" type="line"/>
			<point x="208" y="602" type="line"/>
			<point x="306" y="602" type="line"/>
			<point x="306" y="731" type="line"/>
			<point x="44" y="731" type="line"/>
			<point x="44" y="-129" type="line"/>
		</contour>
	</outline>
</glyph>
<glyph name="backslash" format="2">
	<unicode hex="005C"/>
	<advance width="519"/>
	<outline>
		<contour>
			<point x="482" y="0" type="line"/>
			<point x="197" y="731" type="line"/>
			<point x="37" y="731" type="line"/>
			<point x="322" y="0" type="line"/>
		</contour>
	</outline>
</glyph>
<glyph name="asciicircum" format="2">
	<unicode hex="005E"/>
	<advance width="660"/>
	<outline>
		<contour>
			<point x="275" y="715" type="line"/>
			<point x="440" y="354" type="line"/>
			<point x="598" y="354" type="line"/>
			<point x="421" y="715" type="line"/>
		</contour>
		<contour>
			<point x="239" y="715" type="line"/>
			<point x="62" y="354" type="line"/>
			<point x="216" y="354" type="line"/>
			<point x="384" y="715" type="line"/>
		</contour>
	</outline>
</glyph>
<glyph name="underscore" format="2">
	<unicode hex="005F"/>
	<advance width="500"/>
	<outline>
		<contour>
			<point x="500" y="-164" type="line"/>
			<point x="500" y="-30" type="line"/>
			<point x="0" y="-30" type="line"/>
			<point x="0" y="-164" type="line"/>
		</contour>
	</outline>
	<guideline x="428"/>
	<guideline y="-97"/>
</glyph>
<glyph name="b" format="2">
	<unicode hex="0062"/>
	<advance width="663"/>
	<outline>
		<contour>
			<point x="219" y="0" type="line"/>
			<point x="219" y="109" type="line"/>
			<point x="220" y="120" type="line"/>
			<point x="220" y="259" type="line" smooth="yes"/>
			<point x="220" y="340"/>
			<point x="269" y="388"/>
			<point x="337" y="388" type="curve" smooth="yes"/>
			<point x="410" y="388"/>
			<point x="454" y="332"/>
			<point x="454" y="255" type="curve" smooth="yes"/>
			<point x="454" y="178"/>
			<point x="405" y="122"/>
			<point x="330" y="122" type="curve" smooth="yes"/>
			<point x="273" y="122"/>
			<point x="225" y="156"/>
			<point x="215" y="208" type="curve"/>
			<point x="177" y="192" type="line"/>
			<point x="177" y="77"/>
			<point x="247" y="-16"/>
			<point x="377" y="-16" type="curve" smooth="yes"/>
			<point x="512" y="-16"/>
			<point x="628" y="92"/>
			<point x="628" y="255" type="curve" smooth="yes"/>
			<point x="628" y="418"/>
			<point x="512" y="526"/>
			<point x="376" y="526" type="curve" smooth="yes"/>
			<point x="259" y="526"/>
			<point x="191" y="449"/>
			<point x="180" y="349" type="curve"/>
			<point x="220" y="349" type="line"/>
			<point x="220" y="720" type="line"/>
			<point x="51" y="720" type="line"/>
			<point x="51" y="0" type="line"/>
		</contour>
	</outline>
</glyph>
<glyph name="c" format="2">
	<unicode hex="0063"/>
	<advance width="581"/>
	<outline>
		<contour>
			<point x="450" y="191" type="line"/>
			<point x="424" y="151"/>
			<point x="385" y="122"/>
			<point x="333" y="122" type="curve" smooth="yes"/>
			<point x="263" y="122"/>
			<point x="209" y="179"/>
			<point x="209" y="255" type="curve" smooth="yes"/>
			<point x="209" y="331"/>
			<point x="263" y="388"/>
			<point x="333" y="388" type="curve" smooth="yes"/>
			<point x="384" y="388"/>
			<point x="425" y="358"/>
			<point x="450" y="320" type="curve"/>
			<point x="551" y="421" type="line"/>
			<point x="495" y="489"/>
			<point x="418" y="526"/>
			<point x="321" y="526" type="curve" smooth="yes"/>
			<point x="158" y="526"/>
			<point x="35" y="413"/>
			<point x="35" y="255" type="curve" smooth="yes"/>
			<point x="35" y="97"/>
			<point x="157" y="-16"/>
			<point x="317" y="-16" type="curve" smooth="yes"/>
			<point x="418" y="-16"/>
			<point x="494" y="22"/>
			<point x="551" y="90" type="curve"/>
		</contour>
	</outline>
	<anchor name="top.LC" x="323" y="544"/>
	<anchor name="bottom.LC" x="323" y="-50"/>
	<guideline x="308"/>
	<guideline y="526"/>
</glyph>
<glyph name="d" format="2">
	<unicode hex="0064"/>
	<advance width="663"/>
	<outline>
		<contour>
			<point x="612" y="0" type="line"/>
			<point x="612" y="720" type="line"/>
			<point x="443" y="720" type="line"/>
			<point x="443" y="349" type="line"/>
			<point x="483" y="349" type="line"/>
			<point x="472" y="451"/>
			<point x="406" y="526"/>
			<point x="287" y="526" type="curve" smooth="yes"/>
			<point x="151" y="526"/>
			<point x="35" y="418"/>
			<point x="35" y="255" type="curve" smooth="yes"/>
			<point x="35" y="92"/>
			<point x="151" y="-16"/>
			<point x="286" y="-16" type="curve" smooth="yes"/>
			<point x="416" y="-16"/>
			<point x="486" y="77"/>
			<point x="486" y="192" type="curve"/>
			<point x="448" y="208" type="line"/>
			<point x="438" y="156"/>
			<point x="390" y="122"/>
			<point x="333" y="122" type="curve" smooth="yes"/>
			<point x="258" y="122"/>
			<point x="209" y="178"/>
			<point x="209" y="255" type="curve" smooth="yes"/>
			<point x="209" y="332"/>
			<point x="253" y="388"/>
			<point x="326" y="388" type="curve" smooth="yes"/>
			<point x="394" y="388"/>
			<point x="443" y="340"/>
			<point x="443" y="259" type="curve" smooth="yes"/>
			<point x="443" y="120" type="line"/>
			<point x="444" y="109" type="line"/>
			<point x="444" y="0" type="line"/>
		</contour>
	</outline>
	<anchor name="top_right" x="724" y="540"/>
</glyph>
<glyph name="e" format="2">
	<unicode hex="0065"/>
	<advance width="616"/>
	<outline>
		<contour>
			<point x="496" y="168" type="line"/>
			<point x="456" y="131"/>
			<point x="410" y="112"/>
			<point x="354" y="112" type="curve" smooth="yes"/>
			<point x="265" y="112"/>
			<point x="204" y="160"/>
			<point x="204" y="258" type="curve" smooth="yes"/>
			<point x="204" y="349"/>
			<point x="249" y="399"/>
			<point x="313" y="399" type="curve" smooth="yes"/>
			<point x="378" y="399"/>
			<point x="415" y="350"/>
			<point x="415" y="273" type="curve" smooth="yes"/>
			<point x="415" y="255" type="line"/>
			<point x="579" y="255" type="line"/>
			<point x="579" y="261" type="line" smooth="yes"/>
			<point x="579" y="418"/>
			<point x="468" y="526"/>
			<point x="314" y="526" type="curve" smooth="yes"/>
			<point x="157" y="526"/>
			<point x="35" y="416"/>
			<point x="35" y="254" type="curve" smooth="yes"/>
			<point x="35" y="93"/>
			<point x="157" y="-16"/>
			<point x="343" y="-16" type="curve" smooth="yes"/>
			<point x="439" y="-16"/>
			<point x="527" y="15"/>
			<point x="578" y="67" type="curve"/>
		</contour>
		<contour>
			<point x="579" y="206" type="line"/>
			<point x="579" y="260" type="line"/>
			<point x="562" y="304" type="line"/>
			<point x="136" y="304" type="line"/>
			<point x="136" y="206" type="line"/>
		</contour>
	</outline>
	<anchor name="bottom.LC" x="314" y="-50"/>
	<anchor name="ogonek.LC.round" x="389" y="-30"/>
	<anchor name="top.LC" x="314" y="544"/>
</glyph>
<glyph name="f" format="2">
	<unicode hex="0066"/>
	<advance width="430"/>
	<outline>
		<contour>
			<point x="285" y="0" type="line"/>
			<point x="285" y="539" type="line" smooth="yes"/>
			<point x="285" y="578"/>
			<point x="298" y="591"/>
			<point x="335" y="591" type="curve" smooth="yes"/>
			<point x="398" y="591" type="line"/>
			<point x="398" y="720" type="line"/>
			<point x="271" y="720" type="line" smooth="yes"/>
			<point x="166" y="720"/>
			<point x="116" y="670"/>
			<point x="116" y="565" type="curve" smooth="yes"/>
			<point x="116" y="0" type="line"/>
		</contour>
		<contour>
			<point x="398" y="376" type="line"/>
			<point x="398" y="510" type="line"/>
			<point x="37" y="510" type="line"/>
			<point x="37" y="376" type="line"/>
		</contour>
	</outline>
</glyph>
<glyph name="i" format="2">
	<unicode hex="0069"/>
	<advance width="271"/>
	<outline>
		<contour>
			<point x="220" y="0" type="line"/>
			<point x="220" y="510" type="line"/>
			<point x="51" y="510" type="line"/>
			<point x="51" y="0" type="line"/>
		</contour>
		<contour>
			<point x="135" y="569" type="curve" smooth="yes"/>
			<point x="189" y="569"/>
			<point x="231" y="609"/>
			<point x="231" y="661" type="curve" smooth="yes"/>
			<point x="231" y="714"/>
			<point x="189" y="754"/>
			<point x="135" y="754" type="curve" smooth="yes"/>
			<point x="81" y="754"/>
			<point x="39" y="714"/>
			<point x="39" y="661" type="curve" smooth="yes"/>
			<point x="39" y="609"/>
			<point x="81" y="569"/>
		</contour>
	</outline>
	<anchor name="bottom.LC" x="135" y="-50"/>
	<anchor name="ogonek.LC" x="75" y="-30"/>
	<guideline x="130"/>
	<guideline y="510"/>
	<guideline y="657"/>
</glyph>
<glyph name="j" format="2">
	<unicode hex="006A"/>
	<advance width="271"/>
	<outline>
		<contour>
			<point x="-39" y="-194" type="line"/>
			<point x="65" y="-194" type="line" smooth="yes"/>
			<point x="170" y="-194"/>
			<point x="220" y="-144"/>
			<point x="220" y="-39" type="curve" smooth="yes"/>
			<point x="220" y="510" type="line"/>
			<point x="51" y="510" type="line"/>
			<point x="51" y="-6" type="line" smooth="yes"/>
			<point x="51" y="-45"/>
			<point x="38" y="-58"/>
			<point x="1" y="-58" type="curve" smooth="yes"/>
			<point x="-39" y="-58" type="line"/>
		</contour>
		<contour>
			<point x="135" y="569" type="curve" smooth="yes"/>
			<point x="189" y="569"/>
			<point x="231" y="609"/>
			<point x="231" y="661" type="curve" smooth="yes"/>
			<point x="231" y="714"/>
			<point x="189" y="754"/>
			<point x="135" y="754" type="curve" smooth="yes"/>
			<point x="81" y="754"/>
			<point x="39" y="714"/>
			<point x="39" y="661" type="curve" smooth="yes"/>
			<point x="39" y="609"/>
			<point x="81" y="569"/>
		</contour>
	</outline>
</glyph>
<glyph name="k" format="2">
	<unicode hex="006B"/>
	<advance width="642"/>
	<outline>
		<contour>
			<point x="220" y="0" type="line"/>
			<point x="220" y="720" type="line"/>
			<point x="51" y="720" type="line"/>
			<point x="51" y="0" type="line"/>
		</contour>
		<contour>
			<point x="632" y="0" type="line"/>
			<point x="377" y="275" type="line"/>
			<point x="377" y="254" type="line"/>
			<point x="602" y="510" type="line"/>
			<point x="408" y="510" type="line"/>
			<point x="199" y="265" type="line"/>
			<point x="188" y="265" type="line"/>
			<point x="427" y="0" type="line"/>
		</contour>
	</outline>
	<anchor name="bottom.LC" x="333" y="-50"/>
</glyph>
<glyph name="l" format="2">
	<unicode hex="006C"/>
	<advance width="271"/>
	<outline>
		<contour>
			<point x="220" y="0" type="line"/>
			<point x="220" y="720" type="line"/>
			<point x="51" y="720" type="line"/>
			<point x="51" y="0" type="line"/>
		</contour>
	</outline>
	<anchor name="bottom.LC" x="135" y="-50"/>
	<anchor name="top_right" x="332" y="540"/>
	<anchor name="top.LC" x="135" y="766"/>
</glyph>
<glyph name="m" format="2">
	<unicode hex="006D"/>
	<advance width="916"/>
	<outline>
		<contour>
			<point x="870" y="0" type="line"/>
			<point x="870" y="312" type="line" smooth="yes"/>
			<point x="870" y="450"/>
			<point x="800" y="526"/>
			<point x="686" y="526" type="curve" smooth="yes"/>
			<point x="621" y="526"/>
			<point x="539" y="501"/>
			<point x="508" y="400" type="curve"/>
			<point x="520" y="400" type="line"/>
			<point x="501" y="485"/>
			<point x="444" y="526"/>
			<point x="365" y="526" type="curve" smooth="yes"/>
			<point x="309" y="526"/>
			<point x="240" y="503"/>
			<point x="212" y="412" type="curve"/>
			<point x="219" y="411" type="line"/>
			<point x="219" y="510" type="line"/>
			<point x="51" y="510" type="line"/>
			<point x="51" y="0" type="line"/>
			<point x="220" y="0" type="line"/>
			<point x="220" y="266" type="line" smooth="yes"/>
			<point x="220" y="352"/>
			<point x="262" y="388"/>
			<point x="308" y="388" type="curve" smooth="yes"/>
			<point x="350" y="388"/>
			<point x="376" y="359"/>
			<point x="376" y="301" type="curve" smooth="yes"/>
			<point x="376" y="0" type="line"/>
			<point x="545" y="0" type="line"/>
			<point x="545" y="266" type="line" smooth="yes"/>
			<point x="545" y="352"/>
			<point x="587" y="388"/>
			<point x="633" y="388" type="curve" smooth="yes"/>
			<point x="675" y="388"/>
			<point x="701" y="359"/>
			<point x="701" y="301" type="curve" smooth="yes"/>
			<point x="701" y="0" type="line"/>
		</contour>
	</outline>
</glyph>
<glyph name="n" format="2">
	<unicode hex="006E"/>
	<advance width="611"/>
	<outline>
		<contour>
			<point x="565" y="0" type="line"/>
			<point x="565" y="312" type="line" smooth="yes"/>
			<point x="565" y="450"/>
			<point x="491" y="526"/>
			<point x="372" y="526" type="curve" smooth="yes"/>
			<point x="304" y="526"/>
			<point x="213" y="493"/>
			<point x="200" y="349" type="curve"/>
			<point x="219" y="349" type="line"/>
			<point x="219" y="510" type="line"/>
			<point x="51" y="510" type="line"/>
			<point x="51" y="0" type="line"/>
			<point x="220" y="0" type="line"/>
			<point x="220" y="259" type="line" smooth="yes"/>
			<point x="220" y="350"/>
			<point x="267" y="388"/>
			<point x="318" y="388" type="curve" smooth="yes"/>
			<point x="366" y="388"/>
			<point x="396" y="357"/>
			<point x="396" y="295" type="curve" smooth="yes"/>
			<point x="396" y="0" type="line"/>
		</contour>
	</outline>
	<anchor name="top.LC" x="322" y="544"/>
	<anchor name="bottom.LC" x="308" y="-50"/>
</glyph>
<glyph name="r" format="2">
	<unicode hex="0072"/>
	<advance width="419"/>
	<outline>
		<contour>
			<point x="395" y="519" type="line"/>
			<point x="372" y="519" type="line" smooth="yes"/>
			<point x="304" y="519"/>
			<point x="213" y="486"/>
			<point x="200" y="342" type="curve"/>
			<point x="219" y="342" type="line"/>
			<point x="219" y="510" type="line"/>
			<point x="51" y="510" type="line"/>
			<point x="51" y="0" type="line"/>
			<point x="220" y="0" type="line"/>
			<point x="220" y="220" type="line"/>
			<point x="220" y="325"/>
			<point x="267" y="369"/>
			<point x="363" y="369" type="curve" smooth="yes"/>
			<point x="395" y="369" type="line"/>
		</contour>
	</outline>
	<anchor name="top.LC" x="229" y="544"/>
</glyph>
<glyph name="s" format="2">
	<unicode hex="0073"/>
	<advance width="558"/>
	<outline>
		<contour>
			<point x="20" y="75" type="line"/>
			<point x="77" y="20"/>
			<point x="173" y="-16"/>
			<point x="274" y="-16" type="curve" smooth="yes"/>
			<point x="423" y="-16"/>
			<point x="523" y="52"/>
			<point x="523" y="161" type="curve" smooth="yes"/>
			<point x="523" y="260"/>
			<point x="441" y="306"/>
			<point x="304" y="327" type="curve" smooth="yes"/>
			<point x="229" y="338"/>
			<point x="205" y="343"/>
			<point x="205" y="366" type="curve" smooth="yes"/>
			<point x="205" y="386"/>
			<point x="231" y="404"/>
			<point x="277" y="404" type="curve" smooth="yes"/>
			<point x="336" y="404"/>
			<point x="394" y="377"/>
			<point x="435" y="339" type="curve"/>
			<point x="520" y="442" type="line"/>
			<point x="465" y="490"/>
			<point x="382" y="526"/>
			<point x="276" y="526" type="curve" smooth="yes"/>
			<point x="143" y="526"/>
			<point x="46" y="453"/>
			<point x="46" y="348" type="curve" smooth="yes"/>
			<point x="46" y="256"/>
			<point x="120" y="209"/>
			<point x="264" y="189" type="curve" smooth="yes"/>
			<point x="342" y="178"/>
			<point x="363" y="170"/>
			<point x="363" y="145" type="curve" smooth="yes"/>
			<point x="363" y="124"/>
			<point x="334" y="106"/>
			<point x="284" y="106" type="curve" smooth="yes"/>
			<point x="222" y="106"/>
			<point x="149" y="133"/>
			<point x="105" y="177" type="curve"/>
		</contour>
	</outline>
	<anchor name="top.LC" x="276" y="544"/>
	<anchor name="bottom.LC" x="276" y="-50"/>
	<guideline x="153" y="0" angle="129.22"/>
</glyph>
<glyph name="u" format="2">
	<unicode hex="0075"/>
	<advance width="609"/>
	<outline>
		<contour>
			<point x="558" y="0" type="line"/>
			<point x="558" y="510" type="line"/>
			<point x="389" y="510" type="line"/>
			<point x="389" y="124" type="line"/>
			<point x="390" y="96" type="line"/>
			<point x="390" y="0" type="line"/>
		</contour>
		<contour>
			<point x="394" y="208" type="line"/>
			<point x="385" y="157"/>
			<point x="342" y="122"/>
			<point x="291" y="122" type="curve" smooth="yes"/>
			<point x="245" y="122"/>
			<point x="215" y="150"/>
			<point x="215" y="206" type="curve" smooth="yes"/>
			<point x="215" y="510" type="line"/>
			<point x="46" y="510" type="line"/>
			<point x="46" y="189" type="line" smooth="yes"/>
			<point x="46" y="56"/>
			<point x="120" y="-16"/>
			<point x="237" y="-16" type="curve" smooth="yes"/>
			<point x="355" y="-16"/>
			<point x="428" y="66"/>
			<point x="428" y="192" type="curve"/>
		</contour>
	</outline>
	<anchor name="bottom.LC" x="302" y="-50"/>
	<anchor name="ogonek.LC" x="413" y="-30"/>
	<anchor name="top.LC" x="302" y="544"/>
	<anchor name="topright.LC" x="434" y="544"/>
</glyph>
<glyph name="v" format="2">
	<unicode hex="0076"/>
	<advance width="625"/>
	<outline>
		<contour>
			<point x="394" y="0" type="line"/>
			<point x="610" y="510" type="line"/>
			<point x="441" y="510" type="line"/>
			<point x="299" y="124" type="line"/>
			<point x="329" y="124" type="line"/>
			<point x="188" y="510" type="line"/>
			<point x="15" y="510" type="line"/>
			<point x="231" y="0" type="line"/>
		</contour>
	</outline>
</glyph>
<glyph name="w" format="2">
	<unicode hex="0077"/>
	<advance width="860"/>
	<outline>
		<contour>
			<point x="689" y="0" type="line"/>
			<point x="845" y="510" type="line"/>
			<point x="684" y="510" type="line"/>
			<point x="587" y="117" type="line"/>
			<point x="624" y="117" type="line"/>
			<point x="497" y="510" type="line"/>
			<point x="367" y="510" type="line"/>
			<point x="240" y="117" type="line"/>
			<point x="276" y="117" type="line"/>
			<point x="179" y="510" type="line"/>
			<point x="15" y="510" type="line"/>
			<point x="171" y="0" type="line"/>
			<point x="331" y="0" type="line"/>
			<point x="453" y="355" type="line"/>
			<point x="405" y="355" type="line"/>
			<point x="529" y="0" type="line"/>
		</contour>
	</outline>
	<anchor name="top.LC" x="430" y="544"/>
</glyph>
<glyph name="y" format="2">
	<unicode hex="0079"/>
	<advance width="625"/>
	<outline>
		<contour>
			<point x="441" y="510" type="line"/>
			<point x="289" y="97" type="line"/>
			<point x="339" y="97" type="line"/>
			<point x="188" y="510" type="line"/>
			<point x="15" y="510" type="line"/>
			<point x="232" y="0" type="line"/>
			<point x="230" y="-6" type="line" smooth="yes"/>
			<point x="215" y="-44"/>
			<point x="187" y="-58"/>
			<point x="149" y="-58" type="curve" smooth="yes"/>
			<point x="85" y="-58" type="line"/>
			<point x="85" y="-194" type="line"/>
			<point x="161" y="-194" type="line" smooth="yes"/>
			<point x="266" y="-194"/>
			<point x="334" y="-143"/>
			<point x="378" y="-39" type="curve" smooth="yes"/>
			<point x="610" y="510" type="line"/>
		</contour>
	</outline>
	<anchor name="bottom.LC" x="489" y="-50"/>
	<anchor name="top.LC" x="313" y="544"/>
</glyph>
<glyph name="z" format="2">
	<unicode hex="007A"/>
	<advance width="539"/>
	<outline>
		<contour>
			<point x="502" y="0" type="line"/>
			<point x="502" y="134" type="line"/>
			<point x="249" y="134" type="line"/>
			<point x="492" y="376" type="line"/>
			<point x="492" y="510" type="line"/>
			<point x="47" y="510" type="line"/>
			<point x="47" y="376" type="line"/>
			<point x="280" y="376" type="line"/>
			<point x="37" y="134" type="line"/>
			<point x="37" y="0" type="line"/>
		</contour>
	</outline>
	<anchor name="top.LC" x="266" y="544"/>
</glyph>
<glyph name="braceleft" format="2">
	<unicode hex="007B"/>
	<advance width="396"/>
	<outline>
		<contour>
			<point x="366" y="0" type="line"/>
			<point x="318" y="0" type="line" smooth="yes"/>
			<point x="281" y="0"/>
			<point x="268" y="13"/>
			<point x="268" y="52" type="curve" smooth="yes"/>
			<point x="268" y="161" type="line" smooth="yes"/>
			<point x="268" y="266"/>
			<point x="218" y="316"/>
			<point x="113" y="316" type="curve"/>
			<point x="113" y="287" type="line"/>
			<point x="218" y="287"/>
			<point x="268" y="337"/>
			<point x="268" y="442" type="curve" smooth="yes"/>
			<point x="268" y="549" type="line" smooth="yes"/>
			<point x="268" y="588"/>
			<point x="281" y="602"/>
			<point x="318" y="602" type="curve" smooth="yes"/>
			<point x="366" y="602" type="line"/>
			<point x="366" y="731" type="line"/>
			<point x="259" y="731" type="line" smooth="yes"/>
			<point x="154" y="731"/>
			<point x="104" y="681"/>
			<point x="104" y="576" type="curve" smooth="yes"/>
			<point x="104" y="418" type="line" smooth="yes"/>
			<point x="104" y="379"/>
			<point x="91" y="366"/>
			<point x="54" y="366" type="curve" smooth="yes"/>
			<point x="31" y="366" type="line"/>
			<point x="31" y="237" type="line"/>
			<point x="54" y="237" type="line" smooth="yes"/>
			<point x="91" y="237"/>
			<point x="104" y="224"/>
			<point x="104" y="185" type="curve" smooth="yes"/>
			<point x="104" y="26" type="line" smooth="yes"/>
			<point x="104" y="-79"/>
			<point x="154" y="-129"/>
			<point x="259" y="-129" type="curve" smooth="yes"/>
			<point x="366" y="-129" type="line"/>
		</contour>
	</outline>
	<guideline x="193"/>
	<guideline y="301"/>
</glyph>
<glyph name="bar" format="2">
	<unicode hex="007C"/>
	<advance width="252"/>
	<outline>
		<contour>
			<point x="208" y="-129" type="line"/>
			<point x="208" y="736" type="line"/>
			<point x="44" y="736" type="line"/>
			<point x="44" y="-129" type="line"/>
		</contour>
	</outline>
</glyph>
<glyph name="braceright" format="2">
	<unicode hex="007D"/>
	<advance width="396"/>
	<outline>
		<contour>
			<point x="30" y="-129" type="line"/>
			<point x="137" y="-129" type="line" smooth="yes"/>
			<point x="242" y="-129"/>
			<point x="292" y="-79"/>
			<point x="292" y="26" type="curve" smooth="yes"/>
			<point x="292" y="185" type="line" smooth="yes"/>
			<point x="292" y="224"/>
			<point x="305" y="237"/>
			<point x="342" y="237" type="curve" smooth="yes"/>
			<point x="365" y="237" type="line"/>
			<point x="365" y="366" type="line"/>
			<point x="342" y="366" type="line" smooth="yes"/>
			<point x="305" y="366"/>
			<point x="292" y="379"/>
			<point x="292" y="418" type="curve" smooth="yes"/>
			<point x="292" y="576" type="line" smooth="yes"/>
			<point x="292" y="681"/>
			<point x="242" y="731"/>
			<point x="137" y="731" type="curve" smooth="yes"/>
			<point x="30" y="731" type="line"/>
			<point x="30" y="602" type="line"/>
			<point x="78" y="602" type="line" smooth="yes"/>
			<point x="115" y="602"/>
			<point x="128" y="588"/>
			<point x="128" y="549" type="curve" smooth="yes"/>
			<point x="128" y="442" type="line" smooth="yes"/>
			<point x="128" y="337"/>
			<point x="178" y="287"/>
			<point x="283" y="287" type="curve"/>
			<point x="283" y="316" type="line"/>
			<point x="178" y="316"/>
			<point x="128" y="266"/>
			<point x="128" y="161" type="curve" smooth="yes"/>
			<point x="128" y="52" type="line" smooth="yes"/>
			<point x="128" y="13"/>
			<point x="115" y="0"/>
			<point x="78" y="0" type="curve" smooth="yes"/>
			<point x="30" y="0" type="line"/>
		</contour>
	</outline>
</glyph>
<glyph name="asciitilde" format="2">
	<unicode hex="007E"/>
	<advance width="660"/>
	<outline>
		<contour>
			<point x="489" y="475" type="line"/>
			<point x="472" y="422"/>
			<point x="446" y="393"/>
			<point x="415" y="393" type="curve" smooth="yes"/>
			<point x="401" y="393"/>
			<point x="390" y="399"/>
			<point x="350" y="428" type="curve" smooth="yes"/>
			<point x="305" y="461"/>
			<point x="269" y="476"/>
			<point x="236" y="476" type="curve" smooth="yes"/>
			<point x="156" y="476"/>
			<point x="95" y="427"/>
			<point x="54" y="312" type="curve"/>
			<point x="171" y="239" type="line"/>
			<point x="188" y="292"/>
			<point x="214" y="321"/>
			<point x="245" y="321" type="curve" smooth="yes"/>
			<point x="259" y="321"/>
			<point x="270" y="315"/>
			<point x="310" y="286" type="curve" smooth="yes"/>
			<point x="355" y="253"/>
			<point x="391" y="238"/>
			<point x="424" y="238" type="curve" smooth="yes"/>
			<point x="504" y="238"/>
			<point x="565" y="287"/>
			<point x="606" y="402" type="curve"/>
		</contour>
	</outline>
	<guideline x="273"/>
	<guideline y="357"/>
</glyph>
<glyph name="cent" format="2">
	<unicode hex="00A2"/>
	<advance width="660"/>
	<outline>
		<contour>
			<point x="500" y="182" type="line"/>
			<point x="476" y="147"/>
			<point x="432" y="110"/>
			<point x="374" y="110" type="curve" smooth="yes"/>
			<point x="295" y="110"/>
			<point x="234" y="172"/>
			<point x="234" y="255" type="curve" smooth="yes"/>
			<point x="234" y="338"/>
			<point x="295" y="400"/>
			<point x="374" y="400" type="curve" smooth="yes"/>
			<point x="431" y="400"/>
			<point x="477" y="363"/>
			<point x="500" y="330" type="curve"/>
			<point x="591" y="421" type="line"/>
			<point x="535" y="489"/>
			<point x="458" y="526"/>
			<point x="361" y="526" type="curve" smooth="yes"/>
			<point x="198" y="526"/>
			<point x="75" y="413"/>
			<point x="75" y="255" type="curve" smooth="yes"/>
			<point x="75" y="97"/>
			<point x="197" y="-16"/>
			<point x="357" y="-16" type="curve" smooth="yes"/>
			<point x="458" y="-16"/>
			<point x="534" y="22"/>
			<point x="591" y="90" type="curve"/>
		</contour>
		<contour>
			<point x="402" y="-116" type="line"/>
			<point x="402" y="626" type="line"/>
			<point x="328" y="626" type="line"/>
			<point x="328" y="-116" type="line"/>
		</contour>
	</outline>
	<guideline x="325"/>
	<guideline y="357"/>
</glyph>
<glyph name="sterling" format="2">
	<unicode hex="00A3"/>
	<advance width="660"/>
	<outline>
		<contour>
			<point x="612" y="0" type="line"/>
			<point x="612" y="136" type="line"/>
			<point x="55" y="136" type="line"/>
			<point x="55" y="0" type="line"/>
		</contour>
		<contour>
			<point x="492" y="290" type="line"/>
			<point x="492" y="416" type="line"/>
			<point x="65" y="416" type="line"/>
			<point x="65" y="290" type="line"/>
		</contour>
		<contour>
			<point x="615" y="611" type="line"/>
			<point x="563" y="688"/>
			<point x="480" y="731"/>
			<point x="385" y="731" type="curve" smooth="yes"/>
			<point x="226" y="731"/>
			<point x="128" y="629"/>
			<point x="128" y="480" type="curve" smooth="yes"/>
			<point x="128" y="69" type="line"/>
			<point x="294" y="69" type="line"/>
			<point x="294" y="482" type="line" smooth="yes"/>
			<point x="294" y="548"/>
			<point x="328" y="589"/>
			<point x="385" y="589" type="curve" smooth="yes"/>
			<point x="432" y="589"/>
			<point x="470" y="565"/>
			<point x="505" y="510" type="curve"/>
		</contour>
	</outline>
	<guideline x="-492"/>
	<guideline x="22"/>
	<guideline y="598"/>
	<guideline x="0" y="79" angle="137.47"/>
</glyph>
<glyph name="brokenbar" format="2">
	<unicode hex="00A6"/>
	<advance width="252"/>
	<outline>
		<contour>
			<point x="208" y="-129" type="line"/>
			<point x="208" y="217" type="line"/>
			<point x="44" y="217" type="line"/>
			<point x="44" y="-129" type="line"/>
		</contour>
		<contour>
			<point x="208" y="390" type="line"/>
			<point x="208" y="736" type="line"/>
			<point x="44" y="736" type="line"/>
			<point x="44" y="390" type="line"/>
		</contour>
	</outline>
</glyph>
<glyph name="ordfeminine" format="2">
	<unicode hex="00AA"/>
	<advance width="487"/>
	<outline>
		<contour>
			<point x="441" y="301" type="line"/>
			<point x="441" y="541" type="line" smooth="yes"/>
			<point x="441" y="654"/>
			<point x="357" y="715"/>
			<point x="230" y="715" type="curve" smooth="yes"/>
			<point x="160" y="715"/>
			<point x="91" y="692"/>
			<point x="51" y="655" type="curve"/>
			<point x="116" y="572" type="line"/>
			<point x="144" y="595"/>
			<point x="181" y="610"/>
			<point x="221" y="610" type="curve" smooth="yes"/>
			<point x="273" y="610"/>
			<point x="307" y="587"/>
			<point x="307" y="539" type="curve" smooth="yes"/>
			<point x="307" y="387" type="line"/>
			<point x="315" y="385" type="line"/>
			<point x="315" y="301" type="line"/>
		</contour>
		<contour>
			<point x="192" y="288" type="curve" smooth="yes"/>
			<point x="287" y="288"/>
			<point x="347" y="351"/>
			<point x="347" y="451" type="curve"/>
			<point x="316" y="464" type="line"/>
			<point x="311" y="422"/>
			<point x="276" y="390"/>
			<point x="233" y="390" type="curve" smooth="yes"/>
			<point x="202" y="390"/>
			<point x="181" y="406"/>
			<point x="181" y="429" type="curve" smooth="yes"/>
			<point x="181" y="453"/>
			<point x="205" y="470"/>
			<point x="248" y="470" type="curve" smooth="yes"/>
			<point x="314" y="470" type="line"/>
			<point x="314" y="553" type="line"/>
			<point x="241" y="553" type="line" smooth="yes"/>
			<point x="112" y="553"/>
			<point x="37" y="503"/>
			<point x="37" y="422" type="curve" smooth="yes"/>
			<point x="37" y="341"/>
			<point x="100" y="288"/>
		</contour>
	</outline>
</glyph>
<glyph name="logicalnot" format="2">
	<unicode hex="00AC"/>
	<advance width="660"/>
	<outline>
		<contour>
			<point x="576" y="142" type="line"/>
			<point x="576" y="425" type="line"/>
			<point x="84" y="425" type="line"/>
			<point x="84" y="291" type="line"/>
			<point x="442" y="291" type="line"/>
			<point x="442" y="142" type="line"/>
		</contour>
	</outline>
</glyph>
<glyph name="micro" format="2">
	<unicode hex="00B5"/>
	<advance width="660"/>
	<outline>
		<contour>
			<point x="586" y="0" type="line"/>
			<point x="586" y="510" type="line"/>
			<point x="417" y="510" type="line"/>
			<point x="417" y="124" type="line"/>
			<point x="418" y="96" type="line"/>
			<point x="418" y="0" type="line"/>
		</contour>
		<contour>
			<point x="155" y="49" type="line"/>
			<point x="174" y="6"/>
			<point x="219" y="-16"/>
			<point x="275" y="-16" type="curve" smooth="yes"/>
			<point x="387" y="-16"/>
			<point x="456" y="66"/>
			<point x="456" y="192" type="curve"/>
			<point x="422" y="208" type="line"/>
			<point x="413" y="157"/>
			<point x="370" y="122"/>
			<point x="319" y="122" type="curve" smooth="yes"/>
			<point x="273" y="122"/>
			<point x="243" y="150"/>
			<point x="243" y="206" type="curve" smooth="yes"/>
			<point x="243" y="510" type="line"/>
			<point x="74" y="510" type="line"/>
			<point x="74" y="-194" type="line"/>
			<point x="243" y="-194" type="line"/>
			<point x="243" y="96" type="line"/>
		</contour>
	</outline>
</glyph>
<glyph name="paragraph" format="2">
	<unicode hex="00B6"/>
	<advance width="667"/>
	<outline>
		<contour>
			<point x="367" y="-130" type="line"/>
			<point x="367" y="573" type="line"/>
			<point x="455" y="573" type="line"/>
			<point x="455" y="-130" type="line"/>
			<point x="605" y="-130" type="line"/>
			<point x="605" y="715" type="line"/>
			<point x="287" y="715" type="line" smooth="yes"/>
			<point x="128" y="715"/>
			<point x="22" y="619"/>
			<point x="22" y="475" type="curve" smooth="yes"/>
			<point x="22" y="358"/>
			<point x="100" y="265"/>
			<point x="217" y="244" type="curve"/>
			<point x="217" y="-130" type="line"/>
		</contour>
	</outline>
</glyph>
<glyph name="ordmasculine" format="2">
	<unicode hex="00BA"/>
	<advance width="538"/>
	<outline>
		<contour>
			<point x="269" y="288" type="curve" smooth="yes"/>
			<point x="406" y="288"/>
			<point x="499" y="377"/>
			<point x="499" y="502" type="curve" smooth="yes"/>
			<point x="499" y="627"/>
			<point x="406" y="715"/>
			<point x="269" y="715" type="curve" smooth="yes"/>
			<point x="132" y="715"/>
			<point x="39" y="627"/>
			<point x="39" y="502" type="curve" smooth="yes"/>
			<point x="39" y="377"/>
			<point x="132" y="288"/>
		</contour>
		<contour>
			<point x="269" y="407" type="curve" smooth="yes"/>
			<point x="221" y="407"/>
			<point x="189" y="447"/>
			<point x="189" y="502" type="curve" smooth="yes"/>
			<point x="189" y="557"/>
			<point x="221" y="596"/>
			<point x="269" y="596" type="curve" smooth="yes"/>
			<point x="317" y="596"/>
			<point x="349" y="557"/>
			<point x="349" y="502" type="curve" smooth="yes"/>
			<point x="349" y="447"/>
			<point x="317" y="407"/>
		</contour>
	</outline>
</glyph>
<glyph name="questiondown" format="2">
	<unicode hex="00BF"/>
	<advance width="586"/>
	<outline>
		<contour>
			<point x="242" y="264" type="line"/>
			<point x="241" y="226"/>
			<point x="226" y="202"/>
			<point x="161" y="166" type="curve" smooth="yes"/>
			<point x="79" y="119"/>
			<point x="35" y="61"/>
			<point x="35" y="-15" type="curve" smooth="yes"/>
			<point x="35" y="-136"/>
			<point x="142" y="-231"/>
			<point x="287" y="-231" type="curve" smooth="yes"/>
			<point x="391" y="-231"/>
			<point x="491" y="-182"/>
			<point x="562" y="-97" type="curve"/>
			<point x="453" y="12" type="line"/>
			<point x="404" y="-60"/>
			<point x="344" y="-89"/>
			<point x="292" y="-89" type="curve" smooth="yes"/>
			<point x="237" y="-89"/>
			<point x="201" y="-57"/>
			<point x="201" y="-15" type="curve" smooth="yes"/>
			<point x="201" y="13"/>
			<point x="216" y="33"/>
			<point x="253" y="59" type="curve" smooth="yes"/>
			<point x="353" y="131"/>
			<point x="377" y="175"/>
			<point x="369" y="264" type="curve"/>
		</contour>
		<contour>
			<point x="203" y="414" type="curve" smooth="yes"/>
			<point x="203" y="359"/>
			<point x="247" y="317"/>
			<point x="303" y="317" type="curve" smooth="yes"/>
			<point x="359" y="317"/>
			<point x="403" y="359"/>
			<point x="403" y="414" type="curve" smooth="yes"/>
			<point x="403" y="468"/>
			<point x="359" y="510"/>
			<point x="303" y="510" type="curve" smooth="yes"/>
			<point x="247" y="510"/>
			<point x="203" y="468"/>
		</contour>
	</outline>
</glyph>
<glyph name="multiply" format="2">
	<unicode hex="00D7"/>
	<advance width="660"/>
	<outline>
		<contour>
			<point x="563" y="217" type="line"/>
			<point x="189" y="591" type="line"/>
			<point x="97" y="499" type="line"/>
			<point x="471" y="125" type="line"/>
		</contour>
		<contour>
			<point x="471" y="591" type="line"/>
			<point x="97" y="217" type="line"/>
			<point x="189" y="125" type="line"/>
			<point x="563" y="499" type="line"/>
		</contour>
	</outline>
	<guideline y="357"/>
</glyph>
<glyph name="Oslash" format="2">
	<unicode hex="00D8"/>
	<advance width="872"/>
	<outline>
		<contour>
			<point x="436" y="-16" type="curve" smooth="yes"/>
			<point x="663" y="-16"/>
			<point x="825" y="142"/>
			<point x="825" y="358" type="curve" smooth="yes"/>
			<point x="825" y="573"/>
			<point x="663" y="731"/>
			<point x="436" y="731" type="curve" smooth="yes"/>
			<point x="209" y="731"/>
			<point x="47" y="573"/>
			<point x="47" y="358" type="curve" smooth="yes"/>
			<point x="47" y="142"/>
			<point x="209" y="-16"/>
		</contour>
		<contour>
			<point x="436" y="135" type="curve" smooth="yes"/>
			<point x="313" y="135"/>
			<point x="228" y="228"/>
			<point x="228" y="358" type="curve" smooth="yes"/>
			<point x="228" y="487"/>
			<point x="313" y="580"/>
			<point x="436" y="580" type="curve" smooth="yes"/>
			<point x="559" y="580"/>
			<point x="644" y="487"/>
			<point x="644" y="358" type="curve" smooth="yes"/>
			<point x="644" y="228"/>
			<point x="559" y="135"/>
		</contour>
		<contour>
			<point x="126" y="-36" type="line"/>
			<point x="844" y="651" type="line"/>
			<point x="744" y="751" type="line"/>
			<point x="26" y="64" type="line"/>
		</contour>
	</outline>
</glyph>
<glyph name="Thorn" format="2">
	<unicode hex="00DE"/>
	<advance width="666"/>
	<outline>
		<contour>
			<point x="224" y="444" type="line"/>
			<point x="361" y="444" type="line" smooth="yes"/>
			<point x="420" y="444"/>
			<point x="457" y="410"/>
			<point x="457" y="357" type="curve" smooth="yes"/>
			<point x="457" y="304"/>
			<point x="420" y="270"/>
			<point x="361" y="270" type="curve" smooth="yes"/>
			<point x="224" y="270" type="line"/>
			<point x="224" y="127" type="line"/>
			<point x="361" y="127" type="line" smooth="yes"/>
			<point x="521" y="127"/>
			<point x="631" y="220"/>
			<point x="631" y="357" type="curve" smooth="yes"/>
			<point x="631" y="494"/>
			<point x="521" y="587"/>
			<point x="361" y="587" type="curve" smooth="yes"/>
			<point x="224" y="587" type="line"/>
		</contour>
		<contour>
			<point x="234" y="0" type="line"/>
			<point x="234" y="715" type="line"/>
			<point x="62" y="715" type="line"/>
			<point x="62" y="0" type="line"/>
		</contour>
	</outline>
	<guideline x="143"/>
	<guideline y="357"/>
</glyph>
<glyph name="germandbls" format="2">
	<unicode hex="00DF"/>
	<advance width="664"/>
	<outline>
		<contour>
			<point x="215" y="0" type="line"/>
			<point x="215" y="457" type="line" smooth="yes"/>
			<point x="215" y="557"/>
			<point x="256" y="599"/>
			<point x="318" y="599" type="curve" smooth="yes"/>
			<point x="374" y="599"/>
			<point x="403" y="566"/>
			<point x="403" y="522" type="curve" smooth="yes"/>
			<point x="403" y="472"/>
			<point x="366" y="437"/>
			<point x="314" y="437" type="curve" smooth="yes"/>
			<point x="292" y="437" type="line"/>
			<point x="292" y="303" type="line"/>
			<point x="337" y="303" type="line" smooth="yes"/>
			<point x="407" y="303"/>
			<point x="461" y="263"/>
			<point x="461" y="201" type="curve" smooth="yes"/>
			<point x="461" y="152"/>
			<point x="428" y="116"/>
			<point x="382" y="116" type="curve" smooth="yes"/>
			<point x="352" y="116"/>
			<point x="326" y="125"/>
			<point x="306" y="142" type="curve"/>
			<point x="245" y="29" type="line"/>
			<point x="269" y="3"/>
			<point x="341" y="-16"/>
			<point x="396" y="-16" type="curve" smooth="yes"/>
			<point x="539" y="-16"/>
			<point x="629" y="70"/>
			<point x="629" y="193" type="curve" smooth="yes"/>
			<point x="629" y="334"/>
			<point x="512" y="414"/>
			<point x="357" y="414" type="curve" smooth="yes"/>
			<point x="311" y="414" type="line"/>
			<point x="311" y="342" type="line"/>
			<point x="314" y="342" type="line" smooth="yes"/>
			<point x="473" y="342"/>
			<point x="571" y="420"/>
			<point x="571" y="527" type="curve" smooth="yes"/>
			<point x="571" y="639"/>
			<point x="469" y="731"/>
			<point x="315" y="731" type="curve" smooth="yes"/>
			<point x="158" y="731"/>
			<point x="46" y="636"/>
			<point x="46" y="467" type="curve" smooth="yes"/>
			<point x="46" y="0" type="line"/>
		</contour>
	</outline>
	<guideline x="454"/>
	<guideline x="622"/>
	<guideline x="1015"/>
	<guideline x="1015"/>
	<guideline y="49"/>
	<guideline y="197"/>
	<guideline y="197"/>
	<guideline y="666"/>
</glyph>
<glyph name="divide" format="2">
	<unicode hex="00F7"/>
	<advance width="660"/>
	<outline>
		<contour>
			<point x="586" y="291" type="line"/>
			<point x="586" y="425" type="line"/>
			<point x="74" y="425" type="line"/>
			<point x="74" y="291" type="line"/>
		</contour>
		<contour>
			<point x="330" y="470" type="curve" smooth="yes"/>
			<point x="381" y="470"/>
			<point x="421" y="508"/>
			<point x="421" y="557" type="curve" smooth="yes"/>
			<point x="421" y="607"/>
			<point x="381" y="645"/>
			<point x="330" y="645" type="curve" smooth="yes"/>
			<point x="279" y="645"/>
			<point x="239" y="607"/>
			<point x="239" y="557" type="curve" smooth="yes"/>
			<point x="239" y="508"/>
			<point x="279" y="470"/>
		</contour>
		<contour>
			<point x="330" y="71" type="curve" smooth="yes"/>
			<point x="381" y="71"/>
			<point x="421" y="109"/>
			<point x="421" y="158" type="curve" smooth="yes"/>
			<point x="421" y="208"/>
			<point x="381" y="246"/>
			<point x="330" y="246" type="curve" smooth="yes"/>
			<point x="279" y="246"/>
			<point x="239" y="208"/>
			<point x="239" y="158" type="curve" smooth="yes"/>
			<point x="239" y="109"/>
			<point x="279" y="71"/>
		</contour>
	</outline>
	<guideline x="325"/>
	<guideline y="358"/>
</glyph>
<glyph name="oslash" format="2">
	<unicode hex="00F8"/>
	<advance width="658"/>
	<outline>
		<contour>
			<point x="329" y="-16" type="curve" smooth="yes"/>
			<point x="501" y="-16"/>
			<point x="619" y="96"/>
			<point x="619" y="255" type="curve" smooth="yes"/>
			<point x="619" y="414"/>
			<point x="501" y="526"/>
			<point x="329" y="526" type="curve" smooth="yes"/>
			<point x="157" y="526"/>
			<point x="39" y="414"/>
			<point x="39" y="255" type="curve" smooth="yes"/>
			<point x="39" y="96"/>
			<point x="157" y="-16"/>
		</contour>
		<contour>
			<point x="329" y="122" type="curve" smooth="yes"/>
			<point x="260" y="122"/>
			<point x="213" y="177"/>
			<point x="213" y="255" type="curve" smooth="yes"/>
			<point x="213" y="333"/>
			<point x="260" y="388"/>
			<point x="329" y="388" type="curve" smooth="yes"/>
			<point x="398" y="388"/>
			<point x="445" y="333"/>
			<point x="445" y="255" type="curve" smooth="yes"/>
			<point x="445" y="177"/>
			<point x="398" y="122"/>
		</contour>
		<contour>
			<point x="96" y="-33" type="line"/>
			<point x="636" y="469" type="line"/>
			<point x="562" y="543" type="line"/>
			<point x="22" y="41" type="line"/>
		</contour>
	</outline>
</glyph>
<glyph name="dcroat" format="2">
	<unicode hex="0111"/>
	<advance width="704"/>
	<outline>
		<contour>
			<point x="612" y="0" type="line"/>
			<point x="612" y="720" type="line"/>
			<point x="443" y="720" type="line"/>
			<point x="443" y="319" type="line"/>
			<point x="483" y="319" type="line"/>
			<point x="472" y="421"/>
			<point x="405" y="496"/>
			<point x="287" y="496" type="curve" smooth="yes"/>
			<point x="150" y="496"/>
			<point x="35" y="394"/>
			<point x="35" y="240" type="curve" smooth="yes"/>
			<point x="35" y="86"/>
			<point x="151" y="-16"/>
			<point x="286" y="-16" type="curve" smooth="yes"/>
			<point x="416" y="-16"/>
			<point x="486" y="77"/>
			<point x="486" y="192" type="curve"/>
			<point x="448" y="208" type="line"/>
			<point x="438" y="156"/>
			<point x="393" y="122"/>
			<point x="333" y="122" type="curve" smooth="yes"/>
			<point x="261" y="122"/>
			<point x="209" y="170"/>
			<point x="209" y="240" type="curve" smooth="yes"/>
			<point x="209" y="306"/>
			<point x="254" y="358"/>
			<point x="326" y="358" type="curve" smooth="yes"/>
			<point x="395" y="358"/>
			<point x="443" y="310"/>
			<point x="443" y="229" type="curve" smooth="yes"/>
			<point x="443" y="120" type="line"/>
			<point x="444" y="109" type="line"/>
			<point x="444" y="0" type="line"/>
		</contour>
		<contour>
			<point x="693" y="539" type="line"/>
			<point x="693" y="653" type="line"/>
			<point x="300" y="653" type="line"/>
			<point x="300" y="539" type="line"/>
		</contour>
	</outline>
</glyph>
<glyph name="Hbar" format="2">
	<unicode hex="0126"/>
	<advance width="780"/>
	<outline>
		<contour>
			<point x="536" y="0" type="line"/>
			<point x="708" y="0" type="line"/>
			<point x="708" y="715" type="line"/>
			<point x="536" y="715" type="line"/>
		</contour>
		<contour>
			<point x="244" y="0" type="line"/>
			<point x="244" y="715" type="line"/>
			<point x="72" y="715" type="line"/>
			<point x="72" y="0" type="line"/>
		</contour>
		<contour>
			<point x="234" y="293" type="line"/>
			<point x="546" y="293" type="line"/>
			<point x="546" y="437" type="line"/>
			<point x="234" y="437" type="line"/>
		</contour>
		<contour>
			<point x="765" y="511" type="line"/>
			<point x="765" y="644" type="line"/>
			<point x="15" y="644" type="line"/>
			<point x="15" y="511" type="line"/>
		</contour>
	</outline>
</glyph>
<glyph name="hbar" format="2">
	<unicode hex="0127"/>
	<advance width="652"/>
	<outline>
		<contour>
			<point x="404" y="539" type="line"/>
			<point x="404" y="653" type="line"/>
			<point x="11" y="653" type="line"/>
			<point x="11" y="539" type="line"/>
		</contour>
		<contour>
			<point x="606" y="0" type="line"/>
			<point x="606" y="282" type="line" smooth="yes"/>
			<point x="606" y="420"/>
			<point x="532" y="496"/>
			<point x="413" y="496" type="curve" smooth="yes"/>
			<point x="345" y="496"/>
			<point x="254" y="463"/>
			<point x="241" y="319" type="curve"/>
			<point x="261" y="319" type="line"/>
			<point x="261" y="720" type="line"/>
			<point x="92" y="720" type="line"/>
			<point x="92" y="0" type="line"/>
			<point x="261" y="0" type="line"/>
			<point x="261" y="229" type="line" smooth="yes"/>
			<point x="261" y="320"/>
			<point x="308" y="358"/>
			<point x="359" y="358" type="curve" smooth="yes"/>
			<point x="407" y="358"/>
			<point x="437" y="327"/>
			<point x="437" y="265" type="curve" smooth="yes"/>
			<point x="437" y="0" type="line"/>
		</contour>
	</outline>
</glyph>
<glyph name="dotlessi" format="2">
	<unicode hex="0131"/>
	<advance width="271"/>
	<outline>
		<contour>
			<point x="220" y="0" type="line"/>
			<point x="220" y="510" type="line"/>
			<point x="51" y="510" type="line"/>
			<point x="51" y="0" type="line"/>
		</contour>
	</outline>
	<anchor name="top.LC" x="135" y="544"/>
	<guideline x="130"/>
	<guideline y="510"/>
	<guideline y="657"/>
</glyph>
<glyph name="IJ" format="2">
	<unicode hex="0132"/>
	<advance width="722"/>
	<outline>
		<contour>
			<point x="230" y="372" type="line"/>
			<point x="230" y="715" type="line"/>
			<point x="58" y="715" type="line"/>
			<point x="58" y="372" type="line"/>
		</contour>
		<contour>
			<point x="664" y="715" type="line"/>
			<point x="492" y="715" type="line"/>
			<point x="492" y="282" type="line" smooth="yes"/>
			<point x="492" y="186"/>
			<point x="446" y="135"/>
			<point x="361" y="135" type="curve" smooth="yes"/>
			<point x="285" y="135"/>
			<point x="239" y="186"/>
			<point x="231" y="282" type="curve"/>
			<point x="59" y="262" type="line"/>
			<point x="67" y="92"/>
			<point x="184" y="-16"/>
			<point x="361" y="-16" type="curve" smooth="yes"/>
			<point x="557" y="-16"/>
			<point x="664" y="89"/>
			<point x="664" y="282" type="curve" smooth="yes"/>
		</contour>
	</outline>
	<anchor name="top.UC_1" x="144" y="750"/>
	<anchor name="top.UC_2" x="578" y="750"/>
	<guideline x="573"/>
	<guideline y="715"/>
	<guideline x="0" y="255" angle="173.25"/>
</glyph>
<glyph name="Lslash" format="2">
	<unicode hex="0141"/>
	<advance width="644"/>
	<outline>
		<contour>
			<point x="614" y="0" type="line"/>
			<point x="614" y="147" type="line"/>
			<point x="294" y="147" type="line"/>
			<point x="294" y="715" type="line"/>
			<point x="122" y="715" type="line"/>
			<point x="122" y="0" type="line"/>
		</contour>
		<contour>
			<point x="473" y="413" type="line"/>
			<point x="404" y="533" type="line"/>
			<point x="5" y="301" type="line"/>
			<point x="74" y="182" type="line"/>
		</contour>
	</outline>
</glyph>
<glyph name="lslash" format="2">
	<unicode hex="0142"/>
	<advance width="411"/>
	<outline>
		<contour>
			<point x="282" y="0" type="line"/>
			<point x="282" y="720" type="line"/>
			<point x="113" y="720" type="line"/>
			<point x="113" y="0" type="line"/>
		</contour>
		<contour>
			<point x="406" y="414" type="line"/>
			<point x="353" y="518" type="line"/>
			<point x="5" y="316" type="line"/>
			<point x="58" y="212" type="line"/>
		</contour>
	</outline>
</glyph>
<glyph name="Eng" format="2">
	<unicode hex="014A"/>
	<advance width="770"/>
	<outline>
		<contour>
			<point x="230" y="-149" type="line"/>
			<point x="270" y="-182"/>
			<point x="345" y="-204"/>
			<point x="421" y="-204" type="curve" smooth="yes"/>
			<point x="607" y="-204"/>
			<point x="708" y="-111"/>
			<point x="708" y="88" type="curve" smooth="yes"/>
			<point x="708" y="715" type="line"/>
			<point x="539" y="715" type="line"/>
			<point x="539" y="88" type="line" smooth="yes"/>
			<point x="539" y="-13"/>
			<point x="498" y="-53"/>
			<point x="421" y="-53" type="curve" smooth="yes"/>
			<point x="385" y="-53"/>
			<point x="341" y="-41"/>
			<point x="312" y="-16" type="curve"/>
		</contour>
		<contour>
			<point x="231" y="0" type="line"/>
			<point x="231" y="558" type="line"/>
			<point x="157" y="558" type="line"/>
			<point x="549" y="0" type="line"/>
			<point x="633" y="157" type="line"/>
			<point x="241" y="715" type="line"/>
			<point x="62" y="715" type="line"/>
			<point x="62" y="0" type="line"/>
		</contour>
	</outline>
</glyph>
<glyph name="eng" format="2">
	<unicode hex="014B"/>
	<advance width="611"/>
	<outline>
		<contour>
			<point x="306" y="-194" type="line"/>
			<point x="410" y="-194" type="line" smooth="yes"/>
			<point x="515" y="-194"/>
			<point x="565" y="-144"/>
			<point x="565" y="-39" type="curve" smooth="yes"/>
			<point x="565" y="312" type="line" smooth="yes"/>
			<point x="565" y="450"/>
			<point x="491" y="526"/>
			<point x="372" y="526" type="curve" smooth="yes"/>
			<point x="304" y="526"/>
			<point x="213" y="493"/>
			<point x="200" y="349" type="curve"/>
			<point x="219" y="349" type="line"/>
			<point x="219" y="510" type="line"/>
			<point x="51" y="510" type="line"/>
			<point x="51" y="0" type="line"/>
			<point x="220" y="0" type="line"/>
			<point x="220" y="259" type="line" smooth="yes"/>
			<point x="220" y="350"/>
			<point x="267" y="388"/>
			<point x="318" y="388" type="curve" smooth="yes"/>
			<point x="366" y="388"/>
			<point x="396" y="357"/>
			<point x="396" y="295" type="curve" smooth="yes"/>
			<point x="396" y="-6" type="line" smooth="yes"/>
			<point x="396" y="-45"/>
			<point x="383" y="-58"/>
			<point x="346" y="-58" type="curve" smooth="yes"/>
			<point x="306" y="-58" type="line"/>
		</contour>
	</outline>
</glyph>
<glyph name="Tbar" format="2">
	<unicode hex="0166"/>
	<advance width="662"/>
	<outline>
		<contour>
			<point x="417" y="0" type="line"/>
			<point x="417" y="580" type="line"/>
			<point x="245" y="580" type="line"/>
			<point x="245" y="0" type="line"/>
		</contour>
		<contour>
			<point x="632" y="570" type="line"/>
			<point x="632" y="715" type="line"/>
			<point x="30" y="715" type="line"/>
			<point x="30" y="570" type="line"/>
		</contour>
		<contour>
			<point x="562" y="288" type="line"/>
			<point x="562" y="431" type="line"/>
			<point x="100" y="431" type="line"/>
			<point x="100" y="288" type="line"/>
		</contour>
	</outline>
</glyph>
<glyph name="tbar" format="2">
	<unicode hex="0167"/>
	<advance width="438"/>
	<outline>
		<contour>
			<point x="401" y="0" type="line"/>
			<point x="401" y="136" type="line"/>
			<point x="333" y="136" type="line" smooth="yes"/>
			<point x="296" y="136"/>
			<point x="283" y="149"/>
			<point x="283" y="188" type="curve" smooth="yes"/>
			<point x="283" y="636" type="line"/>
			<point x="114" y="636" type="line"/>
			<point x="114" y="155" type="line" smooth="yes"/>
			<point x="114" y="50"/>
			<point x="164" y="0"/>
			<point x="269" y="0" type="curve" smooth="yes"/>
		</contour>
		<contour>
			<point x="396" y="376" type="line"/>
			<point x="396" y="510" type="line"/>
			<point x="35" y="510" type="line"/>
			<point x="35" y="376" type="line"/>
		</contour>
		<contour>
			<point x="396" y="204" type="line"/>
			<point x="396" y="318" type="line"/>
			<point x="35" y="318" type="line"/>
			<point x="35" y="204" type="line"/>
		</contour>
	</outline>
	<guideline x="393"/>
	<guideline y="256"/>
</glyph>
<glyph name="Ohorn" format="2">
	<unicode hex="01A0"/>
	<advance width="883"/>
	<outline>
		<contour>
			<point x="436" y="-16" type="curve" smooth="yes"/>
			<point x="663" y="-16"/>
			<point x="825" y="142"/>
			<point x="825" y="358" type="curve" smooth="yes"/>
			<point x="825" y="475"/>
			<point x="778" y="575"/>
			<point x="696" y="643" type="curve"/>
			<point x="675" y="626" type="line"/>
			<point x="683" y="624"/>
			<point x="694" y="623"/>
			<point x="699" y="623" type="curve" smooth="yes"/>
			<point x="810" y="621"/>
			<point x="873" y="690"/>
			<point x="873" y="812" type="curve" smooth="yes"/>
			<point x="873" y="884" type="line"/>
			<point x="737" y="884" type="line"/>
			<point x="737" y="804" type="line" smooth="yes"/>
			<point x="737" y="738"/>
			<point x="715" y="715"/>
			<point x="649" y="715" type="curve" smooth="yes"/>
			<point x="595" y="715"/>
			<point x="560" y="716"/>
			<point x="532" y="721" type="curve" smooth="yes"/>
			<point x="497" y="728"/>
			<point x="466" y="731"/>
			<point x="436" y="731" type="curve" smooth="yes"/>
			<point x="209" y="731"/>
			<point x="47" y="573"/>
			<point x="47" y="358" type="curve" smooth="yes"/>
			<point x="47" y="142"/>
			<point x="209" y="-16"/>
		</contour>
		<contour>
			<point x="436" y="135" type="curve" smooth="yes"/>
			<point x="313" y="135"/>
			<point x="228" y="228"/>
			<point x="228" y="358" type="curve" smooth="yes"/>
			<point x="228" y="487"/>
			<point x="313" y="580"/>
			<point x="436" y="580" type="curve" smooth="yes"/>
			<point x="559" y="580"/>
			<point x="644" y="487"/>
			<point x="644" y="358" type="curve" smooth="yes"/>
			<point x="644" y="228"/>
			<point x="559" y="135"/>
		</contour>
	</outline>
	<anchor name="bottom.UC" x="436" y="-50"/>
	<anchor name="top.UC" x="436" y="750"/>
</glyph>
<glyph name="ohorn" format="2">
	<unicode hex="01A1"/>
	<advance width="683"/>
	<outline>
		<contour>
			<point x="325" y="-16" type="curve" smooth="yes"/>
			<point x="497" y="-16"/>
			<point x="615" y="96"/>
			<point x="615" y="255" type="curve" smooth="yes"/>
			<point x="615" y="331"/>
			<point x="588" y="396"/>
			<point x="543" y="444" type="curve"/>
			<point x="524" y="417" type="line"/>
			<point x="633" y="426"/>
			<point x="683" y="480"/>
			<point x="683" y="585" type="curve" smooth="yes"/>
			<point x="683" y="626" type="line"/>
			<point x="555" y="626" type="line"/>
			<point x="555" y="582" type="line" smooth="yes"/>
			<point x="555" y="531"/>
			<point x="534" y="509"/>
			<point x="484" y="509" type="curve" smooth="yes"/>
			<point x="461" y="509"/>
			<point x="433" y="513"/>
			<point x="397" y="519" type="curve" smooth="yes"/>
			<point x="374" y="523"/>
			<point x="350" y="526"/>
			<point x="325" y="526" type="curve" smooth="yes"/>
			<point x="153" y="526"/>
			<point x="35" y="414"/>
			<point x="35" y="255" type="curve" smooth="yes"/>
			<point x="35" y="96"/>
			<point x="153" y="-16"/>
		</contour>
		<contour>
			<point x="325" y="122" type="curve" smooth="yes"/>
			<point x="256" y="122"/>
			<point x="209" y="177"/>
			<point x="209" y="255" type="curve" smooth="yes"/>
			<point x="209" y="333"/>
			<point x="256" y="388"/>
			<point x="325" y="388" type="curve" smooth="yes"/>
			<point x="394" y="388"/>
			<point x="441" y="333"/>
			<point x="441" y="255" type="curve" smooth="yes"/>
			<point x="441" y="177"/>
			<point x="394" y="122"/>
		</contour>
	</outline>
	<anchor name="bottom.LC" x="325" y="-50"/>
	<anchor name="top.LC" x="325" y="544"/>
</glyph>
<glyph name="Uhorn" format="2">
	<unicode hex="01AF"/>
	<advance width="834"/>
	<outline>
		<contour>
			<point x="376" y="-16" type="curve" smooth="yes"/>
			<point x="575" y="-16"/>
			<point x="694" y="94"/>
			<point x="694" y="282" type="curve" smooth="yes"/>
			<point x="694" y="663" type="line"/>
			<point x="656" y="616" type="line"/>
			<point x="803" y="618"/>
			<point x="874" y="681"/>
			<point x="874" y="812" type="curve" smooth="yes"/>
			<point x="874" y="884" type="line"/>
			<point x="738" y="884" type="line"/>
			<point x="738" y="804" type="line" smooth="yes"/>
			<point x="738" y="738"/>
			<point x="715" y="715"/>
			<point x="650" y="715" type="curve" smooth="yes"/>
			<point x="523" y="715" type="line"/>
			<point x="523" y="282" type="line" smooth="yes"/>
			<point x="523" y="197"/>
			<point x="468" y="135"/>
			<point x="376" y="135" type="curve" smooth="yes"/>
			<point x="285" y="135"/>
			<point x="230" y="197"/>
			<point x="230" y="282" type="curve" smooth="yes"/>
			<point x="230" y="715" type="line"/>
			<point x="58" y="715" type="line"/>
			<point x="58" y="282" type="line" smooth="yes"/>
			<point x="58" y="94"/>
			<point x="178" y="-16"/>
		</contour>
	</outline>
	<anchor name="bottom.UC" x="376" y="-50"/>
	<anchor name="ogonek.UC.round" x="417" y="-30"/>
	<anchor name="top.UC" x="376" y="750"/>
	<anchor name="topright.UC" x="532" y="750"/>
</glyph>
<glyph name="dotlessj" format="2">
	<unicode hex="0237"/>
	<advance width="271"/>
	<outline>
		<contour>
			<point x="-39" y="-194" type="line"/>
			<point x="65" y="-194" type="line" smooth="yes"/>
			<point x="170" y="-194"/>
			<point x="220" y="-144"/>
			<point x="220" y="-39" type="curve" smooth="yes"/>
			<point x="220" y="510" type="line"/>
			<point x="51" y="510" type="line"/>
			<point x="51" y="-6" type="line" smooth="yes"/>
			<point x="51" y="-45"/>
			<point x="38" y="-58"/>
			<point x="1" y="-58" type="curve" smooth="yes"/>
			<point x="-39" y="-58" type="line"/>
		</contour>
	</outline>
	<anchor name="top.LC" x="137" y="544"/>
</glyph>
<glyph name="gravecomb" format="2">
	<unicode hex="0300"/>
	<outline>
		<contour>
			<point x="-60" y="587" type="line"/>
			<point x="77" y="587" type="line"/>
			<point x="-37" y="761" type="line"/>
			<point x="-215" y="761" type="line"/>
		</contour>
	</outline>
	<anchor name="_top.LC" x="0" y="544"/>
</glyph>
<glyph name="macroncomb" format="2">
	<unicode hex="0304"/>
	<outline>
		<contour>
			<point x="159" y="592" type="line"/>
			<point x="159" y="703" type="line"/>
			<point x="-159" y="703" type="line"/>
			<point x="-159" y="592" type="line"/>
		</contour>
	</outline>
	<anchor name="_top.LC" x="0" y="544"/>
</glyph>
<glyph name="brevecomb" format="2">
	<unicode hex="0306"/>
	<outline>
		<contour>
			<point x="0" y="587" type="curve"/>
			<point x="94" y="587"/>
			<point x="172" y="648"/>
			<point x="183" y="757" type="curve"/>
			<point x="61" y="757" type="line"/>
			<point x="54" y="710"/>
			<point x="30" y="694"/>
			<point x="0" y="694" type="curve" smooth="yes"/>
			<point x="-30" y="694"/>
			<point x="-54" y="710"/>
			<point x="-61" y="757" type="curve"/>
			<point x="-183" y="757" type="line"/>
			<point x="-172" y="648"/>
			<point x="-94" y="587"/>
		</contour>
	</outline>
	<anchor name="_top.LC" x="0" y="544"/>
	<anchor name="top.LC" x="0" y="739"/>
</glyph>
<glyph name="hookabovecomb" format="2">
	<unicode hex="0309"/>
	<outline>
		<contour>
			<point x="-7" y="560" type="line"/>
			<point x="79" y="592"/>
			<point x="124" y="638"/>
			<point x="124" y="695" type="curve" smooth="yes"/>
			<point x="124" y="757"/>
			<point x="72" y="801"/>
			<point x="0" y="801" type="curve" smooth="yes"/>
			<point x="-47" y="801"/>
			<point x="-88" y="784"/>
			<point x="-123" y="750" type="curve"/>
			<point x="-74" y="690" type="line"/>
			<point x="-54" y="705"/>
			<point x="-38" y="711"/>
			<point x="-18" y="711" type="curve" smooth="yes"/>
			<point x="4" y="711"/>
			<point x="18" y="700"/>
			<point x="18" y="683" type="curve" smooth="yes"/>
			<point x="18" y="663"/>
			<point x="1" y="647"/>
			<point x="-44" y="626" type="curve"/>
		</contour>
	</outline>
	<anchor name="_top.LC" x="0" y="544"/>
</glyph>
<glyph name="caroncomb" format="2">
	<unicode hex="030C"/>
	<outline>
		<contour>
			<point x="-217" y="761" type="line"/>
			<point x="-93" y="587" type="line"/>
			<point x="93" y="587" type="line"/>
			<point x="217" y="761" type="line"/>
			<point x="70" y="761" type="line"/>
			<point x="-61" y="603" type="line"/>
			<point x="64" y="603" type="line"/>
			<point x="-67" y="761" type="line"/>
		</contour>
	</outline>
	<anchor name="_top.LC" x="0" y="544"/>
</glyph>
<glyph name="horncomb" format="2">
	<unicode hex="031B"/>
	<outline>
		<contour>
			<point x="0" y="414" type="line"/>
			<point x="64" y="414" type="line" smooth="yes"/>
			<point x="200" y="414"/>
			<point x="270" y="470"/>
			<point x="270" y="585" type="curve" smooth="yes"/>
			<point x="270" y="626" type="line"/>
			<point x="142" y="626" type="line"/>
			<point x="142" y="582" type="line" smooth="yes"/>
			<point x="142" y="533"/>
			<point x="118" y="510"/>
			<point x="71" y="510" type="curve" smooth="yes"/>
			<point x="0" y="510" type="line"/>
		</contour>
	</outline>
	<anchor name="_topright.LC" x="0" y="544"/>
</glyph>
<glyph name="Dje" format="2">
	<unicode hex="0402"/>
	<advance width="802"/>
	<outline>
		<contour>
			<point x="431" y="0" type="line"/>
			<point x="488" y="0" type="line" smooth="yes"/>
			<point x="670" y="0"/>
			<point x="770" y="81"/>
			<point x="770" y="228" type="curve" smooth="yes"/>
			<point x="770" y="378"/>
			<point x="673" y="461"/>
			<point x="497" y="461" type="curve" smooth="yes"/>
			<point x="427" y="461"/>
			<point x="361" y="445"/>
			<point x="298" y="413" type="curve"/>
			<point x="321" y="288" type="line"/>
			<point x="381" y="307"/>
			<point x="417" y="313"/>
			<point x="466" y="313" type="curve" smooth="yes"/>
			<point x="555" y="313"/>
			<point x="598" y="285"/>
			<point x="598" y="227" type="curve" smooth="yes"/>
			<point x="598" y="176"/>
			<point x="555" y="145"/>
			<point x="484" y="145" type="curve" smooth="yes"/>
			<point x="431" y="145" type="line"/>
		</contour>
		<contour>
			<point x="172" y="0" type="line"/>
			<point x="344" y="0" type="line"/>
			<point x="344" y="715" type="line"/>
			<point x="172" y="715" type="line"/>
		</contour>
		<contour>
			<point x="25" y="570" type="line"/>
			<point x="616" y="570" type="line"/>
			<point x="616" y="715" type="line"/>
			<point x="25" y="715" type="line"/>
		</contour>
	</outline>
</glyph>
<glyph name="Lje" format="2">
	<unicode hex="0409"/>
	<advance width="1134"/>
	<outline>
		<contour>
			<point x="30" y="0" type="line"/>
			<point x="133" y="0" type="line" smooth="yes"/>
			<point x="252" y="0"/>
			<point x="301" y="52"/>
			<point x="319" y="195" type="curve" smooth="yes"/>
			<point x="368" y="596" type="line"/>
			<point x="340" y="571" type="line"/>
			<point x="558" y="571" type="line"/>
			<point x="533" y="596" type="line"/>
			<point x="533" y="0" type="line"/>
			<point x="837" y="0" type="line" smooth="yes"/>
			<point x="999" y="0"/>
			<point x="1107" y="96"/>
			<point x="1107" y="234" type="curve" smooth="yes"/>
			<point x="1107" y="372"/>
			<point x="1000" y="462"/>
			<point x="837" y="462" type="curve" smooth="yes"/>
			<point x="614" y="462" type="line"/>
			<point x="614" y="318" type="line"/>
			<point x="838" y="318" type="line" smooth="yes"/>
			<point x="897" y="318"/>
			<point x="933" y="286"/>
			<point x="933" y="234" type="curve" smooth="yes"/>
			<point x="933" y="178"/>
			<point x="897" y="144"/>
			<point x="838" y="144" type="curve" smooth="yes"/>
			<point x="680" y="144" type="line"/>
			<point x="705" y="119" type="line"/>
			<point x="705" y="715" type="line"/>
			<point x="216" y="715" type="line"/>
			<point x="157" y="195" type="line" smooth="yes"/>
			<point x="152" y="154"/>
			<point x="142" y="144"/>
			<point x="103" y="144" type="curve" smooth="yes"/>
			<point x="30" y="144" type="line"/>
		</contour>
	</outline>
</glyph>
<glyph name="Dzhe" format="2">
	<unicode hex="040F"/>
	<advance width="786"/>
	<outline>
		<contour>
			<point x="80" y="0" type="line"/>
			<point x="706" y="0" type="line"/>
			<point x="706" y="715" type="line"/>
			<point x="534" y="715" type="line"/>
			<point x="534" y="144" type="line"/>
			<point x="252" y="144" type="line"/>
			<point x="252" y="715" type="line"/>
			<point x="80" y="715" type="line"/>
		</contour>
		<contour>
			<point x="313" y="-174" type="line"/>
			<point x="473" y="-174" type="line"/>
			<point x="473" y="94" type="line"/>
			<point x="313" y="94" type="line"/>
		</contour>
	</outline>
</glyph>
<glyph name="Be" format="2">
	<unicode hex="0411"/>
	<advance width="688"/>
	<outline>
		<contour>
			<point x="80" y="0" type="line"/>
			<point x="396" y="0" type="line" smooth="yes"/>
			<point x="558" y="0"/>
			<point x="666" y="91"/>
			<point x="666" y="226" type="curve" smooth="yes"/>
			<point x="666" y="359"/>
			<point x="559" y="445"/>
			<point x="396" y="445" type="curve" smooth="yes"/>
			<point x="161" y="445" type="line"/>
			<point x="161" y="302" type="line"/>
			<point x="397" y="302" type="line" smooth="yes"/>
			<point x="456" y="302"/>
			<point x="492" y="274"/>
			<point x="492" y="226" type="curve" smooth="yes"/>
			<point x="492" y="174"/>
			<point x="456" y="143"/>
			<point x="397" y="143" type="curve" smooth="yes"/>
			<point x="240" y="143" type="line"/>
			<point x="252" y="131" type="line"/>
			<point x="252" y="715" type="line"/>
			<point x="80" y="715" type="line"/>
		</contour>
		<contour>
			<point x="158" y="570" type="line"/>
			<point x="610" y="570" type="line"/>
			<point x="610" y="715" type="line"/>
			<point x="158" y="715" type="line"/>
		</contour>
	</outline>
</glyph>
<glyph name="Ghe" format="2">
	<unicode hex="0413"/>
	<advance width="587"/>
	<outline>
		<contour>
			<point x="80" y="0" type="line"/>
			<point x="252" y="0" type="line"/>
			<point x="252" y="673" type="line"/>
			<point x="160" y="570" type="line"/>
			<point x="572" y="570" type="line"/>
			<point x="572" y="715" type="line"/>
			<point x="80" y="715" type="line"/>
		</contour>
	</outline>
	<anchor name="top.UC" x="331" y="750"/>
</glyph>
<glyph name="Icyr" format="2">
	<unicode hex="0418"/>
	<advance width="804"/>
	<outline>
		<contour>
			<point x="80" y="0" type="line"/>
			<point x="260" y="0" type="line"/>
			<point x="672" y="653" type="line"/>
			<point x="552" y="653" type="line"/>
			<point x="552" y="0" type="line"/>
			<point x="724" y="0" type="line"/>
			<point x="724" y="715" type="line"/>
			<point x="544" y="715" type="line"/>
			<point x="134" y="71" type="line"/>
			<point x="252" y="71" type="line"/>
			<point x="252" y="715" type="line"/>
			<point x="80" y="715" type="line"/>
		</contour>
	</outline>
	<anchor name="top.UC" x="413" y="750"/>
</glyph>
<glyph name="El" format="2">
	<unicode hex="041B"/>
	<advance width="795"/>
	<outline>
		<contour>
			<point x="30" y="0" type="line"/>
			<point x="133" y="0" type="line" smooth="yes"/>
			<point x="252" y="0"/>
			<point x="301" y="52"/>
			<point x="319" y="195" type="curve" smooth="yes"/>
			<point x="380" y="693" type="line"/>
			<point x="251" y="571" type="line"/>
			<point x="625" y="571" type="line"/>
			<point x="543" y="693" type="line"/>
			<point x="543" y="0" type="line"/>
			<point x="715" y="0" type="line"/>
			<point x="715" y="715" type="line"/>
			<point x="216" y="715" type="line"/>
			<point x="157" y="195" type="line" smooth="yes"/>
			<point x="152" y="154"/>
			<point x="142" y="144"/>
			<point x="103" y="144" type="curve" smooth="yes"/>
			<point x="30" y="144" type="line"/>
		</contour>
	</outline>
</glyph>
<glyph name="Pe" format="2">
	<unicode hex="041F"/>
	<advance width="794"/>
	<outline>
		<contour>
			<point x="80" y="0" type="line"/>
			<point x="252" y="0" type="line"/>
			<point x="252" y="673" type="line"/>
			<point x="160" y="571" type="line"/>
			<point x="624" y="571" type="line"/>
			<point x="542" y="673" type="line"/>
			<point x="542" y="0" type="line"/>
			<point x="714" y="0" type="line"/>
			<point x="714" y="715" type="line"/>
			<point x="80" y="715" type="line"/>
		</contour>
	</outline>
</glyph>
<glyph name="Ucyr" format="2">
	<unicode hex="0423"/>
	<advance width="703"/>
	<outline>
		<contour>
			<point x="67" y="0" type="line"/>
			<point x="180" y="0" type="line" smooth="yes"/>
			<point x="295" y="0"/>
			<point x="371" y="50"/>
			<point x="423" y="156" type="curve" smooth="yes"/>
			<point x="693" y="715" type="line"/>
			<point x="518" y="715" type="line"/>
			<point x="321" y="275" type="line" smooth="yes"/>
			<point x="276" y="175"/>
			<point x="240" y="144"/>
			<point x="168" y="144" type="curve" smooth="yes"/>
			<point x="67" y="144" type="line"/>
		</contour>
		<contour>
			<point x="286" y="159" type="line"/>
			<point x="412" y="236" type="line"/>
			<point x="185" y="715" type="line"/>
			<point x="10" y="715" type="line"/>
		</contour>
	</outline>
	<anchor name="top.UC" x="357" y="750"/>
</glyph>
<glyph name="Ef" format="2">
	<unicode hex="0424"/>
	<advance width="916"/>
	<outline>
		<contour>
			<point x="458" y="69" type="curve" smooth="yes"/>
			<point x="729" y="69"/>
			<point x="869" y="168"/>
			<point x="869" y="358" type="curve" smooth="yes"/>
			<point x="869" y="547"/>
			<point x="728" y="646"/>
			<point x="458" y="646" type="curve" smooth="yes"/>
			<point x="188" y="646"/>
			<point x="47" y="547"/>
			<point x="47" y="358" type="curve" smooth="yes"/>
			<point x="47" y="168"/>
			<point x="187" y="69"/>
		</contour>
		<contour>
			<point x="458" y="207" type="curve" smooth="yes"/>
			<point x="285" y="207"/>
			<point x="215" y="250"/>
			<point x="215" y="358" type="curve" smooth="yes"/>
			<point x="215" y="464"/>
			<point x="286" y="508"/>
			<point x="458" y="508" type="curve" smooth="yes"/>
			<point x="632" y="508"/>
			<point x="701" y="465"/>
			<point x="701" y="358" type="curve" smooth="yes"/>
			<point x="701" y="250"/>
			<point x="631" y="207"/>
		</contour>
		<contour>
			<point x="372" y="-35" type="line"/>
			<point x="544" y="-35" type="line"/>
			<point x="544" y="129" type="line"/>
			<point x="539" y="173" type="line"/>
			<point x="539" y="551" type="line"/>
			<point x="544" y="590" type="line"/>
			<point x="544" y="750" type="line"/>
			<point x="372" y="750" type="line"/>
			<point x="372" y="590" type="line"/>
			<point x="377" y="551" type="line"/>
			<point x="377" y="173" type="line"/>
			<point x="372" y="129" type="line"/>
		</contour>
	</outline>
</glyph>
<glyph name="Che" format="2">
	<unicode hex="0427"/>
	<advance width="725"/>
	<outline>
		<contour>
			<point x="301" y="243" type="curve" smooth="yes"/>
			<point x="390" y="243"/>
			<point x="471" y="270"/>
			<point x="519" y="319" type="curve"/>
			<point x="480" y="420" type="line"/>
			<point x="444" y="401"/>
			<point x="390" y="389"/>
			<point x="337" y="389" type="curve" smooth="yes"/>
			<point x="254" y="389"/>
			<point x="219" y="418"/>
			<point x="219" y="490" type="curve" smooth="yes"/>
			<point x="219" y="715" type="line"/>
			<point x="47" y="715" type="line"/>
			<point x="47" y="470" type="line" smooth="yes"/>
			<point x="47" y="329"/>
			<point x="142" y="243"/>
		</contour>
		<contour>
			<point x="473" y="0" type="line"/>
			<point x="645" y="0" type="line"/>
			<point x="645" y="715" type="line"/>
			<point x="473" y="715" type="line"/>
		</contour>
	</outline>
</glyph>
<glyph name="Sha" format="2">
	<unicode hex="0428"/>
	<advance width="1140"/>
	<outline>
		<contour>
			<point x="80" y="0" type="line"/>
			<point x="1060" y="0" type="line"/>
			<point x="1060" y="715" type="line"/>
			<point x="888" y="715" type="line"/>
			<point x="888" y="33" type="line"/>
			<point x="990" y="144" type="line"/>
			<point x="594" y="144" type="line"/>
			<point x="656" y="33" type="line"/>
			<point x="656" y="715" type="line"/>
			<point x="484" y="715" type="line"/>
			<point x="484" y="33" type="line"/>
			<point x="546" y="144" type="line"/>
			<point x="150" y="144" type="line"/>
			<point x="252" y="33" type="line"/>
			<point x="252" y="715" type="line"/>
			<point x="80" y="715" type="line"/>
		</contour>
	</outline>
</glyph>
<glyph name="Shcha" format="2">
	<unicode hex="0429"/>
	<advance width="1188"/>
	<outline>
		<contour>
			<point x="80" y="0" type="line"/>
			<point x="1060" y="0" type="line"/>
			<point x="1060" y="715" type="line"/>
			<point x="888" y="715" type="line"/>
			<point x="888" y="33" type="line"/>
			<point x="990" y="144" type="line"/>
			<point x="594" y="144" type="line"/>
			<point x="656" y="33" type="line"/>
			<point x="656" y="715" type="line"/>
			<point x="484" y="715" type="line"/>
			<point x="484" y="33" type="line"/>
			<point x="546" y="144" type="line"/>
			<point x="150" y="144" type="line"/>
			<point x="252" y="33" type="line"/>
			<point x="252" y="715" type="line"/>
			<point x="80" y="715" type="line"/>
		</contour>
		<contour>
			<point x="993" y="-174" type="line"/>
			<point x="1153" y="-174" type="line"/>
			<point x="1153" y="144" type="line"/>
			<point x="993" y="144" type="line"/>
		</contour>
	</outline>
</glyph>
<glyph name="Hard" format="2">
	<unicode hex="042A"/>
	<advance width="785"/>
	<outline>
		<contour>
			<point x="172" y="0" type="line"/>
			<point x="488" y="0" type="line" smooth="yes"/>
			<point x="650" y="0"/>
			<point x="758" y="96"/>
			<point x="758" y="234" type="curve" smooth="yes"/>
			<point x="758" y="372"/>
			<point x="651" y="462"/>
			<point x="488" y="462" type="curve" smooth="yes"/>
			<point x="279" y="462" type="line"/>
			<point x="279" y="319" type="line"/>
			<point x="489" y="319" type="line" smooth="yes"/>
			<point x="548" y="319"/>
			<point x="584" y="287"/>
			<point x="584" y="234" type="curve" smooth="yes"/>
			<point x="584" y="177"/>
			<point x="548" y="143"/>
			<point x="489" y="143" type="curve" smooth="yes"/>
			<point x="332" y="143" type="line"/>
			<point x="344" y="131" type="line"/>
			<point x="344" y="715" type="line"/>
			<point x="25" y="715" type="line"/>
			<point x="25" y="570" type="line"/>
			<point x="184" y="570" type="line"/>
			<point x="172" y="582" type="line"/>
		</contour>
	</outline>
</glyph>
<glyph name="Soft" format="2">
	<unicode hex="042C"/>
	<advance width="693"/>
	<outline>
		<contour>
			<point x="80" y="0" type="line"/>
			<point x="396" y="0" type="line" smooth="yes"/>
			<point x="558" y="0"/>
			<point x="666" y="96"/>
			<point x="666" y="234" type="curve" smooth="yes"/>
			<point x="666" y="372"/>
			<point x="559" y="462"/>
			<point x="396" y="462" type="curve" smooth="yes"/>
			<point x="161" y="462" type="line"/>
			<point x="161" y="319" type="line"/>
			<point x="397" y="319" type="line" smooth="yes"/>
			<point x="456" y="319"/>
			<point x="492" y="287"/>
			<point x="492" y="234" type="curve" smooth="yes"/>
			<point x="492" y="177"/>
			<point x="456" y="143"/>
			<point x="397" y="143" type="curve" smooth="yes"/>
			<point x="240" y="143" type="line"/>
			<point x="252" y="129" type="line"/>
			<point x="252" y="715" type="line"/>
			<point x="80" y="715" type="line"/>
		</contour>
	</outline>
</glyph>
<glyph name="Ecyr" format="2">
	<unicode hex="042D"/>
	<advance width="755"/>
	<outline>
		<contour>
			<point x="327" y="-16" type="curve" smooth="yes"/>
			<point x="559" y="-16"/>
			<point x="708" y="139"/>
			<point x="708" y="357" type="curve" smooth="yes"/>
			<point x="708" y="575"/>
			<point x="559" y="731"/>
			<point x="325" y="731" type="curve" smooth="yes"/>
			<point x="198" y="731"/>
			<point x="89" y="677"/>
			<point x="25" y="598" type="curve"/>
			<point x="130" y="488" type="line"/>
			<point x="177" y="543"/>
			<point x="246" y="580"/>
			<point x="325" y="580" type="curve" smooth="yes"/>
			<point x="456" y="580"/>
			<point x="535" y="488"/>
			<point x="535" y="358" type="curve" smooth="yes"/>
			<point x="535" y="228"/>
			<point x="455" y="135"/>
			<point x="323" y="135" type="curve" smooth="yes"/>
			<point x="241" y="135"/>
			<point x="174" y="172"/>
			<point x="127" y="223" type="curve"/>
			<point x="22" y="117" type="line"/>
			<point x="86" y="38"/>
			<point x="195" y="-16"/>
		</contour>
		<contour>
			<point x="210" y="293" type="line"/>
			<point x="633" y="293" type="line"/>
			<point x="633" y="437" type="line"/>
			<point x="210" y="437" type="line"/>
		</contour>
	</outline>
</glyph>
<glyph name="Yu" format="2">
	<unicode hex="042E"/>
	<advance width="1126"/>
	<outline>
		<contour>
			<point x="715" y="-16" type="curve" smooth="yes"/>
			<point x="926" y="-16"/>
			<point x="1079" y="141"/>
			<point x="1079" y="358" type="curve" smooth="yes"/>
			<point x="1079" y="574"/>
			<point x="926" y="731"/>
			<point x="715" y="731" type="curve" smooth="yes"/>
			<point x="504" y="731"/>
			<point x="351" y="574"/>
			<point x="351" y="358" type="curve" smooth="yes"/>
			<point x="351" y="141"/>
			<point x="504" y="-16"/>
		</contour>
		<contour>
			<point x="80" y="0" type="line"/>
			<point x="252" y="0" type="line"/>
			<point x="252" y="715" type="line"/>
			<point x="80" y="715" type="line"/>
		</contour>
		<contour>
			<point x="172" y="293" type="line"/>
			<point x="464" y="293" type="line"/>
			<point x="464" y="437" type="line"/>
			<point x="172" y="437" type="line"/>
		</contour>
		<contour>
			<point x="715" y="135" type="curve" smooth="yes"/>
			<point x="604" y="135"/>
			<point x="532" y="223"/>
			<point x="532" y="358" type="curve" smooth="yes"/>
			<point x="532" y="492"/>
			<point x="604" y="580"/>
			<point x="715" y="580" type="curve" smooth="yes"/>
			<point x="826" y="580"/>
			<point x="898" y="493"/>
			<point x="898" y="358" type="curve" smooth="yes"/>
			<point x="898" y="223"/>
			<point x="826" y="135"/>
		</contour>
	</outline>
</glyph>
<glyph name="Ya" format="2">
	<unicode hex="042F"/>
	<advance width="726"/>
	<outline>
		<contour>
			<point x="474" y="0" type="line"/>
			<point x="646" y="0" type="line"/>
			<point x="646" y="715" type="line"/>
			<point x="347" y="715" type="line" smooth="yes"/>
			<point x="187" y="715"/>
			<point x="77" y="622"/>
			<point x="77" y="485" type="curve" smooth="yes"/>
			<point x="77" y="348"/>
			<point x="187" y="255"/>
			<point x="347" y="255" type="curve" smooth="yes"/>
			<point x="484" y="255" type="line"/>
			<point x="484" y="398" type="line"/>
			<point x="347" y="398" type="line" smooth="yes"/>
			<point x="288" y="398"/>
			<point x="251" y="432"/>
			<point x="251" y="485" type="curve" smooth="yes"/>
			<point x="251" y="538"/>
			<point x="288" y="572"/>
			<point x="347" y="572" type="curve" smooth="yes"/>
			<point x="474" y="572" type="line"/>
		</contour>
		<contour>
			<point x="15" y="0" type="line"/>
			<point x="218" y="0" type="line"/>
			<point x="442" y="333" type="line"/>
			<point x="251" y="333" type="line"/>
		</contour>
	</outline>
</glyph>
<glyph name="be" format="2">
	<unicode hex="0431"/>
	<advance width="628"/>
	<outline>
		<contour>
			<point x="320" y="-16" type="curve" smooth="yes"/>
			<point x="483" y="-16"/>
			<point x="593" y="90"/>
			<point x="593" y="246" type="curve" smooth="yes"/>
			<point x="593" y="383"/>
			<point x="503" y="472"/>
			<point x="364" y="472" type="curve" smooth="yes"/>
			<point x="263" y="472"/>
			<point x="192" y="421"/>
			<point x="164" y="330" type="curve"/>
			<point x="187" y="361" type="line"/>
			<point x="194" y="499"/>
			<point x="228" y="550"/>
			<point x="335" y="562" type="curve" smooth="yes"/>
			<point x="544" y="586" type="line"/>
			<point x="528" y="721" type="line"/>
			<point x="312" y="698" type="line" smooth="yes"/>
			<point x="119" y="677"/>
			<point x="35" y="569"/>
			<point x="35" y="340" type="curve" smooth="yes"/>
			<point x="35" y="115"/>
			<point x="140" y="-16"/>
		</contour>
		<contour>
			<point x="311" y="122" type="curve" smooth="yes"/>
			<point x="236" y="122"/>
			<point x="205" y="176"/>
			<point x="208" y="301" type="curve"/>
			<point x="201" y="253" type="line"/>
			<point x="217" y="309"/>
			<point x="256" y="338"/>
			<point x="314" y="338" type="curve" smooth="yes"/>
			<point x="383" y="338"/>
			<point x="420" y="301"/>
			<point x="420" y="232" type="curve" smooth="yes"/>
			<point x="420" y="162"/>
			<point x="381" y="122"/>
		</contour>
	</outline>
</glyph>
<glyph name="ve" format="2">
	<unicode hex="0432"/>
	<advance width="573"/>
	<outline>
		<contour>
			<point x="62" y="0" type="line"/>
			<point x="342" y="0" type="line" smooth="yes"/>
			<point x="459" y="0"/>
			<point x="545" y="54"/>
			<point x="545" y="143" type="curve" smooth="yes"/>
			<point x="545" y="204"/>
			<point x="499" y="251"/>
			<point x="434" y="269" type="curve"/>
			<point x="435" y="260" type="line"/>
			<point x="487" y="280"/>
			<point x="520" y="318"/>
			<point x="520" y="372" type="curve" smooth="yes"/>
			<point x="520" y="457"/>
			<point x="447" y="510"/>
			<point x="326" y="510" type="curve" smooth="yes"/>
			<point x="62" y="510" type="line"/>
		</contour>
		<contour>
			<point x="209" y="46" type="line"/>
			<point x="209" y="469" type="line"/>
			<point x="123" y="395" type="line"/>
			<point x="293" y="395" type="line" smooth="yes"/>
			<point x="339" y="395"/>
			<point x="359" y="384"/>
			<point x="359" y="352" type="curve" smooth="yes"/>
			<point x="359" y="322"/>
			<point x="341" y="310"/>
			<point x="293" y="310" type="curve" smooth="yes"/>
			<point x="144" y="310" type="line"/>
			<point x="144" y="208" type="line"/>
			<point x="309" y="208" type="line" smooth="yes"/>
			<point x="361" y="208"/>
			<point x="383" y="195"/>
			<point x="383" y="162" type="curve" smooth="yes"/>
			<point x="383" y="128"/>
			<point x="361" y="115"/>
			<point x="309" y="115" type="curve" smooth="yes"/>
			<point x="132" y="115" type="line"/>
		</contour>
	</outline>
</glyph>
<glyph name="ghe" format="2">
	<unicode hex="0433"/>
	<advance width="474"/>
	<outline>
		<contour>
			<point x="62" y="0" type="line"/>
			<point x="231" y="0" type="line"/>
			<point x="231" y="477" type="line"/>
			<point x="104" y="376" type="line"/>
			<point x="450" y="376" type="line"/>
			<point x="450" y="510" type="line"/>
			<point x="62" y="510" type="line"/>
		</contour>
	</outline>
	<anchor name="top.LC" x="255" y="544"/>
</glyph>
<glyph name="icyr" format="2">
	<unicode hex="0438"/>
	<advance width="634"/>
	<outline>
		<contour>
			<point x="62" y="0" type="line"/>
			<point x="211" y="0" type="line"/>
			<point x="420" y="296" type="line"/>
			<point x="413" y="298" type="line"/>
			<point x="413" y="0" type="line"/>
			<point x="572" y="0" type="line"/>
			<point x="572" y="510" type="line"/>
			<point x="423" y="510" type="line"/>
			<point x="214" y="214" type="line"/>
			<point x="221" y="212" type="line"/>
			<point x="221" y="510" type="line"/>
			<point x="62" y="510" type="line"/>
		</contour>
	</outline>
	<anchor name="top.LC" x="323" y="544"/>
</glyph>
<glyph name="em" format="2">
	<unicode hex="043C"/>
	<advance width="757"/>
	<outline>
		<contour>
			<point x="62" y="0" type="line"/>
			<point x="203" y="0" type="line"/>
			<point x="203" y="445" type="line"/>
			<point x="153" y="392" type="line"/>
			<point x="327" y="57" type="line"/>
			<point x="425" y="57" type="line"/>
			<point x="598" y="391" type="line"/>
			<point x="548" y="454" type="line"/>
			<point x="548" y="0" type="line"/>
			<point x="695" y="0" type="line"/>
			<point x="695" y="510" type="line"/>
			<point x="524" y="510" type="line"/>
			<point x="368" y="201" type="line"/>
			<point x="390" y="200" type="line"/>
			<point x="229" y="510" type="line"/>
			<point x="62" y="510" type="line"/>
		</contour>
	</outline>
</glyph>
<glyph name="en" format="2">
	<unicode hex="043D"/>
	<advance width="634"/>
	<outline>
		<contour>
			<point x="403" y="0" type="line"/>
			<point x="572" y="0" type="line"/>
			<point x="572" y="510" type="line"/>
			<point x="403" y="510" type="line"/>
		</contour>
		<contour>
			<point x="62" y="0" type="line"/>
			<point x="231" y="0" type="line"/>
			<point x="231" y="510" type="line"/>
			<point x="62" y="510" type="line"/>
		</contour>
		<contour>
			<point x="141" y="200" type="line"/>
			<point x="502" y="200" type="line"/>
			<point x="502" y="334" type="line"/>
			<point x="141" y="334" type="line"/>
		</contour>
	</outline>
</glyph>
<glyph name="pe" format="2">
	<unicode hex="043F"/>
	<advance width="624"/>
	<outline>
		<contour>
			<point x="62" y="0" type="line"/>
			<point x="231" y="0" type="line"/>
			<point x="231" y="488" type="line"/>
			<point x="109" y="376" type="line"/>
			<point x="515" y="376" type="line"/>
			<point x="393" y="488" type="line"/>
			<point x="393" y="0" type="line"/>
			<point x="562" y="0" type="line"/>
			<point x="562" y="510" type="line"/>
			<point x="62" y="510" type="line"/>
		</contour>
	</outline>
</glyph>
<glyph name="ef" format="2">
	<unicode hex="0444"/>
	<advance width="838"/>
	<outline>
		<contour>
			<point x="384" y="-16" type="curve" smooth="yes"/>
			<point x="454" y="-16" type="line" smooth="yes"/>
			<point x="668" y="-16"/>
			<point x="803" y="89"/>
			<point x="803" y="255" type="curve" smooth="yes"/>
			<point x="803" y="421"/>
			<point x="668" y="526"/>
			<point x="454" y="526" type="curve" smooth="yes"/>
			<point x="384" y="526" type="line" smooth="yes"/>
			<point x="170" y="526"/>
			<point x="35" y="421"/>
			<point x="35" y="255" type="curve" smooth="yes"/>
			<point x="35" y="89"/>
			<point x="170" y="-16"/>
		</contour>
		<contour>
			<point x="384" y="120" type="line" smooth="yes"/>
			<point x="265" y="120"/>
			<point x="197" y="170"/>
			<point x="197" y="255" type="curve" smooth="yes"/>
			<point x="197" y="341"/>
			<point x="265" y="390"/>
			<point x="384" y="390" type="curve" smooth="yes"/>
			<point x="454" y="390" type="line" smooth="yes"/>
			<point x="573" y="390"/>
			<point x="641" y="341"/>
			<point x="641" y="255" type="curve" smooth="yes"/>
			<point x="641" y="170"/>
			<point x="573" y="120"/>
			<point x="454" y="120" type="curve" smooth="yes"/>
		</contour>
		<contour>
			<point x="337" y="-204" type="line"/>
			<point x="502" y="-204" type="line"/>
			<point x="502" y="55" type="line"/>
			<point x="497" y="72" type="line"/>
			<point x="497" y="427" type="line"/>
			<point x="502" y="446" type="line"/>
			<point x="502" y="720" type="line"/>
			<point x="337" y="720" type="line"/>
			<point x="337" y="446" type="line"/>
			<point x="342" y="427" type="line"/>
			<point x="342" y="72" type="line"/>
			<point x="337" y="55" type="line"/>
		</contour>
	</outline>
</glyph>
<glyph name="tse" format="2">
	<unicode hex="0446"/>
	<advance width="666"/>
	<outline>
		<contour>
			<point x="62" y="0" type="line"/>
			<point x="557" y="0" type="line"/>
			<point x="557" y="510" type="line"/>
			<point x="388" y="510" type="line"/>
			<point x="388" y="22" type="line"/>
			<point x="450" y="134" type="line"/>
			<point x="109" y="134" type="line"/>
			<point x="231" y="22" type="line"/>
			<point x="231" y="510" type="line"/>
			<point x="62" y="510" type="line"/>
		</contour>
		<contour>
			<point x="487" y="-143" type="line"/>
			<point x="646" y="-143" type="line"/>
			<point x="646" y="134" type="line"/>
			<point x="487" y="134" type="line"/>
		</contour>
	</outline>
</glyph>
<glyph name="sha" format="2">
	<unicode hex="0448"/>
	<advance width="890"/>
	<outline>
		<contour>
			<point x="62" y="0" type="line"/>
			<point x="828" y="0" type="line"/>
			<point x="828" y="510" type="line"/>
			<point x="664" y="510" type="line"/>
			<point x="664" y="23" type="line"/>
			<point x="779" y="134" type="line"/>
			<point x="480" y="134" type="line"/>
			<point x="527" y="23" type="line"/>
			<point x="527" y="510" type="line"/>
			<point x="363" y="510" type="line"/>
			<point x="363" y="23" type="line"/>
			<point x="444" y="134" type="line"/>
			<point x="150" y="134" type="line"/>
			<point x="226" y="23" type="line"/>
			<point x="226" y="510" type="line"/>
			<point x="62" y="510" type="line"/>
		</contour>
	</outline>
</glyph>
<glyph name="hard" format="2">
	<unicode hex="044A"/>
	<advance width="625"/>
	<outline>
		<contour>
			<point x="134" y="0" type="line"/>
			<point x="396" y="0" type="line" smooth="yes"/>
			<point x="528" y="0"/>
			<point x="611" y="70"/>
			<point x="611" y="190" type="curve" smooth="yes"/>
			<point x="611" y="295"/>
			<point x="529" y="368"/>
			<point x="396" y="368" type="curve" smooth="yes"/>
			<point x="211" y="368" type="line"/>
			<point x="211" y="238" type="line"/>
			<point x="375" y="238" type="line" smooth="yes"/>
			<point x="418" y="238"/>
			<point x="440" y="220"/>
			<point x="440" y="184" type="curve" smooth="yes"/>
			<point x="440" y="148"/>
			<point x="418" y="130"/>
			<point x="375" y="130" type="curve" smooth="yes"/>
			<point x="182" y="130" type="line"/>
			<point x="294" y="28" type="line"/>
			<point x="294" y="510" type="line"/>
			<point x="24" y="510" type="line"/>
			<point x="24" y="380" type="line"/>
			<point x="206" y="380" type="line"/>
			<point x="134" y="472" type="line"/>
		</contour>
	</outline>
</glyph>
<glyph name="yeru" format="2">
	<unicode hex="044B"/>
	<advance width="812"/>
	<outline>
		<contour>
			<point x="62" y="0" type="line"/>
			<point x="318" y="0" type="line" smooth="yes"/>
			<point x="450" y="0"/>
			<point x="533" y="71"/>
			<point x="533" y="194" type="curve" smooth="yes"/>
			<point x="533" y="301"/>
			<point x="451" y="376"/>
			<point x="318" y="376" type="curve" smooth="yes"/>
			<point x="153" y="376" type="line"/>
			<point x="153" y="242" type="line"/>
			<point x="297" y="242" type="line" smooth="yes"/>
			<point x="340" y="242"/>
			<point x="362" y="224"/>
			<point x="362" y="188" type="curve" smooth="yes"/>
			<point x="362" y="152"/>
			<point x="340" y="134"/>
			<point x="297" y="134" type="curve" smooth="yes"/>
			<point x="96" y="134" type="line"/>
			<point x="222" y="20" type="line"/>
			<point x="222" y="510" type="line"/>
			<point x="62" y="510" type="line"/>
		</contour>
		<contour>
			<point x="581" y="0" type="line"/>
			<point x="750" y="0" type="line"/>
			<point x="750" y="510" type="line"/>
			<point x="581" y="510" type="line"/>
		</contour>
	</outline>
	<anchor name="top.LC" x="667" y="544"/>
</glyph>
<glyph name="soft" format="2">
	<unicode hex="044C"/>
	<advance width="553"/>
	<outline>
		<contour>
			<point x="62" y="0" type="line"/>
			<point x="324" y="0" type="line" smooth="yes"/>
			<point x="456" y="0"/>
			<point x="539" y="71"/>
			<point x="539" y="194" type="curve" smooth="yes"/>
			<point x="539" y="301"/>
			<point x="457" y="376"/>
			<point x="324" y="376" type="curve" smooth="yes"/>
			<point x="159" y="376" type="line"/>
			<point x="159" y="242" type="line"/>
			<point x="303" y="242" type="line" smooth="yes"/>
			<point x="346" y="242"/>
			<point x="368" y="224"/>
			<point x="368" y="188" type="curve" smooth="yes"/>
			<point x="368" y="152"/>
			<point x="346" y="134"/>
			<point x="303" y="134" type="curve" smooth="yes"/>
			<point x="102" y="134" type="line"/>
			<point x="222" y="20" type="line"/>
			<point x="222" y="510" type="line"/>
			<point x="62" y="510" type="line"/>
		</contour>
	</outline>
</glyph>
<glyph name="ecyr" format="2">
	<unicode hex="044D"/>
	<advance width="576"/>
	<outline>
		<contour>
			<point x="256" y="-16" type="curve" smooth="yes"/>
			<point x="430" y="-16"/>
			<point x="541" y="90"/>
			<point x="541" y="255" type="curve" smooth="yes"/>
			<point x="541" y="413"/>
			<point x="423" y="526"/>
			<point x="258" y="526" type="curve" smooth="yes"/>
			<point x="162" y="526"/>
			<point x="82" y="490"/>
			<point x="25" y="421" type="curve"/>
			<point x="119" y="327" type="line"/>
			<point x="150" y="371"/>
			<point x="195" y="396"/>
			<point x="249" y="396" type="curve" smooth="yes"/>
			<point x="328" y="396"/>
			<point x="373" y="339"/>
			<point x="373" y="252" type="curve" smooth="yes"/>
			<point x="373" y="167"/>
			<point x="332" y="114"/>
			<point x="250" y="114" type="curve" smooth="yes"/>
			<point x="196" y="114"/>
			<point x="151" y="137"/>
			<point x="118" y="185" type="curve"/>
			<point x="23" y="90" type="line"/>
			<point x="82" y="20"/>
			<point x="162" y="-16"/>
		</contour>
		<contour>
			<point x="154" y="204" type="line"/>
			<point x="495" y="204" type="line"/>
			<point x="495" y="306" type="line"/>
			<point x="154" y="306" type="line"/>
		</contour>
	</outline>
</glyph>
<glyph name="ya" format="2">
	<unicode hex="044F"/>
	<advance width="584"/>
	<outline>
		<contour>
			<point x="372" y="0" type="line"/>
			<point x="522" y="0" type="line"/>
			<point x="522" y="510" type="line"/>
			<point x="254" y="510" type="line" smooth="yes"/>
			<point x="130" y="510"/>
			<point x="45" y="440"/>
			<point x="45" y="340" type="curve" smooth="yes"/>
			<point x="45" y="236"/>
			<point x="123" y="172"/>
			<point x="248" y="172" type="curve" smooth="yes"/>
			<point x="425" y="172" type="line"/>
			<point x="425" y="282" type="line"/>
			<point x="277" y="282" type="line" smooth="yes"/>
			<point x="236" y="282"/>
			<point x="210" y="299"/>
			<point x="210" y="336" type="curve" smooth="yes"/>
			<point x="210" y="371"/>
			<point x="234" y="390"/>
			<point x="275" y="390" type="curve" smooth="yes"/>
			<point x="482" y="390" type="line"/>
			<point x="372" y="490" type="line"/>
		</contour>
		<contour>
			<point x="17" y="0" type="line"/>
			<point x="194" y="0" type="line"/>
			<point x="341" y="211" type="line"/>
			<point x="178" y="211" type="line"/>
		</contour>
	</outline>
</glyph>
<glyph name="ieukrain" format="2">
	<unicode hex="0454"/>
	<advance width="581"/>
	<outline>
		<contour>
			<point x="320" y="-16" type="curve" smooth="yes"/>
			<point x="414" y="-16"/>
			<point x="494" y="20"/>
			<point x="553" y="90" type="curve"/>
			<point x="458" y="185" type="line"/>
			<point x="426" y="138"/>
			<point x="381" y="114"/>
			<point x="326" y="114" type="curve" smooth="yes"/>
			<point x="247" y="114"/>
			<point x="203" y="164"/>
			<point x="203" y="252" type="curve" smooth="yes"/>
			<point x="203" y="341"/>
			<point x="250" y="396"/>
			<point x="327" y="396" type="curve" smooth="yes"/>
			<point x="380" y="396"/>
			<point x="425" y="372"/>
			<point x="457" y="327" type="curve"/>
			<point x="551" y="421" type="line"/>
			<point x="494" y="490"/>
			<point x="414" y="526"/>
			<point x="318" y="526" type="curve" smooth="yes"/>
			<point x="153" y="526"/>
			<point x="35" y="413"/>
			<point x="35" y="255" type="curve" smooth="yes"/>
			<point x="35" y="90"/>
			<point x="146" y="-16"/>
		</contour>
		<contour>
			<point x="81" y="204" type="line"/>
			<point x="422" y="204" type="line"/>
			<point x="422" y="306" type="line"/>
			<point x="81" y="306" type="line"/>
		</contour>
	</outline>
	<anchor name="bottom.LC" x="323" y="-50"/>
	<anchor name="top.LC" x="323" y="544"/>
</glyph>
<glyph name="lje" format="2">
	<unicode hex="0459"/>
	<advance width="870"/>
	<outline>
		<contour>
			<point x="17" y="0" type="line"/>
			<point x="80" y="0" type="line" smooth="yes"/>
			<point x="193" y="0"/>
			<point x="243" y="33"/>
			<point x="254" y="143" type="curve" smooth="yes"/>
			<point x="278" y="388" type="line"/>
			<point x="265" y="376" type="line"/>
			<point x="391" y="376" type="line"/>
			<point x="379" y="388" type="line"/>
			<point x="379" y="0" type="line"/>
			<point x="641" y="0" type="line" smooth="yes"/>
			<point x="773" y="0"/>
			<point x="856" y="70"/>
			<point x="856" y="190" type="curve" smooth="yes"/>
			<point x="856" y="296"/>
			<point x="774" y="369"/>
			<point x="641" y="369" type="curve" smooth="yes"/>
			<point x="483" y="369" type="line"/>
			<point x="483" y="238" type="line"/>
			<point x="620" y="238" type="line" smooth="yes"/>
			<point x="663" y="238"/>
			<point x="685" y="220"/>
			<point x="685" y="185" type="curve" smooth="yes"/>
			<point x="685" y="148"/>
			<point x="663" y="130"/>
			<point x="620" y="130" type="curve"/>
			<point x="536" y="130" type="line"/>
			<point x="548" y="118" type="line"/>
			<point x="548" y="510" type="line"/>
			<point x="134" y="510" type="line"/>
			<point x="101" y="179" type="line" smooth="yes"/>
			<point x="98" y="149"/>
			<point x="84" y="136"/>
			<point x="47" y="136" type="curve" smooth="yes"/>
			<point x="17" y="136" type="line"/>
		</contour>
	</outline>
</glyph>
<glyph name="tshe" format="2">
	<unicode hex="045B"/>
	<advance width="652"/>
	<outline>
		<contour>
			<point x="92" y="0" type="line"/>
			<point x="261" y="0" type="line"/>
			<point x="261" y="219" type="line" smooth="yes"/>
			<point x="261" y="310"/>
			<point x="308" y="348"/>
			<point x="359" y="348" type="curve" smooth="yes"/>
			<point x="407" y="348"/>
			<point x="437" y="317"/>
			<point x="437" y="255" type="curve" smooth="yes"/>
			<point x="437" y="0" type="line"/>
			<point x="606" y="0" type="line"/>
			<point x="606" y="272" type="line" smooth="yes"/>
			<point x="606" y="410"/>
			<point x="532" y="486"/>
			<point x="413" y="486" type="curve" smooth="yes"/>
			<point x="345" y="486"/>
			<point x="254" y="453"/>
			<point x="241" y="309" type="curve"/>
			<point x="261" y="309" type="line"/>
			<point x="261" y="720" type="line"/>
			<point x="92" y="720" type="line"/>
		</contour>
		<contour>
			<point x="11" y="539" type="line"/>
			<point x="439" y="539" type="line"/>
			<point x="439" y="653" type="line"/>
			<point x="11" y="653" type="line"/>
		</contour>
	</outline>
</glyph>
<glyph name="Yat" format="2">
	<unicode hex="0462"/>
	<advance width="756"/>
	<outline>
		<contour>
			<point x="143" y="0" type="line"/>
			<point x="459" y="0" type="line" smooth="yes"/>
			<point x="621" y="0"/>
			<point x="729" y="93"/>
			<point x="729" y="226" type="curve" smooth="yes"/>
			<point x="729" y="360"/>
			<point x="622" y="447"/>
			<point x="459" y="447" type="curve" smooth="yes"/>
			<point x="224" y="447" type="line"/>
			<point x="224" y="304" type="line"/>
			<point x="460" y="304" type="line" smooth="yes"/>
			<point x="519" y="304"/>
			<point x="555" y="275"/>
			<point x="555" y="226" type="curve" smooth="yes"/>
			<point x="555" y="174"/>
			<point x="519" y="143"/>
			<point x="460" y="143" type="curve" smooth="yes"/>
			<point x="303" y="143" type="line"/>
			<point x="315" y="129" type="line"/>
			<point x="315" y="715" type="line"/>
			<point x="143" y="715" type="line"/>
		</contour>
		<contour>
			<point x="25" y="499" type="line"/>
			<point x="540" y="499" type="line"/>
			<point x="540" y="642" type="line"/>
			<point x="25" y="642" type="line"/>
		</contour>
	</outline>
</glyph>
<glyph name="yat" format="2">
	<unicode hex="0463"/>
	<advance width="615"/>
	<outline>
		<contour>
			<point x="124" y="0" type="line"/>
			<point x="386" y="0" type="line" smooth="yes"/>
			<point x="518" y="0"/>
			<point x="601" y="66"/>
			<point x="601" y="181" type="curve" smooth="yes"/>
			<point x="601" y="281"/>
			<point x="519" y="351"/>
			<point x="386" y="351" type="curve" smooth="yes"/>
			<point x="221" y="351" type="line"/>
			<point x="221" y="227" type="line"/>
			<point x="365" y="227" type="line" smooth="yes"/>
			<point x="408" y="227"/>
			<point x="430" y="212"/>
			<point x="430" y="181" type="curve" smooth="yes"/>
			<point x="430" y="149"/>
			<point x="408" y="134"/>
			<point x="365" y="134" type="curve" smooth="yes"/>
			<point x="164" y="134" type="line"/>
			<point x="284" y="20" type="line"/>
			<point x="284" y="720" type="line"/>
			<point x="124" y="720" type="line"/>
		</contour>
		<contour>
			<point x="24" y="391" type="line"/>
			<point x="461" y="391" type="line"/>
			<point x="461" y="510" type="line"/>
			<point x="24" y="510" type="line"/>
		</contour>
	</outline>
</glyph>
<glyph name="Fita" format="2">
	<unicode hex="0472"/>
	<advance width="872"/>
	<outline>
		<contour>
			<point x="436" y="-16" type="curve" smooth="yes"/>
			<point x="662" y="-16"/>
			<point x="825" y="141"/>
			<point x="825" y="358" type="curve" smooth="yes"/>
			<point x="825" y="574"/>
			<point x="662" y="731"/>
			<point x="436" y="731" type="curve" smooth="yes"/>
			<point x="210" y="731"/>
			<point x="47" y="574"/>
			<point x="47" y="358" type="curve" smooth="yes"/>
			<point x="47" y="141"/>
			<point x="210" y="-16"/>
		</contour>
		<contour>
			<point x="436" y="131" type="curve" smooth="yes"/>
			<point x="306" y="131"/>
			<point x="222" y="221"/>
			<point x="222" y="358" type="curve" smooth="yes"/>
			<point x="222" y="494"/>
			<point x="306" y="584"/>
			<point x="436" y="584" type="curve" smooth="yes"/>
			<point x="565" y="584"/>
			<point x="650" y="494"/>
			<point x="650" y="358" type="curve" smooth="yes"/>
			<point x="650" y="221"/>
			<point x="565" y="131"/>
		</contour>
		<contour>
			<point x="146" y="293" type="line"/>
			<point x="726" y="293" type="line"/>
			<point x="726" y="437" type="line"/>
			<point x="146" y="437" type="line"/>
		</contour>
	</outline>
	<anchor name="top.UC" x="436" y="750"/>
</glyph>
<glyph name="Izhitsa" format="2">
	<unicode hex="0474"/>
	<advance width="829"/>
	<outline>
		<contour>
			<point x="309" y="0" type="line"/>
			<point x="480" y="0" type="line"/>
			<point x="683" y="535" type="line" smooth="yes"/>
			<point x="694" y="564"/>
			<point x="704" y="571"/>
			<point x="739" y="571" type="curve" smooth="yes"/>
			<point x="809" y="571" type="line"/>
			<point x="809" y="715" type="line"/>
			<point x="706" y="715" type="line" smooth="yes"/>
			<point x="603" y="715"/>
			<point x="566" y="694"/>
			<point x="533" y="599" type="curve" smooth="yes"/>
			<point x="377" y="146" type="line"/>
			<point x="417" y="146" type="line"/>
			<point x="212" y="715" type="line"/>
			<point x="25" y="715" type="line"/>
		</contour>
	</outline>
</glyph>
<glyph name="izhitsa" format="2">
	<unicode hex="0475"/>
	<advance width="640"/>
	<outline>
		<contour>
			<point x="231" y="0" type="line"/>
			<point x="394" y="0" type="line"/>
			<point x="530" y="337" type="line" smooth="yes"/>
			<point x="541" y="365"/>
			<point x="555" y="374"/>
			<point x="585" y="374" type="curve" smooth="yes"/>
			<point x="620" y="374" type="line"/>
			<point x="620" y="510" type="line"/>
			<point x="549" y="510" type="line" smooth="yes"/>
			<point x="459" y="510"/>
			<point x="422" y="485"/>
			<point x="395" y="406" type="curve" smooth="yes"/>
			<point x="299" y="124" type="line"/>
			<point x="329" y="124" type="line"/>
			<point x="188" y="510" type="line"/>
			<point x="15" y="510" type="line"/>
		</contour>
	</outline>
</glyph>
<glyph name="gheup" format="2">
	<unicode hex="0491"/>
	<advance width="484"/>
	<outline>
		<contour>
			<point x="62" y="0" type="line"/>
			<point x="231" y="0" type="line"/>
			<point x="231" y="477" type="line"/>
			<point x="104" y="376" type="line"/>
			<point x="460" y="376" type="line"/>
			<point x="460" y="643" type="line"/>
			<point x="301" y="643" type="line"/>
			<point x="301" y="480" type="line"/>
			<point x="332" y="510" type="line"/>
			<point x="62" y="510" type="line"/>
		</contour>
	</outline>
</glyph>
<glyph name="Germandbls" format="2">
	<unicode hex="1E9E"/>
	<advance width="793"/>
	<outline>
		<contour>
			<point x="263" y="71" type="line"/>
			<point x="319" y="17"/>
			<point x="402" y="-16"/>
			<point x="491" y="-16" type="curve" smooth="yes"/>
			<point x="651" y="-16"/>
			<point x="770" y="85"/>
			<point x="770" y="210" type="curve" smooth="yes"/>
			<point x="770" y="357"/>
			<point x="620" y="459"/>
			<point x="471" y="417" type="curve"/>
			<point x="530" y="399" type="line"/>
			<point x="701" y="585" type="line"/>
			<point x="701" y="715" type="line"/>
			<point x="389" y="715" type="line" smooth="yes"/>
			<point x="181" y="715"/>
			<point x="58" y="604"/>
			<point x="58" y="417" type="curve" smooth="yes"/>
			<point x="58" y="0" type="line"/>
			<point x="230" y="0" type="line"/>
			<point x="230" y="417" type="line" smooth="yes"/>
			<point x="230" y="526"/>
			<point x="286" y="585"/>
			<point x="389" y="585" type="curve" smooth="yes"/>
			<point x="648" y="585" type="line"/>
			<point x="565" y="628" type="line"/>
			<point x="327" y="372" type="line"/>
			<point x="415" y="290" type="line"/>
			<point x="433" y="304"/>
			<point x="459" y="313"/>
			<point x="488" y="313" type="curve" smooth="yes"/>
			<point x="553" y="313"/>
			<point x="600" y="271"/>
			<point x="600" y="212" type="curve" smooth="yes"/>
			<point x="600" y="154"/>
			<point x="553" y="114"/>
			<point x="491" y="114" type="curve" smooth="yes"/>
			<point x="437" y="114"/>
			<point x="389" y="143"/>
			<point x="357" y="186" type="curve"/>
		</contour>
	</outline>
	<guideline y="585"/>
	<guideline x="-70" y="0" angle="134.22"/>
	<guideline x="114" y="0" angle="134.22"/>
</glyph>
<glyph name="emdash" format="2">
	<unicode hex="2014"/>
	<advance width="1000"/>
	<outline>
		<contour>
			<point x="1000" y="210" type="line"/>
			<point x="1000" y="344" type="line"/>
			<point x="0" y="344" type="line"/>
			<point x="0" y="210" type="line"/>
		</contour>
	</outline>
	<guideline x="245"/>
	<guideline y="277"/>
</glyph>
<glyph name="quoteleft" format="2">
	<unicode hex="2018"/>
	<advance width="288"/>
	<outline>
		<contour>
			<point x="148" y="764" type="line"/>
			<point x="93" y="708"/>
			<point x="43" y="617"/>
			<point x="43" y="553" type="curve" smooth="yes"/>
			<point x="43" y="488"/>
			<point x="83" y="443"/>
			<point x="142" y="443" type="curve" smooth="yes"/>
			<point x="196" y="443"/>
			<point x="236" y="484"/>
			<point x="236" y="537" type="curve" smooth="yes"/>
			<point x="236" y="588"/>
			<point x="194" y="629"/>
			<point x="138" y="629" type="curve"/>
			<point x="167" y="599" type="line"/>
			<point x="164" y="642"/>
			<point x="197" y="711"/>
			<point x="245" y="764" type="curve"/>
		</contour>
	</outline>
</glyph>
<glyph name="quoteright" format="2">
	<unicode hex="2019"/>
	<advance width="288"/>
	<outline>
		<contour>
			<point x="140" y="433" type="line"/>
			<point x="195" y="489"/>
			<point x="245" y="580"/>
			<point x="245" y="644" type="curve" smooth="yes"/>
			<point x="245" y="709"/>
			<point x="205" y="754"/>
			<point x="146" y="754" type="curve" smooth="yes"/>
			<point x="92" y="754"/>
			<point x="52" y="713"/>
			<point x="52" y="660" type="curve" smooth="yes"/>
			<point x="52" y="609"/>
			<point x="94" y="568"/>
			<point x="150" y="568" type="curve"/>
			<point x="121" y="598" type="line"/>
			<point x="124" y="555"/>
			<point x="91" y="486"/>
			<point x="43" y="433" type="curve"/>
		</contour>
	</outline>
</glyph>
<glyph name="daggerdbl" format="2">
	<unicode hex="2021"/>
	<advance width="502"/>
	<outline>
		<contour>
			<point x="333" y="-129" type="line"/>
			<point x="333" y="736" type="line"/>
			<point x="169" y="736" type="line"/>
			<point x="169" y="-129" type="line"/>
		</contour>
		<contour>
			<point x="467" y="375" type="line"/>
			<point x="467" y="509" type="line"/>
			<point x="35" y="509" type="line"/>
			<point x="35" y="375" type="line"/>
		</contour>
		<contour>
			<point x="35" y="232" type="line"/>
			<point x="35" y="98" type="line"/>
			<point x="467" y="98" type="line"/>
			<point x="467" y="232" type="line"/>
		</contour>
	</outline>
</glyph>
<glyph name="bullet" format="2">
	<unicode hex="2022"/>
	<advance width="354"/>
	<outline>
		<contour>
			<point x="59" y="274" type="curve"/>
			<point x="59" y="209"/>
			<point x="112" y="156"/>
			<point x="177" y="156" type="curve"/>
			<point x="242" y="156"/>
			<point x="295" y="209"/>
			<point x="295" y="274" type="curve"/>
			<point x="295" y="339"/>
			<point x="242" y="392"/>
			<point x="177" y="392" type="curve" smooth="yes"/>
			<point x="112" y="392"/>
			<point x="59" y="339"/>
		</contour>
	</outline>
</glyph>
<glyph name="guilsinglright" format="2">
	<unicode hex="203A"/>
	<advance width="395"/>
	<outline>
		<contour>
			<point x="215" y="478" type="line"/>
			<point x="31" y="478" type="line"/>
			<point x="189" y="255" type="line"/>
			<point x="31" y="32" type="line"/>
			<point x="215" y="32" type="line"/>
			<point x="366" y="255" type="line"/>
		</contour>
	</outline>
</glyph>
<glyph name="fraction" format="2">
	<unicode hex="2044"/>
	<advance width="251"/>
	<outline>
		<contour>
			<point x="-50" y="0" type="line"/>
			<point x="466" y="715" type="line"/>
			<point x="301" y="715" type="line"/>
			<point x="-215" y="0" type="line"/>
		</contour>
	</outline>
</glyph>
<glyph name="Euro" format="2">
	<unicode hex="20AC"/>
	<advance width="660"/>
	<outline>
		<contour>
			<point x="539" y="193" type="line"/>
			<point x="506" y="148"/>
			<point x="461" y="123"/>
			<point x="404" y="123" type="curve" smooth="yes"/>
			<point x="304" y="123"/>
			<point x="240" y="211"/>
			<point x="240" y="358" type="curve" smooth="yes"/>
			<point x="240" y="504"/>
			<point x="304" y="592"/>
			<point x="404" y="592" type="curve" smooth="yes"/>
			<point x="461" y="592"/>
			<point x="506" y="567"/>
			<point x="539" y="522" type="curve"/>
			<point x="641" y="628" type="line"/>
			<point x="589" y="689"/>
			<point x="505" y="731"/>
			<point x="404" y="731" type="curve" smooth="yes"/>
			<point x="206" y="731"/>
			<point x="79" y="583"/>
			<point x="79" y="358" type="curve" smooth="yes"/>
			<point x="79" y="132"/>
			<point x="201" y="-16"/>
			<point x="400" y="-16" type="curve" smooth="yes"/>
			<point x="502" y="-16"/>
			<point x="589" y="26"/>
			<point x="641" y="87" type="curve"/>
		</contour>
		<contour>
			<point x="435" y="228" type="line"/>
			<point x="455" y="336" type="line"/>
			<point x="19" y="336" type="line"/>
			<point x="19" y="228" type="line"/>
		</contour>
		<contour>
			<point x="463" y="380" type="line"/>
			<point x="483" y="488" type="line"/>
			<point x="19" y="488" type="line"/>
			<point x="19" y="380" type="line"/>
		</contour>
	</outline>
	<guideline x="724" y="0" angle="45"/>
	<guideline x="388" y="0" angle="100.49"/>
	<guideline x="21" y="0" angle="134.23"/>
</glyph>
<glyph name="hryvnia" format="2">
	<unicode hex="20B4"/>
	<advance width="660"/>
	<outline>
		<contour>
			<point x="350" y="-16" type="curve" smooth="yes"/>
			<point x="454" y="-16"/>
			<point x="539" y="13"/>
			<point x="601" y="69" type="curve"/>
			<point x="522" y="187" type="line"/>
			<point x="481" y="144"/>
			<point x="424" y="122"/>
			<point x="353" y="122" type="curve" smooth="yes"/>
			<point x="279" y="122"/>
			<point x="238" y="142"/>
			<point x="238" y="178" type="curve" smooth="yes"/>
			<point x="238" y="222"/>
			<point x="289" y="245"/>
			<point x="394" y="321" type="curve" smooth="yes"/>
			<point x="535" y="423"/>
			<point x="587" y="490"/>
			<point x="587" y="568" type="curve" smooth="yes"/>
			<point x="587" y="669"/>
			<point x="497" y="731"/>
			<point x="351" y="731" type="curve" smooth="yes"/>
			<point x="250" y="731"/>
			<point x="158" y="696"/>
			<point x="102" y="636" type="curve"/>
			<point x="185" y="529" type="line"/>
			<point x="222" y="573"/>
			<point x="271" y="593"/>
			<point x="339" y="593" type="curve" smooth="yes"/>
			<point x="394" y="593"/>
			<point x="429" y="574"/>
			<point x="429" y="543" type="curve" smooth="yes"/>
			<point x="429" y="513"/>
			<point x="393" y="488"/>
			<point x="301" y="419" type="curve" smooth="yes"/>
			<point x="202" y="345"/>
			<point x="77" y="277"/>
			<point x="77" y="146" type="curve" smooth="yes"/>
			<point x="77" y="41"/>
			<point x="173" y="-16"/>
		</contour>
		<contour>
			<point x="28" y="234" type="line"/>
			<point x="632" y="234" type="line"/>
			<point x="632" y="336" type="line"/>
			<point x="28" y="336" type="line"/>
		</contour>
		<contour>
			<point x="28" y="386" type="line"/>
			<point x="632" y="386" type="line"/>
			<point x="632" y="488" type="line"/>
			<point x="28" y="488" type="line"/>
		</contour>
	</outline>
</glyph>
<glyph name="rupeeindian" format="2">
	<unicode hex="20B9"/>
	<advance width="660"/>
	<outline>
		<contour>
			<point x="52" y="607" type="line"/>
			<point x="261" y="607" type="line" smooth="yes"/>
			<point x="343" y="607"/>
			<point x="392" y="565"/>
			<point x="392" y="495" type="curve" smooth="yes"/>
			<point x="392" y="425"/>
			<point x="343" y="383"/>
			<point x="261" y="383" type="curve" smooth="yes"/>
			<point x="53" y="383" type="line"/>
			<point x="53" y="275" type="line"/>
			<point x="261" y="275" type="line" smooth="yes"/>
			<point x="421" y="275"/>
			<point x="531" y="364"/>
			<point x="531" y="495" type="curve" smooth="yes"/>
			<point x="531" y="614"/>
			<point x="421" y="695"/>
			<point x="261" y="695" type="curve" smooth="yes"/>
			<point x="52" y="695" type="line"/>
		</contour>
		<contour>
			<point x="611" y="0" type="line"/>
			<point x="248" y="296" type="line"/>
			<point x="53" y="275" type="line"/>
			<point x="373" y="0" type="line"/>
		</contour>
		<contour>
			<point x="579" y="439" type="line"/>
			<point x="599" y="547" type="line"/>
			<point x="52" y="547" type="line"/>
			<point x="52" y="439" type="line"/>
		</contour>
		<contour>
			<point x="610" y="607" type="line"/>
			<point x="630" y="715" type="line"/>
			<point x="52" y="715" type="line"/>
			<point x="52" y="607" type="line"/>
		</contour>
	</outline>
	<guideline x="503" y="0" angle="100.49"/>
</glyph>
<glyph name="liraturkish" format="2">
	<unicode hex="20BA"/>
	<advance width="660"/>
	<outline>
		<contour>
			<point x="109" y="0" type="line"/>
			<point x="290" y="0" type="line" smooth="yes"/>
			<point x="510" y="0"/>
			<point x="627" y="108"/>
			<point x="627" y="308" type="curve" smooth="yes"/>
			<point x="627" y="318" type="line"/>
			<point x="461" y="328" type="line"/>
			<point x="461" y="294" type="line" smooth="yes"/>
			<point x="461" y="191"/>
			<point x="405" y="136"/>
			<point x="303" y="136" type="curve" smooth="yes"/>
			<point x="275" y="136" type="line"/>
			<point x="275" y="715" type="line"/>
			<point x="109" y="715" type="line"/>
		</contour>
		<contour>
			<point x="415" y="353" type="line"/>
			<point x="415" y="466" type="line"/>
			<point x="28" y="303" type="line"/>
			<point x="28" y="190" type="line"/>
		</contour>
		<contour>
			<point x="415" y="513" type="line"/>
			<point x="415" y="626" type="line"/>
			<point x="28" y="463" type="line"/>
			<point x="28" y="350" type="line"/>
		</contour>
	</outline>
</glyph>
<glyph name="ruble" format="2">
	<unicode hex="20BD"/>
	<advance width="660"/>
	<outline>
		<contour>
			<point x="288" y="0" type="line"/>
			<point x="288" y="589" type="line"/>
			<point x="361" y="589" type="line" smooth="yes"/>
			<point x="425" y="589"/>
			<point x="466" y="551"/>
			<point x="466" y="495" type="curve" smooth="yes"/>
			<point x="466" y="439"/>
			<point x="425" y="401"/>
			<point x="361" y="401" type="curve" smooth="yes"/>
			<point x="35" y="401" type="line"/>
			<point x="35" y="275" type="line"/>
			<point x="361" y="275" type="line" smooth="yes"/>
			<point x="521" y="275"/>
			<point x="631" y="364"/>
			<point x="631" y="495" type="curve" smooth="yes"/>
			<point x="631" y="626"/>
			<point x="521" y="715"/>
			<point x="361" y="715" type="curve" smooth="yes"/>
			<point x="119" y="715" type="line"/>
			<point x="119" y="0" type="line"/>
		</contour>
		<contour>
			<point x="475" y="221" type="line"/>
			<point x="35" y="221" type="line"/>
			<point x="35" y="95" type="line"/>
			<point x="475" y="95" type="line"/>
		</contour>
	</outline>
</glyph>
<glyph name="numero" format="2">
	<unicode hex="2116"/>
	<advance width="1268"/>
	<outline>
		<contour>
			<point x="62" y="0" type="line"/>
			<point x="231" y="0" type="line"/>
			<point x="231" y="558" type="line"/>
			<point x="157" y="558" type="line"/>
			<point x="529" y="0" type="line"/>
			<point x="708" y="0" type="line"/>
			<point x="708" y="715" type="line"/>
			<point x="539" y="715" type="line"/>
			<point x="539" y="157" type="line"/>
			<point x="613" y="157" type="line"/>
			<point x="241" y="715" type="line"/>
			<point x="62" y="715" type="line"/>
		</contour>
		<contour>
			<point x="828" y="181" type="line"/>
			<point x="1203" y="181" type="line"/>
			<point x="1203" y="296" type="line"/>
			<point x="828" y="296" type="line"/>
		</contour>
		<contour>
			<point x="1015" y="330" type="curve" smooth="yes"/>
			<point x="1139" y="330"/>
			<point x="1223" y="410"/>
			<point x="1223" y="523" type="curve" smooth="yes"/>
			<point x="1223" y="636"/>
			<point x="1139" y="715"/>
			<point x="1015" y="715" type="curve" smooth="yes"/>
			<point x="892" y="715"/>
			<point x="808" y="636"/>
			<point x="808" y="523" type="curve" smooth="yes"/>
			<point x="808" y="410"/>
			<point x="892" y="330"/>
		</contour>
		<contour>
			<point x="1015" y="447" type="curve" smooth="yes"/>
			<point x="976" y="447"/>
			<point x="950" y="479"/>
			<point x="950" y="523" type="curve" smooth="yes"/>
			<point x="950" y="567"/>
			<point x="976" y="598"/>
			<point x="1015" y="598" type="curve" smooth="yes"/>
			<point x="1055" y="598"/>
			<point x="1080" y="567"/>
			<point x="1080" y="523" type="curve" smooth="yes"/>
			<point x="1080" y="479"/>
			<point x="1055" y="447"/>
		</contour>
	</outline>
</glyph>
<glyph name="trademark" format="2">
	<unicode hex="2122"/>
	<advance width="939"/>
	<outline>
		<contour>
			<point x="262" y="301" type="line"/>
			<point x="262" y="617" type="line"/>
			<point x="137" y="617" type="line"/>
			<point x="137" y="301" type="line"/>
		</contour>
		<contour>
			<point x="378" y="610" type="line"/>
			<point x="378" y="715" type="line"/>
			<point x="20" y="715" type="line"/>
			<point x="20" y="610" type="line"/>
		</contour>
		<contour>
			<point x="713" y="364" type="line"/>
			<point x="866" y="681" type="line"/>
			<point x="796" y="684" type="line"/>
			<point x="796" y="301" type="line"/>
			<point x="919" y="301" type="line"/>
			<point x="919" y="715" type="line"/>
			<point x="776" y="715" type="line"/>
			<point x="650" y="453" type="line"/>
			<point x="687" y="453" type="line"/>
			<point x="562" y="715" type="line"/>
			<point x="417" y="715" type="line"/>
			<point x="417" y="301" type="line"/>
			<point x="538" y="301" type="line"/>
			<point x="538" y="684" type="line"/>
			<point x="470" y="681" type="line"/>
			<point x="622" y="364" type="line"/>
		</contour>
	</outline>
</glyph>
<glyph name="De.loclBGR" format="2">
	<advance width="852"/>
	<outline>
		<contour>
			<point x="76" y="41" type="line"/>
			<point x="252" y="41" type="line"/>
			<point x="423" y="526" type="line"/>
			<point x="592" y="41" type="line"/>
			<point x="774" y="41" type="line"/>
			<point x="521" y="715" type="line"/>
			<point x="330" y="715" type="line"/>
		</contour>
		<contour>
			<point x="32" y="-174" type="line"/>
			<point x="192" y="-174" type="line"/>
			<point x="192" y="0" type="line"/>
			<point x="660" y="0" type="line"/>
			<point x="660" y="-174" type="line"/>
			<point x="820" y="-174" type="line"/>
			<point x="820" y="144" type="line"/>
			<point x="32" y="144" type="line"/>
		</contour>
	</outline>
</glyph>
<glyph name="Ef.loclBGR" format="2">
	<advance width="916"/>
	<outline>
		<contour>
			<point x="458" y="49" type="curve" smooth="yes"/>
			<point x="729" y="49"/>
			<point x="869" y="154"/>
			<point x="869" y="358" type="curve" smooth="yes"/>
			<point x="869" y="561"/>
			<point x="728" y="666"/>
			<point x="458" y="666" type="curve" smooth="yes"/>
			<point x="188" y="666"/>
			<point x="47" y="561"/>
			<point x="47" y="358" type="curve" smooth="yes"/>
			<point x="47" y="154"/>
			<point x="187" y="49"/>
		</contour>
		<contour>
			<point x="458" y="187" type="curve" smooth="yes"/>
			<point x="285" y="187"/>
			<point x="215" y="236"/>
			<point x="215" y="358" type="curve" smooth="yes"/>
			<point x="215" y="478"/>
			<point x="286" y="528"/>
			<point x="458" y="528" type="curve" smooth="yes"/>
			<point x="632" y="528"/>
			<point x="701" y="479"/>
			<point x="701" y="358" type="curve" smooth="yes"/>
			<point x="701" y="236"/>
			<point x="631" y="187"/>
		</contour>
		<contour>
			<point x="372" y="-55" type="line"/>
			<point x="544" y="-55" type="line"/>
			<point x="544" y="109" type="line"/>
			<point x="539" y="153" type="line"/>
			<point x="539" y="571" type="line"/>
			<point x="544" y="610" type="line"/>
			<point x="544" y="770" type="line"/>
			<point x="372" y="770" type="line"/>
			<point x="372" y="610" type="line"/>
			<point x="377" y="571" type="line"/>
			<point x="377" y="153" type="line"/>
			<point x="372" y="109" type="line"/>
		</contour>
	</outline>
</glyph>
<glyph name="El.loclBGR" format="2">
	<advance width="789"/>
	<outline>
		<contour>
			<point x="25" y="0" type="line"/>
			<point x="205" y="0" type="line"/>
			<point x="392" y="531" type="line"/>
			<point x="578" y="0" type="line"/>
			<point x="764" y="0" type="line"/>
			<point x="490" y="715" type="line"/>
			<point x="299" y="715" type="line"/>
		</contour>
	</outline>
	<anchor name="top.UC" x="394" y="750"/>
</glyph>
<glyph name="acutecomb.narrow" format="2">
	<outline>
		<contour>
			<point x="175" y="761" type="line"/>
			<point x="7" y="761" type="line"/>
			<point x="-77" y="587" type="line"/>
			<point x="50" y="587" type="line"/>
		</contour>
	</outline>
	<anchor name="_top.LC" x="0" y="544"/>
</glyph>
<glyph name="breveacutecomb" format="2">
	<outline>
		<contour>
			<point x="0" y="587" type="curve"/>
			<point x="94" y="587"/>
			<point x="172" y="648"/>
			<point x="183" y="757" type="curve"/>
			<point x="61" y="757" type="line"/>
			<point x="54" y="710"/>
			<point x="30" y="694"/>
			<point x="0" y="694" type="curve" smooth="yes"/>
			<point x="-30" y="694"/>
			<point x="-54" y="710"/>
			<point x="-61" y="757" type="curve"/>
			<point x="-183" y="757" type="line"/>
			<point x="-172" y="648"/>
			<point x="-94" y="587"/>
		</contour>
		<contour>
			<point x="-52" y="772" type="line"/>
			<point x="56" y="772" type="line"/>
			<point x="204" y="925" type="line"/>
			<point x="45" y="925" type="line"/>
		</contour>
	</outline>
	<anchor name="_top.LC" x="0" y="544"/>
</glyph>
<glyph name="brevecomb.cyrl.cap" format="2">
	<outline>
		<contour>
			<point x="0" y="590" type="curve" smooth="yes"/>
			<point x="102" y="590"/>
			<point x="178" y="639"/>
			<point x="192" y="748" type="curve"/>
			<point x="64" y="748" type="line"/>
			<point x="59" y="700"/>
			<point x="36" y="682"/>
			<point x="0" y="682" type="curve" smooth="yes"/>
			<point x="-34" y="682"/>
			<point x="-58" y="700"/>
			<point x="-64" y="748" type="curve"/>
			<point x="-191" y="748" type="line"/>
			<point x="-177" y="639"/>
			<point x="-101" y="590"/>
		</contour>
	</outline>
	<anchor name="_top.UC" x="0" y="544"/>
</glyph>
<glyph name="brevegravecomb" format="2">
	<outline>
		<contour>
			<point x="0" y="587" type="curve"/>
			<point x="94" y="587"/>
			<point x="172" y="648"/>
			<point x="183" y="757" type="curve"/>
			<point x="61" y="757" type="line"/>
			<point x="54" y="710"/>
			<point x="30" y="694"/>
			<point x="0" y="694" type="curve" smooth="yes"/>
			<point x="-30" y="694"/>
			<point x="-54" y="710"/>
			<point x="-61" y="757" type="curve"/>
			<point x="-183" y="757" type="line"/>
			<point x="-172" y="648"/>
			<point x="-94" y="587"/>
		</contour>
		<contour>
			<point x="-53" y="772" type="line"/>
			<point x="57" y="772" type="line"/>
			<point x="-40" y="925" type="line"/>
			<point x="-201" y="925" type="line"/>
		</contour>
	</outline>
	<anchor name="_top.LC" x="0" y="544"/>
</glyph>
<glyph name="brevehookabovecomb.cap" format="2">
	<outline>
		<contour>
			<point x="0" y="795" type="curve" smooth="yes"/>
			<point x="104" y="795"/>
			<point x="183" y="855"/>
			<point x="194" y="955" type="curve"/>
			<point x="65" y="955" type="line"/>
			<point x="59" y="920"/>
			<point x="32" y="897"/>
			<point x="0" y="897" type="curve" smooth="yes"/>
			<point x="-33" y="897"/>
			<point x="-59" y="920"/>
			<point x="-65" y="955" type="curve"/>
			<point x="-194" y="955" type="line"/>
			<point x="-183" y="855"/>
			<point x="-104" y="795"/>
		</contour>
		<contour>
			<point x="-16" y="950" type="line"/>
			<point x="64" y="979"/>
			<point x="107" y="1024"/>
			<point x="107" y="1076" type="curve" smooth="yes"/>
			<point x="107" y="1134"/>
			<point x="58" y="1175"/>
			<point x="-9" y="1175" type="curve" smooth="yes"/>
			<point x="-53" y="1175"/>
			<point x="-91" y="1159"/>
			<point x="-124" y="1127" type="curve"/>
			<point x="-78" y="1071" type="line"/>
			<point x="-61" y="1084"/>
			<point x="-46" y="1090"/>
			<point x="-26" y="1090" type="curve" smooth="yes"/>
			<point x="-5" y="1090"/>
			<point x="6" y="1080"/>
			<point x="6" y="1065" type="curve" smooth="yes"/>
			<point x="6" y="1045"/>
			<point x="-11" y="1030"/>
			<point x="-50" y="1012" type="curve"/>
		</contour>
	</outline>
	<anchor name="_top.UC" x="0" y="750"/>
</glyph>
<glyph name="brevehookabovecomb" format="2">
	<outline>
		<contour>
			<point x="0" y="587" type="curve"/>
			<point x="94" y="587"/>
			<point x="172" y="648"/>
			<point x="183" y="757" type="curve"/>
			<point x="61" y="757" type="line"/>
			<point x="54" y="710"/>
			<point x="30" y="694"/>
			<point x="0" y="694" type="curve" smooth="yes"/>
			<point x="-30" y="694"/>
			<point x="-54" y="710"/>
			<point x="-61" y="757" type="curve"/>
			<point x="-183" y="757" type="line"/>
			<point x="-172" y="648"/>
			<point x="-94" y="587"/>
		</contour>
		<contour>
			<point x="-12" y="760" type="line"/>
			<point x="71" y="790"/>
			<point x="114" y="835"/>
			<point x="114" y="889" type="curve" smooth="yes"/>
			<point x="114" y="949"/>
			<point x="64" y="991"/>
			<point x="-5" y="991" type="curve" smooth="yes"/>
			<point x="-50" y="991"/>
			<point x="-90" y="975"/>
			<point x="-123" y="942" type="curve"/>
			<point x="-76" y="885" type="line"/>
			<point x="-57" y="899"/>
			<point x="-42" y="905"/>
			<point x="-22" y="905" type="curve" smooth="yes"/>
			<point x="-1" y="905"/>
			<point x="12" y="894"/>
			<point x="12" y="878" type="curve" smooth="yes"/>
			<point x="12" y="859"/>
			<point x="-4" y="843"/>
			<point x="-47" y="823" type="curve"/>
		</contour>
	</outline>
	<anchor name="_top.LC" x="0" y="544"/>
</glyph>
<glyph name="brevetildecomb.cap" format="2">
	<outline>
		<contour>
			<point x="0" y="795" type="curve" smooth="yes"/>
			<point x="104" y="795"/>
			<point x="183" y="855"/>
			<point x="194" y="955" type="curve"/>
			<point x="65" y="955" type="line"/>
			<point x="59" y="920"/>
			<point x="32" y="897"/>
			<point x="0" y="897" type="curve" smooth="yes"/>
			<point x="-33" y="897"/>
			<point x="-59" y="920"/>
			<point x="-65" y="955" type="curve"/>
			<point x="-194" y="955" type="line"/>
			<point x="-183" y="855"/>
			<point x="-104" y="795"/>
		</contour>
		<contour>
			<point x="-109" y="984" type="line"/>
			<point x="-103" y="1025"/>
			<point x="-91" y="1046"/>
			<point x="-73" y="1046" type="curve" smooth="yes"/>
			<point x="-63" y="1046"/>
			<point x="-53" y="1042"/>
			<point x="-28" y="1025" type="curve" smooth="yes"/>
			<point x="14" y="997"/>
			<point x="46" y="984"/>
			<point x="81" y="984" type="curve" smooth="yes"/>
			<point x="146" y="984"/>
			<point x="190" y="1029"/>
			<point x="201" y="1107" type="curve"/>
			<point x="109" y="1141" type="line"/>
			<point x="103" y="1100"/>
			<point x="91" y="1079"/>
			<point x="73" y="1079" type="curve" smooth="yes"/>
			<point x="61" y="1079"/>
			<point x="42" y="1088"/>
			<point x="15" y="1105" type="curve" smooth="yes"/>
			<point x="-27" y="1132"/>
			<point x="-52" y="1141"/>
			<point x="-79" y="1141" type="curve" smooth="yes"/>
			<point x="-146" y="1141"/>
			<point x="-189" y="1097"/>
			<point x="-201" y="1018" type="curve"/>
		</contour>
	</outline>
	<anchor name="_top.UC" x="0" y="750"/>
</glyph>
<glyph name="brevetildecomb" format="2">
	<outline>
		<contour>
			<point x="0" y="587" type="curve"/>
			<point x="94" y="587"/>
			<point x="172" y="648"/>
			<point x="183" y="757" type="curve"/>
			<point x="61" y="757" type="line"/>
			<point x="54" y="710"/>
			<point x="30" y="694"/>
			<point x="0" y="694" type="curve" smooth="yes"/>
			<point x="-30" y="694"/>
			<point x="-54" y="710"/>
			<point x="-61" y="757" type="curve"/>
			<point x="-183" y="757" type="line"/>
			<point x="-172" y="648"/>
			<point x="-94" y="587"/>
		</contour>
		<contour>
			<point x="-105" y="793" type="line"/>
			<point x="-97" y="827"/>
			<point x="-86" y="847"/>
			<point x="-67" y="847" type="curve" smooth="yes"/>
			<point x="-53" y="847"/>
			<point x="-40" y="839"/>
			<point x="-4" y="820" type="curve" smooth="yes"/>
			<point x="28" y="803"/>
			<point x="48" y="794"/>
			<point x="73" y="794" type="curve" smooth="yes"/>
			<point x="131" y="794"/>
			<point x="180" y="837"/>
			<point x="196" y="912" type="curve"/>
			<point x="105" y="949" type="line"/>
			<point x="97" y="912"/>
			<point x="84" y="895"/>
			<point x="67" y="895" type="curve" smooth="yes"/>
			<point x="55" y="895"/>
			<point x="51" y="897"/>
			<point x="9" y="920" type="curve" smooth="yes"/>
			<point x="-30" y="941"/>
			<point x="-46" y="948"/>
			<point x="-73" y="948" type="curve" smooth="yes"/>
			<point x="-132" y="948"/>
			<point x="-181" y="902"/>
			<point x="-196" y="829" type="curve"/>
		</contour>
	</outline>
	<anchor name="_top.LC" x="0" y="544"/>
</glyph>
<glyph name="cedillacomb.cap" format="2">
	<outline>
		<contour>
			<point x="-146" y="-224" type="line"/>
			<point x="-108" y="-252"/>
			<point x="-69" y="-265"/>
			<point x="-23" y="-265" type="curve" smooth="yes"/>
			<point x="75" y="-265"/>
			<point x="136" y="-210"/>
			<point x="136" y="-140" type="curve" smooth="yes"/>
			<point x="136" y="-70"/>
			<point x="56" y="-30"/>
			<point x="-33" y="-35" type="curve"/>
			<point x="10" y="-97" type="line"/>
			<point x="40" y="10" type="line"/>
			<point x="-46" y="10" type="line"/>
			<point x="-83" y="-118" type="line"/>
			<point x="-63" y="-113"/>
			<point x="-43" y="-111"/>
			<point x="-31" y="-111" type="curve" smooth="yes"/>
			<point x="8" y="-111"/>
			<point x="27" y="-124"/>
			<point x="27" y="-143" type="curve" smooth="yes"/>
			<point x="27" y="-163"/>
			<point x="8" y="-175"/>
			<point x="-22" y="-175" type="curve" smooth="yes"/>
			<point x="-50" y="-175"/>
			<point x="-78" y="-164"/>
			<point x="-98" y="-148" type="curve"/>
		</contour>
	</outline>
	<anchor name="_bottom.UC" x="0" y="-50"/>
</glyph>
<glyph name="che.loclBGR" format="2">
	<advance width="609"/>
	<outline>
		<contour>
			<point x="226" y="142" type="curve" smooth="yes"/>
			<point x="344" y="142"/>
			<point x="417" y="224"/>
			<point x="417" y="350" type="curve"/>
			<point x="383" y="366" type="line"/>
			<point x="374" y="315"/>
			<point x="331" y="280"/>
			<point x="280" y="280" type="curve" smooth="yes"/>
			<point x="234" y="280"/>
			<point x="204" y="303"/>
			<point x="204" y="364" type="curve" smooth="yes"/>
			<point x="204" y="510" type="line"/>
			<point x="35" y="510" type="line"/>
			<point x="35" y="347" type="line" smooth="yes"/>
			<point x="35" y="214"/>
			<point x="109" y="142"/>
		</contour>
		<contour>
			<point x="378" y="0" type="line"/>
			<point x="547" y="0" type="line"/>
			<point x="547" y="510" type="line"/>
			<point x="378" y="510" type="line"/>
		</contour>
	</outline>
</glyph>
<glyph name="circumflexacutecomb.cap" format="2">
	<outline>
		<contour>
			<point x="-225" y="799" type="line"/>
			<point x="-70" y="799" type="line"/>
			<point x="64" y="920" type="line"/>
			<point x="-66" y="920" type="line"/>
			<point x="69" y="799" type="line"/>
			<point x="225" y="799" type="line"/>
			<point x="97" y="936" type="line"/>
			<point x="-97" y="936" type="line"/>
		</contour>
		<contour>
			<point x="165" y="882" type="line"/>
			<point x="273" y="882" type="line"/>
			<point x="430" y="1030" type="line"/>
			<point x="271" y="1030" type="line"/>
		</contour>
	</outline>
	<anchor name="_top.UC" x="0" y="750"/>
</glyph>
<glyph name="circumflexacutecomb" format="2">
	<outline>
		<contour>
			<point x="-212" y="587" type="line"/>
			<point x="-62" y="587" type="line"/>
			<point x="61" y="712" type="line"/>
			<point x="-64" y="712" type="line"/>
			<point x="59" y="587" type="line"/>
			<point x="212" y="587" type="line"/>
			<point x="88" y="744" type="line"/>
			<point x="-88" y="744" type="line"/>
		</contour>
		<contour>
			<point x="160" y="678" type="line"/>
			<point x="268" y="678" type="line"/>
			<point x="416" y="831" type="line"/>
			<point x="257" y="831" type="line"/>
		</contour>
	</outline>
	<anchor name="_top.LC" x="0" y="544"/>
</glyph>
<glyph name="circumflexcomb.cap" format="2">
	<outline>
		<contour>
			<point x="226" y="799" type="line"/>
			<point x="93" y="943" type="line"/>
			<point x="-93" y="943" type="line"/>
			<point x="-226" y="799" type="line"/>
			<point x="-71" y="799" type="line"/>
			<point x="68" y="927" type="line"/>
			<point x="-70" y="927" type="line"/>
			<point x="70" y="799" type="line"/>
		</contour>
	</outline>
	<anchor name="_top.UC" x="0" y="750"/>
	<anchor name="top.UC" x="229" y="857"/>
</glyph>
<glyph name="circumflexgravecomb" format="2">
	<outline>
		<contour>
			<point x="-212" y="587" type="line"/>
			<point x="-62" y="587" type="line"/>
			<point x="61" y="712" type="line"/>
			<point x="-64" y="712" type="line"/>
			<point x="59" y="587" type="line"/>
			<point x="212" y="587" type="line"/>
			<point x="88" y="744" type="line"/>
			<point x="-88" y="744" type="line"/>
		</contour>
		<contour>
			<point x="213" y="678" type="line"/>
			<point x="323" y="678" type="line"/>
			<point x="226" y="831" type="line"/>
			<point x="65" y="831" type="line"/>
		</contour>
	</outline>
	<anchor name="_top.LC" x="0" y="544"/>
</glyph>
<glyph name="circumflexhookabovecomb" format="2">
	<outline>
		<contour>
			<point x="-212" y="587" type="line"/>
			<point x="-62" y="587" type="line"/>
			<point x="61" y="712" type="line"/>
			<point x="-64" y="712" type="line"/>
			<point x="59" y="587" type="line"/>
			<point x="212" y="587" type="line"/>
			<point x="88" y="744" type="line"/>
			<point x="-88" y="744" type="line"/>
		</contour>
		<contour>
			<point x="200" y="666" type="line"/>
			<point x="283" y="696"/>
			<point x="326" y="741"/>
			<point x="326" y="795" type="curve" smooth="yes"/>
			<point x="326" y="855"/>
			<point x="276" y="897"/>
			<point x="207" y="897" type="curve" smooth="yes"/>
			<point x="162" y="897"/>
			<point x="122" y="881"/>
			<point x="89" y="848" type="curve"/>
			<point x="136" y="791" type="line"/>
			<point x="155" y="805"/>
			<point x="170" y="811"/>
			<point x="190" y="811" type="curve" smooth="yes"/>
			<point x="211" y="811"/>
			<point x="224" y="800"/>
			<point x="224" y="784" type="curve" smooth="yes"/>
			<point x="224" y="765"/>
			<point x="208" y="749"/>
			<point x="165" y="729" type="curve"/>
		</contour>
	</outline>
	<anchor name="_top.LC" x="0" y="544"/>
</glyph>
<glyph name="circumflextildecomb.cap" format="2">
	<outline>
		<contour>
			<point x="-225" y="799" type="line"/>
			<point x="-70" y="799" type="line"/>
			<point x="64" y="920" type="line"/>
			<point x="-66" y="920" type="line"/>
			<point x="69" y="799" type="line"/>
			<point x="225" y="799" type="line"/>
			<point x="97" y="936" type="line"/>
			<point x="-97" y="936" type="line"/>
		</contour>
		<contour>
			<point x="-109" y="958" type="line"/>
			<point x="-103" y="999"/>
			<point x="-91" y="1020"/>
			<point x="-73" y="1020" type="curve" smooth="yes"/>
			<point x="-63" y="1020"/>
			<point x="-53" y="1016"/>
			<point x="-28" y="999" type="curve" smooth="yes"/>
			<point x="13" y="970"/>
			<point x="46" y="958"/>
			<point x="81" y="958" type="curve" smooth="yes"/>
			<point x="146" y="958"/>
			<point x="190" y="1003"/>
			<point x="201" y="1081" type="curve"/>
			<point x="109" y="1115" type="line"/>
			<point x="103" y="1074"/>
			<point x="91" y="1053"/>
			<point x="73" y="1053" type="curve" smooth="yes"/>
			<point x="61" y="1053"/>
			<point x="42" y="1062"/>
			<point x="15" y="1079" type="curve" smooth="yes"/>
			<point x="-27" y="1106"/>
			<point x="-52" y="1115"/>
			<point x="-79" y="1115" type="curve" smooth="yes"/>
			<point x="-146" y="1115"/>
			<point x="-189" y="1071"/>
			<point x="-201" y="992" type="curve"/>
		</contour>
	</outline>
	<anchor name="_top.UC" x="0" y="750"/>
</glyph>
<glyph name="circumflextildecomb" format="2">
	<outline>
		<contour>
			<point x="-212" y="587" type="line"/>
			<point x="-62" y="587" type="line"/>
			<point x="61" y="712" type="line"/>
			<point x="-64" y="712" type="line"/>
			<point x="59" y="587" type="line"/>
			<point x="212" y="587" type="line"/>
			<point x="88" y="744" type="line"/>
			<point x="-88" y="744" type="line"/>
		</contour>
		<contour>
			<point x="-105" y="783" type="line"/>
			<point x="-97" y="817"/>
			<point x="-86" y="837"/>
			<point x="-67" y="837" type="curve" smooth="yes"/>
			<point x="-53" y="837"/>
			<point x="-40" y="829"/>
			<point x="-4" y="810" type="curve" smooth="yes"/>
			<point x="28" y="793"/>
			<point x="48" y="784"/>
			<point x="73" y="784" type="curve" smooth="yes"/>
			<point x="131" y="784"/>
			<point x="180" y="827"/>
			<point x="196" y="902" type="curve"/>
			<point x="105" y="939" type="line"/>
			<point x="97" y="902"/>
			<point x="84" y="885"/>
			<point x="67" y="885" type="curve" smooth="yes"/>
			<point x="55" y="885"/>
			<point x="51" y="887"/>
			<point x="9" y="910" type="curve" smooth="yes"/>
			<point x="-30" y="931"/>
			<point x="-46" y="938"/>
			<point x="-73" y="938" type="curve" smooth="yes"/>
			<point x="-132" y="938"/>
			<point x="-181" y="892"/>
			<point x="-196" y="819" type="curve"/>
		</contour>
	</outline>
	<anchor name="_top.LC" x="0" y="544"/>
</glyph>
<glyph name="commabelowcomb.cap" format="2">
	<outline>
		<contour>
			<point x="-12" y="-306" type="line"/>
			<point x="29" y="-266"/>
			<point x="67" y="-200"/>
			<point x="67" y="-153" type="curve" smooth="yes"/>
			<point x="67" y="-104"/>
			<point x="37" y="-70"/>
			<point x="-10" y="-70" type="curve" smooth="yes"/>
			<point x="-53" y="-70"/>
			<point x="-83" y="-101"/>
			<point x="-83" y="-141" type="curve" smooth="yes"/>
			<point x="-83" y="-180"/>
			<point x="-51" y="-211"/>
			<point x="-9" y="-211" type="curve"/>
			<point x="-31" y="-188" type="line"/>
			<point x="-29" y="-219"/>
			<point x="-54" y="-268"/>
			<point x="-90" y="-306" type="curve"/>
		</contour>
	</outline>
	<anchor name="_bottom.UC" x="0" y="-50"/>
</glyph>
<glyph name="eight.dnom" format="2">
	<advance width="406"/>
	<outline>
		<contour>
			<point x="203" y="-9" type="curve" smooth="yes"/>
			<point x="310" y="-9"/>
			<point x="382" y="44"/>
			<point x="382" y="115" type="curve" smooth="yes"/>
			<point x="382" y="186"/>
			<point x="307" y="234"/>
			<point x="203" y="234" type="curve" smooth="yes"/>
			<point x="99" y="234"/>
			<point x="24" y="186"/>
			<point x="24" y="115" type="curve" smooth="yes"/>
			<point x="24" y="44"/>
			<point x="95" y="-9"/>
		</contour>
		<contour>
			<point x="203" y="201" type="curve" smooth="yes"/>
			<point x="295" y="201"/>
			<point x="363" y="244"/>
			<point x="363" y="306" type="curve" smooth="yes"/>
			<point x="363" y="368"/>
			<point x="299" y="417"/>
			<point x="203" y="417" type="curve" smooth="yes"/>
			<point x="106" y="417"/>
			<point x="42" y="368"/>
			<point x="42" y="306" type="curve" smooth="yes"/>
			<point x="42" y="244"/>
			<point x="110" y="201"/>
		</contour>
		<contour>
			<point x="203" y="83" type="curve" smooth="yes"/>
			<point x="168" y="83"/>
			<point x="144" y="101"/>
			<point x="144" y="127" type="curve" smooth="yes"/>
			<point x="144" y="154"/>
			<point x="168" y="172"/>
			<point x="203" y="172" type="curve" smooth="yes"/>
			<point x="238" y="172"/>
			<point x="262" y="154"/>
			<point x="262" y="128" type="curve" smooth="yes"/>
			<point x="262" y="101"/>
			<point x="238" y="83"/>
		</contour>
		<contour>
			<point x="203" y="249" type="curve" smooth="yes"/>
			<point x="176" y="249"/>
			<point x="158" y="265"/>
			<point x="158" y="288" type="curve" smooth="yes"/>
			<point x="158" y="311"/>
			<point x="176" y="327"/>
			<point x="203" y="327" type="curve" smooth="yes"/>
			<point x="229" y="327"/>
			<point x="247" y="312"/>
			<point x="247" y="289" type="curve" smooth="yes"/>
			<point x="247" y="265"/>
			<point x="229" y="249"/>
		</contour>
	</outline>
</glyph>
<glyph name="el.loclBGR" format="2">
	<advance width="629"/>
	<outline>
		<contour>
			<point x="15" y="0" type="line"/>
			<point x="184" y="0" type="line"/>
			<point x="312" y="345" type="line"/>
			<point x="441" y="0" type="line"/>
			<point x="614" y="0" type="line"/>
			<point x="396" y="510" type="line"/>
			<point x="233" y="510" type="line"/>
		</contour>
	</outline>
</glyph>
<glyph name="exclamdown.case" format="2">
	<advance width="286"/>
	<outline>
		<contour>
			<point x="43" y="619" type="curve" smooth="yes"/>
			<point x="43" y="564"/>
			<point x="87" y="522"/>
			<point x="143" y="522" type="curve" smooth="yes"/>
			<point x="199" y="522"/>
			<point x="243" y="564"/>
			<point x="243" y="619" type="curve" smooth="yes"/>
			<point x="243" y="673"/>
			<point x="199" y="715"/>
			<point x="143" y="715" type="curve" smooth="yes"/>
			<point x="87" y="715"/>
			<point x="43" y="673"/>
		</contour>
		<contour>
			<point x="105" y="469" type="line"/>
			<point x="95" y="413"/>
			<point x="49" y="95"/>
			<point x="49" y="62" type="curve" smooth="yes"/>
			<point x="49" y="11"/>
			<point x="91" y="-26"/>
			<point x="143" y="-26" type="curve" smooth="yes"/>
			<point x="195" y="-26"/>
			<point x="237" y="11"/>
			<point x="237" y="62" type="curve" smooth="yes"/>
			<point x="237" y="95"/>
			<point x="191" y="413"/>
			<point x="181" y="469" type="curve"/>
		</contour>
	</outline>
</glyph>
<glyph name="five.dnom" format="2">
	<advance width="390"/>
	<outline>
		<contour>
			<point x="19" y="56" type="line"/>
			<point x="66" y="13"/>
			<point x="125" y="-9"/>
			<point x="194" y="-9" type="curve" smooth="yes"/>
			<point x="293" y="-9"/>
			<point x="368" y="51"/>
			<point x="368" y="140" type="curve" smooth="yes"/>
			<point x="368" y="222"/>
			<point x="307" y="282"/>
			<point x="219" y="282" type="curve" smooth="yes"/>
			<point x="153" y="282"/>
			<point x="111" y="235"/>
			<point x="104" y="173" type="curve"/>
			<point x="137" y="172" type="line"/>
			<point x="152" y="184"/>
			<point x="169" y="192"/>
			<point x="194" y="192" type="curve" smooth="yes"/>
			<point x="229" y="192"/>
			<point x="252" y="169"/>
			<point x="252" y="140" type="curve" smooth="yes"/>
			<point x="252" y="109"/>
			<point x="227" y="85"/>
			<point x="190" y="85" type="curve" smooth="yes"/>
			<point x="147" y="85"/>
			<point x="114" y="99"/>
			<point x="80" y="133" type="curve"/>
		</contour>
		<contour>
			<point x="346" y="317" type="line"/>
			<point x="346" y="408" type="line"/>
			<point x="67" y="408" type="line"/>
			<point x="35" y="172" type="line"/>
			<point x="137" y="172" type="line"/>
			<point x="166" y="386" type="line"/>
			<point x="102" y="317" type="line"/>
		</contour>
	</outline>
</glyph>
<glyph name="ghe.loclBGR" format="2">
	<advance width="558"/>
	<outline>
		<contour>
			<point x="278" y="-16" type="curve" smooth="yes"/>
			<point x="382" y="-16"/>
			<point x="479" y="18"/>
			<point x="538" y="75" type="curve"/>
			<point x="455" y="175" type="line"/>
			<point x="410" y="134"/>
			<point x="336" y="106"/>
			<point x="274" y="106" type="curve" smooth="yes"/>
			<point x="225" y="106"/>
			<point x="195" y="120"/>
			<point x="195" y="143" type="curve" smooth="yes"/>
			<point x="195" y="166"/>
			<point x="216" y="175"/>
			<point x="303" y="189" type="curve" smooth="yes"/>
			<point x="444" y="212"/>
			<point x="512" y="266"/>
			<point x="512" y="355" type="curve" smooth="yes"/>
			<point x="512" y="457"/>
			<point x="418" y="526"/>
			<point x="279" y="526" type="curve" smooth="yes"/>
			<point x="187" y="526"/>
			<point x="100" y="496"/>
			<point x="38" y="442" type="curve"/>
			<point x="121" y="340" type="line"/>
			<point x="167" y="380"/>
			<point x="226" y="404"/>
			<point x="279" y="404" type="curve" smooth="yes"/>
			<point x="323" y="404"/>
			<point x="350" y="391"/>
			<point x="350" y="371" type="curve" smooth="yes"/>
			<point x="350" y="347"/>
			<point x="331" y="339"/>
			<point x="233" y="322" type="curve" smooth="yes"/>
			<point x="99" y="299"/>
			<point x="35" y="246"/>
			<point x="35" y="158" type="curve" smooth="yes"/>
			<point x="35" y="53"/>
			<point x="131" y="-16"/>
		</contour>
	</outline>
	<anchor name="bottom.LC" x="282" y="-50"/>
	<anchor name="top.LC" x="281" y="544"/>
</glyph>
<glyph name="gravecomb.cap" format="2">
	<outline>
		<contour>
			<point x="-71" y="789" type="line"/>
			<point x="86" y="789" type="line"/>
			<point x="-48" y="933" type="line"/>
			<point x="-246" y="933" type="line"/>
		</contour>
	</outline>
	<anchor name="_top.UC" x="0" y="750"/>
</glyph>
<glyph name="hard.loclBGR" format="2">
	<advance width="634"/>
	<outline>
		<contour>
			<point x="380" y="-16" type="curve" smooth="yes"/>
			<point x="522" y="-16"/>
			<point x="616" y="67"/>
			<point x="616" y="193" type="curve" smooth="yes"/>
			<point x="616" y="303"/>
			<point x="530" y="386"/>
			<point x="416" y="386" type="curve" smooth="yes"/>
			<point x="363" y="386"/>
			<point x="316" y="366"/>
			<point x="286" y="332" type="curve"/>
			<point x="294" y="328" type="line"/>
			<point x="294" y="510" type="line"/>
			<point x="24" y="510" type="line"/>
			<point x="24" y="380" type="line"/>
			<point x="146" y="380" type="line"/>
			<point x="134" y="392" type="line"/>
			<point x="134" y="204" type="line" smooth="yes"/>
			<point x="134" y="63"/>
			<point x="222" y="-16"/>
		</contour>
		<contour>
			<point x="373" y="117" type="curve" smooth="yes"/>
			<point x="324" y="117"/>
			<point x="292" y="144"/>
			<point x="292" y="185" type="curve" smooth="yes"/>
			<point x="292" y="226"/>
			<point x="324" y="253"/>
			<point x="373" y="253" type="curve" smooth="yes"/>
			<point x="419" y="253"/>
			<point x="450" y="225"/>
			<point x="450" y="185" type="curve" smooth="yes"/>
			<point x="450" y="144"/>
			<point x="420" y="117"/>
		</contour>
	</outline>
</glyph>
<glyph name="hookabovecomb.cap" format="2">
	<outline>
		<contour>
			<point x="-12" y="766" type="line"/>
			<point x="71" y="796"/>
			<point x="119" y="847"/>
			<point x="119" y="904" type="curve" smooth="yes"/>
			<point x="119" y="966"/>
			<point x="70" y="1007"/>
			<point x="-5" y="1007" type="curve" smooth="yes"/>
			<point x="-52" y="1007"/>
			<point x="-93" y="990"/>
			<point x="-128" y="956" type="curve"/>
			<point x="-79" y="896" type="line"/>
			<point x="-60" y="910"/>
			<point x="-44" y="916"/>
			<point x="-23" y="916" type="curve" smooth="yes"/>
			<point x="-2" y="916"/>
			<point x="11" y="906"/>
			<point x="11" y="889" type="curve" smooth="yes"/>
			<point x="11" y="869"/>
			<point x="-6" y="853"/>
			<point x="-49" y="832" type="curve"/>
		</contour>
	</outline>
	<anchor name="_top.UC" x="0" y="750"/>
</glyph>
<glyph name="horncomb.cap" format="2">
	<outline>
		<contour>
			<point x="0" y="615" type="line"/>
			<point x="110" y="615" type="line" smooth="yes"/>
			<point x="265" y="615"/>
			<point x="341" y="677"/>
			<point x="341" y="812" type="curve" smooth="yes"/>
			<point x="341" y="864" type="line"/>
			<point x="205" y="864" type="line"/>
			<point x="205" y="804" type="line" smooth="yes"/>
			<point x="205" y="738"/>
			<point x="182" y="715"/>
			<point x="117" y="715" type="curve" smooth="yes"/>
			<point x="0" y="715" type="line"/>
		</contour>
	</outline>
	<anchor name="_topright.UC" x="0" y="750"/>
</glyph>
<glyph name="hungarumlautcomb.cap" format="2">
	<outline>
		<contour>
			<point x="113" y="933" type="line"/>
			<point x="-73" y="933" type="line"/>
			<point x="-185" y="789" type="line"/>
			<point x="-28" y="789" type="line"/>
		</contour>
		<contour>
			<point x="349" y="933" type="line"/>
			<point x="162" y="933" type="line"/>
			<point x="18" y="789" type="line"/>
			<point x="175" y="789" type="line"/>
		</contour>
	</outline>
	<anchor name="_top.UC" x="0" y="750"/>
</glyph>
<glyph name="macroncomb.cap" format="2">
	<outline>
		<contour>
			<point x="170" y="796" type="line"/>
			<point x="170" y="910" type="line"/>
			<point x="-170" y="910" type="line"/>
			<point x="-170" y="796" type="line"/>
		</contour>
	</outline>
	<anchor name="_top.UC" x="0" y="750"/>
</glyph>
<glyph name="macroncomb.narrow" format="2">
	<outline>
		<contour>
			<point x="143" y="592" type="line"/>
			<point x="143" y="703" type="line"/>
			<point x="-143" y="703" type="line"/>
			<point x="-143" y="592" type="line"/>
		</contour>
	</outline>
	<anchor name="_top.LC" x="0" y="544"/>
</glyph>
<glyph name="nine.dnom" format="2">
	<advance width="400"/>
	<outline>
		<contour>
			<point x="200" y="417" type="curve" smooth="yes"/>
			<point x="98" y="417"/>
			<point x="21" y="358"/>
			<point x="21" y="269" type="curve" smooth="yes"/>
			<point x="21" y="189"/>
			<point x="83" y="132"/>
			<point x="168" y="132" type="curve" smooth="yes"/>
			<point x="210" y="132"/>
			<point x="231" y="146"/>
			<point x="249" y="169" type="curve"/>
			<point x="241" y="170" type="line"/>
			<point x="215" y="126"/>
			<point x="161" y="77"/>
			<point x="60" y="0" type="curve"/>
			<point x="208" y="0" type="line"/>
			<point x="298" y="75"/>
			<point x="377" y="153"/>
			<point x="377" y="258" type="curve" smooth="yes"/>
			<point x="377" y="351"/>
			<point x="304" y="417"/>
		</contour>
		<contour>
			<point x="199" y="325" type="curve" smooth="yes"/>
			<point x="236" y="325"/>
			<point x="263" y="302"/>
			<point x="263" y="272" type="curve" smooth="yes"/>
			<point x="263" y="241"/>
			<point x="236" y="218"/>
			<point x="199" y="218" type="curve" smooth="yes"/>
			<point x="161" y="218"/>
			<point x="135" y="241"/>
			<point x="135" y="272" type="curve" smooth="yes"/>
			<point x="135" y="302"/>
			<point x="161" y="325"/>
		</contour>
	</outline>
</glyph>
<glyph name="seven.dnom" format="2">
	<advance width="376"/>
	<outline>
		<contour>
			<point x="350" y="408" type="line"/>
			<point x="26" y="408" type="line"/>
			<point x="26" y="317" type="line"/>
			<point x="231" y="317" type="line"/>
			<point x="31" y="0" type="line"/>
			<point x="157" y="0" type="line"/>
			<point x="350" y="317" type="line"/>
		</contour>
	</outline>
</glyph>
<glyph name="shcha.loclBGR" format="2">
	<advance width="974"/>
	<outline>
		<contour>
			<point x="240" y="-16" type="curve" smooth="yes"/>
			<point x="347" y="-16"/>
			<point x="407" y="50"/>
			<point x="431" y="192" type="curve"/>
			<point x="376" y="208" type="line"/>
			<point x="367" y="157"/>
			<point x="330" y="122"/>
			<point x="283" y="122" type="curve" smooth="yes"/>
			<point x="239" y="122"/>
			<point x="215" y="152"/>
			<point x="215" y="206" type="curve" smooth="yes"/>
			<point x="215" y="510" type="line"/>
			<point x="46" y="510" type="line"/>
			<point x="46" y="189" type="line" smooth="yes"/>
			<point x="46" y="59"/>
			<point x="117" y="-16"/>
		</contour>
		<contour>
			<point x="551" y="-16" type="curve" smooth="yes"/>
			<point x="662" y="-16"/>
			<point x="729" y="62"/>
			<point x="729" y="192" type="curve"/>
			<point x="701" y="208" type="line"/>
			<point x="692" y="157"/>
			<point x="655" y="122"/>
			<point x="608" y="122" type="curve" smooth="yes"/>
			<point x="565" y="122"/>
			<point x="540" y="153"/>
			<point x="540" y="206" type="curve" smooth="yes"/>
			<point x="540" y="510" type="line"/>
			<point x="371" y="510" type="line"/>
			<point x="371" y="188" type="line" smooth="yes"/>
			<point x="371" y="59"/>
			<point x="437" y="-16"/>
		</contour>
		<contour>
			<point x="795" y="-143" type="line"/>
			<point x="954" y="-143" type="line"/>
			<point x="954" y="134" type="line"/>
			<point x="915" y="134" type="line" smooth="yes"/>
			<point x="878" y="134"/>
			<point x="865" y="148"/>
			<point x="865" y="186" type="curve" smooth="yes"/>
			<point x="865" y="510" type="line"/>
			<point x="696" y="510" type="line"/>
			<point x="696" y="146" type="line"/>
			<point x="698" y="121" type="line" smooth="yes"/>
			<point x="704" y="47"/>
			<point x="757" y="0"/>
			<point x="825" y="0" type="curve"/>
			<point x="795" y="44" type="line"/>
		</contour>
	</outline>
</glyph>
<glyph name="six.dnom" format="2">
	<advance width="400"/>
	<outline>
		<contour>
			<point x="200" y="-9" type="curve" smooth="yes"/>
			<point x="302" y="-9"/>
			<point x="379" y="50"/>
			<point x="379" y="139" type="curve" smooth="yes"/>
			<point x="379" y="219"/>
			<point x="317" y="276"/>
			<point x="232" y="276" type="curve" smooth="yes"/>
			<point x="190" y="276"/>
			<point x="169" y="262"/>
			<point x="151" y="239" type="curve"/>
			<point x="159" y="238" type="line"/>
			<point x="185" y="282"/>
			<point x="239" y="331"/>
			<point x="340" y="408" type="curve"/>
			<point x="192" y="408" type="line"/>
			<point x="102" y="333"/>
			<point x="23" y="255"/>
			<point x="23" y="150" type="curve" smooth="yes"/>
			<point x="23" y="57"/>
			<point x="96" y="-9"/>
		</contour>
		<contour>
			<point x="201" y="83" type="curve" smooth="yes"/>
			<point x="164" y="83"/>
			<point x="137" y="106"/>
			<point x="137" y="136" type="curve" smooth="yes"/>
			<point x="137" y="167"/>
			<point x="164" y="190"/>
			<point x="201" y="190" type="curve" smooth="yes"/>
			<point x="239" y="190"/>
			<point x="265" y="167"/>
			<point x="265" y="136" type="curve" smooth="yes"/>
			<point x="265" y="106"/>
			<point x="239" y="83"/>
		</contour>
	</outline>
</glyph>
<glyph name="soft.loclBGR" format="2">
	<advance width="546"/>
	<outline>
		<contour>
			<point x="292" y="-16" type="curve" smooth="yes"/>
			<point x="434" y="-16"/>
			<point x="528" y="67"/>
			<point x="528" y="193" type="curve" smooth="yes"/>
			<point x="528" y="303"/>
			<point x="442" y="386"/>
			<point x="328" y="386" type="curve" smooth="yes"/>
			<point x="255" y="386"/>
			<point x="195" y="348"/>
			<point x="173" y="289" type="curve"/>
			<point x="206" y="274" type="line"/>
			<point x="206" y="510" type="line"/>
			<point x="46" y="510" type="line"/>
			<point x="46" y="204" type="line" smooth="yes"/>
			<point x="46" y="63"/>
			<point x="134" y="-16"/>
		</contour>
		<contour>
			<point x="285" y="117" type="curve" smooth="yes"/>
			<point x="236" y="117"/>
			<point x="204" y="144"/>
			<point x="204" y="185" type="curve" smooth="yes"/>
			<point x="204" y="226"/>
			<point x="236" y="253"/>
			<point x="285" y="253" type="curve" smooth="yes"/>
			<point x="331" y="253"/>
			<point x="362" y="225"/>
			<point x="362" y="185" type="curve" smooth="yes"/>
			<point x="362" y="144"/>
			<point x="332" y="117"/>
		</contour>
	</outline>
</glyph>
<glyph name="three.dnom" format="2">
	<advance width="397"/>
	<outline>
		<contour>
			<point x="11" y="59" type="line"/>
			<point x="54" y="15"/>
			<point x="117" y="-9"/>
			<point x="189" y="-9" type="curve" smooth="yes"/>
			<point x="300" y="-9"/>
			<point x="367" y="48"/>
			<point x="367" y="118" type="curve" smooth="yes"/>
			<point x="367" y="182"/>
			<point x="313" y="226"/>
			<point x="219" y="226" type="curve"/>
			<point x="208" y="205" type="line"/>
			<point x="295" y="205"/>
			<point x="355" y="245"/>
			<point x="355" y="303" type="curve" smooth="yes"/>
			<point x="355" y="364"/>
			<point x="290" y="417"/>
			<point x="194" y="417" type="curve" smooth="yes"/>
			<point x="128" y="417"/>
			<point x="69" y="392"/>
			<point x="23" y="348" type="curve"/>
			<point x="84" y="277" type="line"/>
			<point x="116" y="311"/>
			<point x="149" y="325"/>
			<point x="180" y="325" type="curve" smooth="yes"/>
			<point x="215" y="325"/>
			<point x="238" y="309"/>
			<point x="238" y="289" type="curve" smooth="yes"/>
			<point x="238" y="268"/>
			<point x="216" y="254"/>
			<point x="176" y="254" type="curve" smooth="yes"/>
			<point x="131" y="254" type="line"/>
			<point x="131" y="165" type="line"/>
			<point x="176" y="165" type="line" smooth="yes"/>
			<point x="223" y="165"/>
			<point x="250" y="149"/>
			<point x="250" y="125" type="curve" smooth="yes"/>
			<point x="250" y="100"/>
			<point x="222" y="83"/>
			<point x="181" y="83" type="curve" smooth="yes"/>
			<point x="144" y="83"/>
			<point x="109" y="96"/>
			<point x="71" y="130" type="curve"/>
		</contour>
	</outline>
</glyph>
<glyph name="tildecomb.narrow" format="2">
	<outline>
		<contour>
			<point x="90" y="751" type="line"/>
			<point x="84" y="709"/>
			<point x="74" y="689"/>
			<point x="60" y="689" type="curve" smooth="yes"/>
			<point x="49" y="689"/>
			<point x="37" y="698"/>
			<point x="23" y="709" type="curve" smooth="yes"/>
			<point x="1" y="726"/>
			<point x="-29" y="748"/>
			<point x="-65" y="748" type="curve" smooth="yes"/>
			<point x="-120" y="748"/>
			<point x="-162" y="697"/>
			<point x="-176" y="618" type="curve"/>
			<point x="-90" y="577" type="line"/>
			<point x="-84" y="619"/>
			<point x="-74" y="639"/>
			<point x="-60" y="639" type="curve" smooth="yes"/>
			<point x="-49" y="639"/>
			<point x="-37" y="630"/>
			<point x="-23" y="619" type="curve" smooth="yes"/>
			<point x="-1" y="602"/>
			<point x="29" y="580"/>
			<point x="65" y="580" type="curve" smooth="yes"/>
			<point x="120" y="580"/>
			<point x="162" y="631"/>
			<point x="176" y="710" type="curve"/>
		</contour>
	</outline>
	<anchor name="_top.LC" x="0" y="544"/>
</glyph>
<glyph name="tse.loclBGR" format="2">
	<advance width="667"/>
	<outline>
		<contour>
			<point x="237" y="-16" type="curve" smooth="yes"/>
			<point x="355" y="-16"/>
			<point x="428" y="66"/>
			<point x="428" y="192" type="curve"/>
			<point x="394" y="208" type="line"/>
			<point x="385" y="157"/>
			<point x="342" y="122"/>
			<point x="291" y="122" type="curve" smooth="yes"/>
			<point x="245" y="122"/>
			<point x="215" y="150"/>
			<point x="215" y="206" type="curve" smooth="yes"/>
			<point x="215" y="510" type="line"/>
			<point x="46" y="510" type="line"/>
			<point x="46" y="189" type="line" smooth="yes"/>
			<point x="46" y="56"/>
			<point x="120" y="-16"/>
		</contour>
		<contour>
			<point x="488" y="-143" type="line"/>
			<point x="647" y="-143" type="line"/>
			<point x="647" y="134" type="line"/>
			<point x="608" y="134" type="line" smooth="yes"/>
			<point x="571" y="134"/>
			<point x="558" y="148"/>
			<point x="558" y="186" type="curve" smooth="yes"/>
			<point x="558" y="510" type="line"/>
			<point x="389" y="510" type="line"/>
			<point x="389" y="146" type="line"/>
			<point x="391" y="121" type="line" smooth="yes"/>
			<point x="397" y="47"/>
			<point x="450" y="0"/>
			<point x="518" y="0" type="curve"/>
			<point x="488" y="44" type="line"/>
		</contour>
	</outline>
</glyph>
